<svg width="404" height="141" viewBox="0 0 404 141" fill="none" xmlns="http://www.w3.org/2000/svg">
<path d="M380.127 4.40259C400.949 19.6859 410.73 58.739 387.258 94.052C380.968 103.515 367.649 109.543 350.479 113.37C333.151 117.233 311.229 118.995 286.886 119.387C238.182 120.171 179.305 115.47 127.09 110.783C85.4276 107.044 60.4057 109.312 46.0879 113.505C38.9281 115.602 34.6267 118.128 32.2363 120.455C29.8778 122.752 29.4787 124.727 29.6846 126.028L30.8232 133.227L25.5049 128.242C14.6538 118.072 6.92746 101.132 3.90918 83.6086C0.891994 66.0917 2.48477 47.4282 10.9482 33.8459C22.9111 14.6479 44.8106 8.23796 78.8408 7.58618C112.915 6.93358 160.295 12.0625 224.342 17.051C275.572 21.0413 311.838 19.6821 336.317 16.3938C348.558 14.7495 357.818 12.6273 364.511 10.467C371.277 8.28317 375.205 6.1269 376.99 4.54614L378.501 3.20923L380.127 4.40259Z" fill="white" stroke="#B9272D" stroke-width="5"/>
<path d="M378.639 9.57642C396.022 23.8447 404.717 58.7524 383.094 91.2844C377.959 99.0087 366.39 104.7 349.391 108.49C332.547 112.244 311.015 113.997 286.806 114.387C238.402 115.166 179.773 110.491 127.537 105.803C85.6394 102.042 59.8867 104.254 44.6826 108.706C37.0815 110.932 31.9338 113.771 28.748 116.873C27.3438 118.241 26.304 119.682 25.6211 121.145C17.4605 111.72 11.3992 97.6352 8.83691 82.759C5.93873 65.9325 7.6104 48.6581 15.1924 36.4905C25.6958 19.6346 45.1415 13.2325 78.9365 12.5852C112.688 11.9388 159.614 17.024 223.954 22.0354C275.434 26.0451 312.066 24.696 336.983 21.3489C349.441 19.6755 359.004 17.4982 366.047 15.2249C371.714 13.3957 375.894 11.4584 378.639 9.57642Z" fill="white" stroke="#DF2027" stroke-width="5"/>
<path d="M46.8426 82.4182L38.6927 82.4182L38.6927 49.2198L57.5941 49.2198L56.7423 55.9654L46.8426 55.9654L46.8426 64.2074L55.7983 64.2074L55.3839 67.4766C55.1998 68.7429 54.8544 69.6407 54.3479 70.1933C53.8414 70.7458 52.9666 70.9991 51.7464 70.9991L46.8426 70.9991L46.8426 82.4182ZM89.8255 77.5144L89.8255 77.8367C89.8255 79.3792 89.227 80.5994 88.0298 81.4973C86.8326 82.3952 85.4743 82.8326 83.9318 82.8326C82.8267 82.8326 81.8137 82.5794 80.8928 82.0499C79.9719 81.5203 79.1892 80.7376 78.5906 79.6785C77.8078 80.5994 76.7718 81.3592 75.4825 81.9578C74.1703 82.5563 72.7659 82.8326 71.2925 82.8326C70.4636 82.8326 69.6579 82.7405 68.8291 82.5333C68.0002 82.3491 67.1945 82.0038 66.3657 81.5434C65.5368 81.0829 64.7771 80.5073 64.1325 79.8167C63.4648 79.126 62.8893 78.2511 62.4288 77.1921C61.9453 76.1331 61.646 74.9359 61.5309 73.6006C61.3928 72.2653 61.3468 70.5386 61.3468 68.4666L61.3468 49.2198L69.4967 49.2198L69.4967 71.0451C69.4967 72.8639 69.9341 74.1762 70.855 74.9589C71.5917 75.6036 72.6047 75.9029 73.894 75.9029C75.1833 75.9029 76.2653 75.4654 77.0941 74.5906C77.8769 73.7618 78.2683 72.3574 78.2683 70.3544L78.2683 49.2198L86.4182 49.2198L86.4182 75.1201C86.4182 75.9949 86.6484 76.6396 87.1319 77.054C87.5463 77.4223 88.1679 77.6065 89.0198 77.6065C89.1809 77.6065 89.4572 77.5835 89.8255 77.5144ZM102.741 82.4182L92.7494 82.4182L92.7494 49.2198L100.899 49.2198L100.899 75.4885L104.192 75.4885C106.954 75.4885 109.648 75.3273 112.272 75.005L112.18 76.3403C112.042 78.2511 111.605 79.7016 110.891 80.6685C110.246 81.4513 109.372 81.9578 108.267 82.1419C107.161 82.3261 105.32 82.4182 102.741 82.4182ZM125.672 82.4182L115.68 82.4182L115.68 49.2198L123.83 49.2198L123.83 75.4885L127.122 75.4885C129.885 75.4885 132.578 75.3273 135.203 75.005L135.111 76.3403C134.973 78.2511 134.535 79.7016 133.821 80.6685C133.177 81.4513 132.302 81.9578 131.197 82.1419C130.092 82.3261 128.25 82.4182 125.672 82.4182ZM168.079 72.4725C168.079 75.7187 166.974 78.2742 164.81 80.116C162.646 81.9578 159.837 82.8787 156.383 82.8787C152.009 82.8787 149.039 81.7275 147.474 79.4023C146.714 78.3432 146.346 77.077 146.346 75.5805C146.346 74.3373 146.668 73.2783 147.313 72.3574C147.957 71.4365 148.786 70.8609 149.845 70.5847C150.075 72.3344 150.72 73.7157 151.779 74.7057C152.815 75.7187 154.265 76.2021 156.153 76.2021C157.535 76.2021 158.594 75.8798 159.33 75.2352C160.044 74.5906 160.412 73.8078 160.412 72.8869C160.412 71.6437 159.468 70.6307 157.627 69.871C157.281 69.7328 156.614 69.5256 155.601 69.2033C154.588 68.904 153.805 68.6508 153.229 68.4206C150.789 67.4997 149.016 66.2564 147.957 64.6909C146.944 63.2175 146.438 61.3757 146.438 59.2116C146.438 56.1035 147.428 53.5711 149.454 51.5911C151.457 49.6112 154.15 48.6212 157.535 48.6212C160.597 48.6212 163.014 49.3119 164.787 50.6933C166.122 51.7523 166.813 53.1106 166.813 54.7452C166.813 55.8273 166.467 56.7942 165.823 57.646C165.178 58.4979 164.28 59.0274 163.175 59.2576C162.208 56.4489 160.366 55.0215 157.673 55.0215C156.383 55.0215 155.417 55.3438 154.795 55.9884C154.15 56.6331 153.851 57.3237 153.851 58.0835C153.851 59.3267 154.634 60.3166 156.199 61.0534C156.683 61.2836 157.489 61.5829 158.64 61.9512C159.791 62.3426 160.551 62.6189 160.965 62.757C163.59 63.724 165.477 65.0593 166.582 66.7169C167.572 68.2364 168.079 70.1472 168.079 72.4725ZM194.463 50.5091L193.588 53.6632C193.312 54.5841 192.943 55.2517 192.46 55.6661C191.953 56.0805 191.309 56.2877 190.503 56.2877C190.088 56.2877 189.398 56.1956 188.454 55.9884C187.487 55.8042 186.635 55.6891 185.898 55.6891C184.609 55.6891 183.435 56.1956 182.422 57.1856C181.409 58.1756 180.626 59.4418 180.12 60.9613C179.59 62.4808 179.337 64.1154 179.337 65.819C179.337 68.8119 180.097 71.2293 181.662 73.1171C183.205 75.005 185.415 75.9489 188.293 75.9489C189.743 75.9489 191.516 75.7187 193.588 75.2122L193.588 81.198C191.562 82.234 189.144 82.7405 186.313 82.7405C183.274 82.7405 180.557 82.0268 178.209 80.5994C175.86 79.172 174.019 77.1921 172.729 74.6136C171.44 72.0351 170.796 69.1112 170.796 65.819C170.796 63.5168 171.072 61.4217 171.67 59.4878C172.269 57.577 173.052 55.9654 174.065 54.6761C175.055 53.3869 176.206 52.2818 177.541 51.3839C178.876 50.4861 180.258 49.8414 181.731 49.427C183.182 49.0126 184.678 48.8054 186.221 48.8054C188.96 48.8054 191.7 49.381 194.463 50.5091ZM206.342 49.2198L206.342 62.5268L215.827 62.5268L215.827 49.2198L223.977 49.2198L223.977 82.4182L215.781 82.4182L215.781 68.9731L206.342 68.9731L206.342 82.4182L198.192 82.4182L198.192 49.2198L206.342 49.2198ZM237.054 55.9654L237.054 62.5268L246.493 62.5268L246.056 65.773C245.872 67.0162 245.549 67.845 245.066 68.3054C244.56 68.7659 243.685 68.9731 242.441 68.9731L237.054 68.9731L237.054 75.4885L241.866 75.4885C244.583 75.4885 247.276 75.3273 249.924 75.005L249.832 76.4324C249.694 78.3663 249.256 79.7937 248.565 80.6685C247.921 81.4513 247.069 81.9578 245.964 82.1419C244.859 82.3261 242.994 82.4182 240.392 82.4182L228.904 82.4182L228.904 49.2198L248.266 49.2198L247.391 55.9654L237.054 55.9654ZM261.32 55.2517L261.32 76.3403C261.941 76.4324 262.563 76.4784 263.162 76.4784C265.786 76.4784 267.812 75.5805 269.286 73.7387C270.759 71.92 271.496 69.2724 271.496 65.773C271.496 62.3196 270.759 59.672 269.286 57.8532C267.812 56.0345 265.786 55.1136 263.162 55.1136C262.563 55.1136 261.941 55.1596 261.32 55.2517ZM253.308 82.0499L253.308 49.5652C256.784 49.1277 259.685 48.8975 262.034 48.8975C264.013 48.8975 265.855 49.0817 267.536 49.427C269.194 49.7954 270.644 50.2789 271.864 50.8774C273.061 51.476 274.143 52.2127 275.11 53.0876C276.054 53.9624 276.837 54.8833 277.459 55.8503C278.057 56.8172 278.564 57.8763 278.955 59.0274C279.346 60.1785 279.623 61.2836 279.784 62.3887C279.945 63.4937 280.037 64.6218 280.037 65.773C280.037 67.4766 279.876 69.0652 279.554 70.5847C279.231 72.1041 278.633 73.6006 277.804 75.1201C276.952 76.6396 275.87 77.9288 274.558 79.0109C273.245 80.116 271.519 80.9908 269.378 81.6815C267.214 82.3722 264.773 82.6945 262.034 82.6945C259.57 82.6945 256.669 82.4873 253.308 82.0499ZM312.591 77.5144L312.591 77.8367C312.591 79.3792 311.992 80.5994 310.795 81.4973C309.598 82.3952 308.24 82.8326 306.697 82.8326C305.592 82.8326 304.579 82.5794 303.658 82.0499C302.737 81.5203 301.954 80.7376 301.356 79.6785C300.573 80.5994 299.537 81.3592 298.248 81.9578C296.936 82.5563 295.531 82.8326 294.058 82.8326C293.229 82.8326 292.423 82.7405 291.594 82.5333C290.766 82.3491 289.96 82.0038 289.131 81.5434C288.302 81.0829 287.542 80.5073 286.898 79.8167C286.23 79.126 285.655 78.2511 285.194 77.1921C284.711 76.1331 284.411 74.9359 284.296 73.6006C284.158 72.2653 284.112 70.5386 284.112 68.4666L284.112 49.2198L292.262 49.2198L292.262 71.0451C292.262 72.8639 292.699 74.1762 293.62 74.9589C294.357 75.6036 295.37 75.9029 296.659 75.9029C297.949 75.9029 299.031 75.4654 299.859 74.5906C300.642 73.7618 301.034 72.3574 301.034 70.3544L301.034 49.2198L309.184 49.2198L309.184 75.1201C309.184 75.9949 309.414 76.6396 309.897 77.054C310.312 77.4223 310.933 77.6065 311.785 77.6065C311.946 77.6065 312.223 77.5835 312.591 77.5144ZM325.506 82.4182L315.515 82.4182L315.515 49.2198L323.665 49.2198L323.665 75.4885L326.957 75.4885C329.72 75.4885 332.413 75.3273 335.038 75.005L334.946 76.3403C334.808 78.2511 334.37 79.7016 333.656 80.6685C333.012 81.4513 332.137 81.9578 331.032 82.1419C329.927 82.3261 328.085 82.4182 325.506 82.4182ZM346.595 55.9654L346.595 62.5268L356.034 62.5268L355.597 65.773C355.413 67.0162 355.09 67.845 354.607 68.3054C354.1 68.7659 353.226 68.9731 351.982 68.9731L346.595 68.9731L346.595 75.4885L351.407 75.4885C354.123 75.4885 356.817 75.3273 359.465 75.005L359.373 76.4324C359.234 78.3663 358.797 79.7937 358.106 80.6685C357.462 81.4513 356.61 81.9578 355.505 82.1419C354.4 82.3261 352.535 82.4182 349.933 82.4182L338.445 82.4182L338.445 49.2198L357.807 49.2198L356.932 55.9654L346.595 55.9654Z" fill="#DF2027"/>
</svg>
