<svg width="439" height="237" viewBox="0 0 439 237" fill="none" xmlns="http://www.w3.org/2000/svg">
<path d="M24.5581 3.24853C2.05834 17.6102 -8.7475 54.6565 16.8989 88.2095C20.3086 92.6702 25.6117 96.2824 32.2993 99.2241C39.0028 102.173 47.2341 104.508 56.6626 106.335C75.5181 109.991 99.4138 111.665 126.006 112.037C179.204 112.781 243.537 108.316 300.636 103.859C346.239 100.299 373.741 102.447 389.563 106.476C397.483 108.493 402.317 110.943 405.036 113.246C407.735 115.532 408.158 117.47 407.933 118.704L406.947 124.123L411.216 120.643C422.97 111.063 431.414 95.0237 434.716 78.3511C438.017 61.6875 436.26 43.9669 427.051 31.1157C414.138 13.0949 390.563 7.03442 353.462 6.4165C316.266 5.79704 264.545 10.6672 194.456 15.4146C138.389 19.2121 98.6624 17.9213 71.811 14.7847C58.3843 13.2162 48.2023 11.1888 40.8198 9.1167C33.3746 7.027 28.9541 4.93906 26.8921 3.35107L25.7612 2.48096L24.5581 3.24853Z" fill="white" stroke="#B9272D" stroke-width="4.06456"/>
<path d="M25.6294 7.4165C6.03605 20.9175 -3.74393 54.5087 20.1284 85.7407C22.9647 89.4515 27.5881 92.7111 33.936 95.5034C40.2683 98.2888 48.1823 100.55 57.436 102.344C75.9452 105.932 99.5643 107.601 126.063 107.972C179.048 108.714 243.206 104.264 300.32 99.8062C346.087 96.2339 374.107 98.3459 390.566 102.538C398.786 104.631 404.283 107.283 407.662 110.143C409.481 111.684 410.74 113.343 411.429 115.031C420.871 105.999 427.84 92.1483 430.729 77.562C433.897 61.5689 432.084 45.1169 423.748 33.4829C412.095 17.2207 390.459 11.0983 353.395 10.481C316.427 9.86526 265.027 14.7078 194.73 19.4692C138.487 23.2787 98.5014 21.9947 71.3394 18.8218C57.7595 17.2355 47.359 15.1735 39.7212 13.0298C33.1655 11.1897 28.5116 9.25072 25.6294 7.4165Z" fill="white" stroke="#DF2027" stroke-width="4.06456"/>
<path d="M55.7318 70.7212V65.6655H59.7841V70.7212H55.7318ZM44.3854 80.2923C42.0955 80.2923 40.05 79.8678 38.249 79.0187C36.448 78.1954 35.0329 77.0505 34.0038 75.5839C32.9746 74.1174 32.46 72.445 32.46 70.5668C32.46 70.0522 32.4986 69.3833 32.5758 68.56C32.653 67.7109 32.7559 66.7718 32.8846 65.7427C33.0132 64.7135 33.1547 63.6586 33.3091 62.578C33.4892 61.4717 33.6564 60.4039 33.8108 59.3748L39.6384 60.1466C39.3811 61.8705 39.1495 63.4399 38.9437 64.855C38.7636 66.2444 38.6221 67.4279 38.5192 68.4056C38.4163 69.3576 38.3648 70.0651 38.3648 70.5282C38.3648 71.4802 38.5964 72.3035 39.0595 72.9982C39.5226 73.7186 40.2044 74.2718 41.1049 74.6577C42.0054 75.0436 43.0989 75.2366 44.3854 75.2366C45.749 75.2366 46.8296 75.0308 47.6272 74.6191C48.4248 74.2332 48.9908 73.7057 49.3253 73.0368C49.6598 72.3936 49.827 71.6603 49.827 70.837V43.5901H55.7318V70.837C55.7318 72.7409 55.2429 74.4004 54.2652 75.8155C53.2875 77.2306 51.9368 78.3241 50.2129 79.0959C48.5148 79.8935 46.5723 80.2923 44.3854 80.2923ZM59.7841 70.7212V65.6655C59.9127 65.6655 60.0285 65.7298 60.1314 65.8584C60.2343 65.9614 60.3115 66.1286 60.363 66.3602C60.4144 66.566 60.453 66.8233 60.4787 67.132C60.5302 67.4408 60.5559 67.7881 60.5559 68.174C60.5559 68.56 60.5302 68.9202 60.4787 69.2546C60.453 69.5634 60.4144 69.8335 60.363 70.0651C60.3115 70.2709 60.2343 70.4382 60.1314 70.5668C60.0285 70.6697 59.9127 70.7212 59.7841 70.7212ZM59.7473 70.7212V65.6655H79.4298L77.037 67.7881V61.1115C77.037 59.8508 76.8955 58.8731 76.6125 58.1784C76.3552 57.4837 75.8792 56.9949 75.1846 56.7118C74.5156 56.4288 73.5765 56.2873 72.3673 56.2873C71.3124 56.2873 70.2832 56.3516 69.2798 56.4803C68.3021 56.6089 67.5302 56.789 66.9642 57.0206L70.6306 53.6244C70.4762 54.1904 70.3218 54.9237 70.1674 55.8242C70.0388 56.7247 69.923 57.6767 69.8201 58.6801C69.7429 59.6578 69.7043 60.6098 69.7043 61.536C69.7043 62.3851 69.7429 63.2856 69.8201 64.2375C69.923 65.1895 70.0259 66.0385 70.1289 66.7847C70.2575 67.5051 70.3475 67.9939 70.399 68.2512L64.803 69.8335C64.6743 69.4476 64.5328 68.843 64.3785 68.0197C64.2241 67.1963 64.0954 66.2315 63.9925 65.1252C63.8896 63.9931 63.8382 62.7967 63.8382 61.536C63.8382 60.2753 63.8896 59.0532 63.9925 57.8696C64.1212 56.6604 64.2755 55.5669 64.4556 54.5892C64.6357 53.6115 64.803 52.8397 64.9574 52.2736C65.5748 52.0421 66.5525 51.8105 67.8904 51.5789C69.2541 51.3474 70.7463 51.2316 72.3673 51.2316C74.7343 51.2316 76.6897 51.5532 78.2334 52.1964C79.8029 52.8397 80.9736 53.8817 81.7454 55.3225C82.543 56.7633 82.9418 58.7058 82.9418 61.1501V70.7212H59.7473ZM59.7859 70.7212C59.6572 70.7212 59.5414 70.6697 59.4385 70.5668C59.3356 70.4382 59.2584 70.2709 59.207 70.0651C59.1555 69.8335 59.1169 69.5634 59.0912 69.2546C59.0397 68.9202 59.014 68.56 59.014 68.174C59.014 67.6595 59.0397 67.2221 59.0912 66.8619C59.1426 66.4759 59.2327 66.1801 59.3613 65.9742C59.4643 65.7684 59.6058 65.6655 59.7859 65.6655V70.7212ZM94.7896 70.7212V65.6655H99.0735V70.7212H94.7896ZM88.9235 70.7212V43.5901H94.7896V70.7212H88.9235ZM99.0735 70.7212V65.6655C99.2279 65.6655 99.3436 65.7298 99.4208 65.8584C99.5237 65.9614 99.6009 66.1286 99.6524 66.3602C99.7296 66.566 99.781 66.8233 99.8068 67.132C99.8325 67.4408 99.8453 67.7881 99.8453 68.174C99.8453 68.56 99.8325 68.9202 99.8068 69.2546C99.781 69.5634 99.7296 69.8335 99.6524 70.0651C99.6009 70.2709 99.5237 70.4382 99.4208 70.5668C99.3436 70.6697 99.2279 70.7212 99.0735 70.7212ZM122.445 70.7212V65.6655H126.497V70.7212H122.445ZM99.0575 70.7212C98.9289 70.7212 98.8131 70.6697 98.7102 70.5668C98.6072 70.4382 98.5301 70.2709 98.4786 70.0651C98.4271 69.8335 98.3885 69.5634 98.3628 69.2546C98.3114 68.9202 98.2856 68.56 98.2856 68.174C98.2856 67.6595 98.3114 67.2221 98.3628 66.8619C98.4143 66.4759 98.5043 66.1801 98.633 65.9742C98.7359 65.7684 98.8774 65.6655 99.0575 65.6655V70.7212ZM99.0575 70.7212V65.6655H118.431L116.579 67.1706V62.5008C116.579 61.1887 116.437 60.1466 116.154 59.3748C115.897 58.6029 115.511 58.0497 114.997 57.7153C114.482 57.3808 113.826 57.2136 113.028 57.2136H104.538L101.026 52.1578L103.071 48.2599C103.277 47.874 103.509 47.4495 103.766 46.9863C104.049 46.4975 104.409 45.9057 104.846 45.2111C105.31 44.4907 105.888 43.5901 106.583 42.5095L111.562 45.2882C110.918 46.2145 110.404 46.9992 110.018 47.6424C109.632 48.2857 109.298 48.8388 109.015 49.3019C108.757 49.7651 108.513 50.2282 108.281 50.6913L106.892 53.3156L106.12 52.1578H113.028C114.701 52.1578 116.129 52.428 117.312 52.9683C118.496 53.5086 119.46 54.2676 120.207 55.2453C120.978 56.1973 121.544 57.2907 121.905 58.5257C122.265 59.7607 122.445 61.0857 122.445 62.5008V70.7212H99.0575ZM126.497 70.7212V65.6655C126.626 65.6655 126.742 65.7298 126.845 65.8584C126.948 65.9614 127.025 66.1286 127.076 66.3602C127.128 66.566 127.166 66.8233 127.192 67.132C127.243 67.4408 127.269 67.7881 127.269 68.174C127.269 68.56 127.243 68.9202 127.192 69.2546C127.166 69.5634 127.128 69.8335 127.076 70.0651C127.025 70.2709 126.948 70.4382 126.845 70.5668C126.742 70.6697 126.626 70.7212 126.497 70.7212ZM130.779 70.7212V43.5901H136.683V70.7212H130.779ZM126.495 70.7212V65.6655H130.779V70.7212H126.495ZM126.495 70.7212C126.366 70.7212 126.25 70.6697 126.148 70.5668C126.045 70.4382 125.967 70.2709 125.916 70.0651C125.865 69.8335 125.826 69.5634 125.8 69.2546C125.749 68.9202 125.723 68.56 125.723 68.174C125.723 67.6595 125.749 67.2221 125.8 66.8619C125.852 66.4759 125.942 66.1801 126.07 65.9742C126.173 65.7684 126.315 65.6655 126.495 65.6655V70.7212ZM142.668 70.7212V43.5901H148.534V70.7212H142.668ZM174.002 80.2923C172.278 80.2923 170.67 80.0479 169.178 79.559C167.712 79.0702 166.425 78.3884 165.319 77.5136C164.238 76.6388 163.389 75.6097 162.772 74.4261C162.154 73.2683 161.845 72.0076 161.845 70.644C161.845 70.1552 161.884 69.5377 161.961 68.7915C162.038 68.0454 162.141 67.1835 162.27 66.2058C162.399 65.2281 162.553 64.1732 162.733 63.0411L168.561 63.813C168.303 65.4082 168.097 66.8104 167.943 68.0197C167.814 69.2032 167.75 70.0522 167.75 70.5668C167.75 71.4673 168.007 72.2649 168.522 72.9596C169.037 73.68 169.757 74.2332 170.683 74.6191C171.635 75.0308 172.742 75.2366 174.002 75.2366H184.924C186.519 75.2366 187.69 74.8507 188.436 74.0788C189.182 73.3327 189.555 72.2006 189.555 70.6826C189.555 69.885 189.427 69.2675 189.169 68.8301C188.912 68.3927 188.436 68.0197 187.741 67.7109C187.047 67.3764 186.043 67.0162 184.731 66.6303C183.085 66.09 181.669 65.5883 180.486 65.1252C179.302 64.6621 178.325 64.1603 177.553 63.62C176.807 63.0797 176.254 62.4365 175.893 61.6904C175.533 60.9442 175.353 60.0309 175.353 58.9503C175.353 57.2264 175.739 55.8113 176.511 54.705C177.308 53.5729 178.428 52.7239 179.868 52.1578C181.309 51.5918 182.994 51.3088 184.924 51.3088L184.77 56.3645C183.895 56.3645 183.2 56.4546 182.686 56.6347C182.171 56.789 181.798 57.0335 181.567 57.3679C181.361 57.7024 181.258 58.1269 181.258 58.6415C181.258 59.0789 181.399 59.452 181.682 59.7607C181.965 60.0695 182.351 60.3396 182.84 60.5712C183.355 60.8027 183.921 61.0086 184.538 61.1887C185.156 61.3688 185.812 61.5746 186.506 61.8062C187.999 62.2435 189.298 62.7324 190.404 63.2727C191.511 63.7873 192.437 64.3919 193.183 65.0866C193.929 65.7555 194.495 66.5531 194.881 67.4794C195.267 68.3799 195.46 69.4476 195.46 70.6826C195.46 72.5608 195.023 74.2203 194.148 75.6611C193.273 77.1019 192.051 78.234 190.482 79.0573C188.912 79.8807 187.06 80.2923 184.924 80.2923H174.002ZM198.818 70.7212V51.3088H204.722V68.6372L201.133 65.6655H208.736V70.7212H198.818ZM184.77 56.3645L184.924 51.3088H198.818V56.3645H184.77ZM208.736 70.7212V65.6655C208.891 65.6655 209.006 65.7298 209.084 65.8584C209.186 65.9614 209.264 66.1286 209.315 66.3602C209.392 66.566 209.444 66.8233 209.469 67.132C209.495 67.4408 209.508 67.7881 209.508 68.174C209.508 68.56 209.495 68.9202 209.469 69.2546C209.444 69.5634 209.392 69.8335 209.315 70.0651C209.264 70.2709 209.186 70.4382 209.084 70.5668C209.006 70.6697 208.891 70.7212 208.736 70.7212ZM198.779 48.6073V43.8989H204.722V48.6073H198.779ZM172.073 88.9372V84.2288H177.707V88.9372H172.073ZM179.675 88.9372V84.2288H185.31V88.9372H179.675ZM208.693 70.7212V65.6655H228.376L225.983 67.7881V61.1115C225.983 59.8508 225.841 58.8731 225.558 58.1784C225.301 57.4837 224.825 56.9949 224.13 56.7118C223.461 56.4288 222.522 56.2873 221.313 56.2873C220.258 56.2873 219.229 56.3516 218.226 56.4803C217.248 56.6089 216.476 56.789 215.91 57.0206L219.576 53.6244C219.422 54.1904 219.268 54.9237 219.113 55.8242C218.985 56.7247 218.869 57.6767 218.766 58.6801C218.689 59.6578 218.65 60.6098 218.65 61.536C218.65 62.3851 218.689 63.2856 218.766 64.2375C218.869 65.1895 218.972 66.0385 219.075 66.7847C219.203 67.5051 219.293 67.9939 219.345 68.2512L213.749 69.8335C213.62 69.4476 213.479 68.843 213.324 68.0197C213.17 67.1963 213.041 66.2315 212.938 65.1252C212.835 63.9931 212.784 62.7967 212.784 61.536C212.784 60.2753 212.835 59.0532 212.938 57.8696C213.067 56.6604 213.221 55.5669 213.401 54.5892C213.582 53.6115 213.749 52.8397 213.903 52.2736C214.521 52.0421 215.498 51.8105 216.836 51.5789C218.2 51.3474 219.692 51.2316 221.313 51.2316C223.68 51.2316 225.635 51.5532 227.179 52.1964C228.749 52.8397 229.919 53.8817 230.691 55.3225C231.489 56.7633 231.888 58.7058 231.888 61.1501V70.7212H208.693ZM208.732 70.7212C208.603 70.7212 208.487 70.6697 208.384 70.5668C208.281 70.4382 208.204 70.2709 208.153 70.0651C208.101 69.8335 208.063 69.5634 208.037 69.2546C207.986 68.9202 207.96 68.56 207.96 68.174C207.96 67.6595 207.986 67.2221 208.037 66.8619C208.088 66.4759 208.178 66.1801 208.307 65.9742C208.41 65.7684 208.552 65.6655 208.732 65.6655V70.7212ZM244.237 70.7212V65.6655H249.216V70.7212H244.237ZM236.287 80.6782C236.004 80.6782 235.657 80.6525 235.245 80.6011C234.833 80.5753 234.409 80.5496 233.971 80.5239L234.164 75.5453C234.576 75.5453 234.975 75.5582 235.361 75.5839C235.747 75.6097 236.03 75.6225 236.21 75.6225C237.162 75.6225 237.908 75.2495 238.448 74.5033C239.014 73.7572 239.297 72.6766 239.297 71.2615V51.3088H245.202V71.2615C245.202 73.0882 244.829 74.7092 244.083 76.1242C243.337 77.5651 242.295 78.6843 240.957 79.4819C239.619 80.2795 238.062 80.6782 236.287 80.6782ZM249.216 70.7212V65.6655C249.37 65.6655 249.486 65.7298 249.563 65.8584C249.666 65.9614 249.743 66.1286 249.795 66.3602C249.872 66.566 249.923 66.8233 249.949 67.132C249.975 67.4408 249.988 67.7881 249.988 68.174C249.988 68.56 249.975 68.9202 249.949 69.2546C249.923 69.5634 249.872 69.8335 249.795 70.0651C249.743 70.2709 249.666 70.4382 249.563 70.5668C249.486 70.6697 249.37 70.7212 249.216 70.7212ZM239.297 47.7196V43.0112H245.241V47.7196H239.297ZM253.493 70.7212V43.5901H259.398V70.7212H253.493ZM249.209 70.7212V65.6655H253.493V70.7212H249.209ZM249.209 70.7212C249.081 70.7212 248.965 70.6697 248.862 70.5668C248.759 70.4382 248.682 70.2709 248.63 70.0651C248.579 69.8335 248.54 69.5634 248.515 69.2546C248.463 68.9202 248.437 68.56 248.437 68.174C248.437 67.6595 248.463 67.2221 248.515 66.8619C248.566 66.4759 248.656 66.1801 248.785 65.9742C248.888 65.7684 249.029 65.6655 249.209 65.6655V70.7212ZM265.382 70.7212V43.5901H271.248V70.7212H265.382ZM296.485 80.2923C294.195 80.2923 292.15 79.8678 290.349 79.0187C288.548 78.1954 287.133 77.0505 286.104 75.5839C285.074 74.1174 284.56 72.445 284.56 70.5668C284.56 70.0522 284.598 69.3833 284.676 68.56C284.753 67.7109 284.856 66.7718 284.984 65.7427C285.113 64.7135 285.254 63.6586 285.409 62.578C285.589 61.4717 285.756 60.4039 285.911 59.3748L291.738 60.1466C291.481 61.8705 291.249 63.4399 291.043 64.855C290.863 66.2444 290.722 67.4279 290.619 68.4056C290.516 69.3576 290.465 70.0651 290.465 70.5282C290.465 71.4802 290.696 72.3035 291.159 72.9982C291.622 73.7186 292.304 74.2718 293.205 74.6577C294.105 75.0436 295.199 75.2366 296.485 75.2366C297.849 75.2366 298.929 75.0308 299.727 74.6191C300.525 74.2332 301.091 73.7057 301.425 73.0368C301.76 72.3936 301.927 71.6603 301.927 70.837V43.5901H307.832V70.837C307.832 72.7409 307.343 74.4004 306.365 75.8155C305.387 77.2306 304.037 78.3241 302.313 79.0959C300.615 79.8935 298.672 80.2923 296.485 80.2923ZM320.025 80.6782C319.047 80.6782 318.031 80.6011 316.976 80.4467C315.921 80.318 314.814 80.1251 313.657 79.8678L314.544 75.1594C315.805 75.3138 316.873 75.4296 317.748 75.5068C318.648 75.5839 319.407 75.6225 320.025 75.6225C321.774 75.6225 323.035 75.3138 323.807 74.6963C324.579 74.0788 324.965 73.1397 324.965 71.879V55.5155L326.161 56.3645H321.877C321.002 56.3645 320.269 56.4803 319.677 56.7118C319.085 56.9177 318.635 57.3679 318.326 58.0626C318.043 58.7316 317.902 59.7736 317.902 61.1887C317.902 62.5008 318.031 63.4785 318.288 64.1217C318.545 64.765 318.97 65.1895 319.561 65.3953C320.153 65.5754 320.925 65.6655 321.877 65.6655H324.965V70.7212H321.877C319.716 70.7212 317.889 70.3739 316.397 69.6792C314.93 68.9845 313.824 67.9296 313.078 66.5145C312.357 65.0994 311.997 63.3242 311.997 61.1887C311.997 59.0274 312.357 57.2136 313.078 55.747C313.824 54.2805 314.93 53.1741 316.397 52.428C317.889 51.6819 319.716 51.3088 321.877 51.3088H330.869V71.879C330.869 73.68 330.419 75.2366 329.519 76.5488C328.618 77.8867 327.357 78.903 325.736 79.5976C324.115 80.318 322.212 80.6782 320.025 80.6782ZM350.926 70.7212V65.6655H354.94V70.7212H350.926ZM334.987 70.7212V65.6655H348.881L345.022 68.9845V63.1569C345.022 61.3816 344.841 60.0051 344.481 59.0274C344.121 58.0497 343.529 57.3679 342.706 56.982C341.883 56.5703 340.751 56.3645 339.31 56.3645H336.184V51.3088H339.31C341.805 51.3088 343.915 51.7205 345.639 52.5438C347.363 53.3671 348.675 54.6535 349.576 56.4031C350.476 58.1269 350.926 60.3782 350.926 63.1569V70.7212H334.987ZM354.94 70.7212V65.6655C355.094 65.6655 355.21 65.7298 355.287 65.8584C355.39 65.9614 355.467 66.1286 355.519 66.3602C355.596 66.566 355.648 66.8233 355.673 67.132C355.699 67.4408 355.712 67.7881 355.712 68.174C355.712 68.56 355.699 68.9202 355.673 69.2546C355.648 69.5634 355.596 69.8335 355.519 70.0651C355.467 70.2709 355.39 70.4382 355.287 70.5668C355.21 70.6697 355.094 70.7212 354.94 70.7212ZM375.226 70.7212V65.6655H379.278V70.7212H375.226ZM354.926 70.7212C354.798 70.7212 354.682 70.6697 354.579 70.5668C354.476 70.4382 354.399 70.2709 354.347 70.0651C354.296 69.8335 354.257 69.5634 354.231 69.2546C354.18 68.9202 354.154 68.56 354.154 68.174C354.154 67.6595 354.18 67.2221 354.231 66.8619C354.283 66.4759 354.373 66.1801 354.502 65.9742C354.605 65.7684 354.746 65.6655 354.926 65.6655V70.7212ZM354.926 70.7212V65.6655H371.367L369.321 67.2478V60.9957C369.321 59.5034 368.858 58.3714 367.932 57.5995C367.006 56.8019 365.514 56.4031 363.455 56.4031C362.889 56.4031 362.13 56.4417 361.178 56.5189C360.226 56.5961 359.184 56.7118 358.052 56.8662L357.512 52.235C358.593 51.9777 359.686 51.759 360.792 51.5789C361.924 51.3988 363.018 51.3088 364.073 51.3088C366.234 51.3088 368.151 51.7076 369.823 52.5052C371.496 53.277 372.808 54.3834 373.76 55.8242C374.737 57.2393 375.226 58.9631 375.226 60.9957V70.7212H354.926ZM379.278 70.7212V65.6655C379.407 65.6655 379.523 65.7298 379.626 65.8584C379.729 65.9614 379.806 66.1286 379.857 66.3602C379.909 66.566 379.947 66.8233 379.973 67.132C380.025 67.4408 380.05 67.7881 380.05 68.174C380.05 68.56 380.025 68.9202 379.973 69.2546C379.947 69.5634 379.909 69.8335 379.857 70.0651C379.806 70.2709 379.729 70.4382 379.626 70.5668C379.523 70.6697 379.407 70.7212 379.278 70.7212ZM362.104 79.3661V74.6577H368.048V79.3661H362.104ZM383.557 70.7212V43.5901H389.462V70.7212H383.557ZM379.273 70.7212V65.6655H383.557V70.7212H379.273ZM379.273 70.7212C379.144 70.7212 379.029 70.6697 378.926 70.5668C378.823 70.4382 378.746 70.2709 378.694 70.0651C378.643 69.8335 378.604 69.5634 378.578 69.2546C378.527 68.9202 378.501 68.56 378.501 68.174C378.501 67.6595 378.527 67.2221 378.578 66.8619C378.63 66.4759 378.72 66.1801 378.849 65.9742C378.951 65.7684 379.093 65.6655 379.273 65.6655V70.7212ZM395.446 70.7212V43.5901H401.312V70.7212H395.446Z" fill="#DF2027"/>
</svg>
