<svg width="96" height="75" viewBox="0 0 96 75" fill="none" xmlns="http://www.w3.org/2000/svg">
<g clip-path="url(#clip0_352_606)">
<path d="M74.7187 0.0668945C76.5887 0.346112 83.813 1.34859 84.8826 2.82322C85.088 3.10648 85.2562 3.4152 85.471 3.69216C86.463 4.96974 87.7251 6.27152 88.3406 7.78668C88.1505 8.23744 87.8242 8.86018 87.6679 9.2644C87.8837 9.81642 88.1448 10.7121 88.3078 11.2992C88.0729 11.691 87.9204 11.757 87.6722 12.0735C87.8385 12.3229 88.1544 12.7706 88.283 13.0183C87.352 13.8254 86.8065 15.0619 86.1995 16.1149C86.0623 16.3529 85.8789 16.7416 85.7307 16.9553C84.0288 17.1702 83.5986 17.6793 83.4547 19.3863C83.3194 19.273 83.1484 19.1003 82.985 19.0749C82.7939 19.1478 82.3375 19.8025 82.2165 20.0221C81.9692 20.471 80.7204 21.3778 80.223 21.135C80.2068 21.0388 80.1987 20.9856 80.1701 20.8927C79.7704 20.863 79.1072 21.4871 78.9271 21.8327C79.3335 22.7097 79.6575 23.2854 80.3021 24.0236C80.6075 24.3731 81.0373 24.782 81.2736 25.1641C81.2903 26.7313 81.8863 27.8031 83.0545 28.8304C83.2394 28.9926 83.3966 30.2992 83.4509 30.6094C83.7954 30.6199 84.0822 30.634 84.4262 30.6032C84.673 30.3153 84.824 30.188 85.1132 29.9418C85.1804 29.7259 85.2314 29.5515 85.2771 29.3317C85.3319 29.0686 85.3181 27.9852 85.432 27.8537L85.5897 27.8122C85.5992 27.5588 85.3119 27.418 85.3667 27.065C85.4167 26.6874 85.5549 26.2994 85.6254 25.9281C85.7054 25.5027 85.9027 24.9624 85.9303 24.5433C85.9751 23.8602 85.8174 22.7914 85.6416 22.1353C86.4639 22.245 87.0647 22.555 87.9171 22.5567C88.8657 22.5585 89.7014 22.373 90.6366 22.2505C91.8473 22.0918 93.0893 22.5659 94.3043 22.5485C94.462 22.5463 94.6568 22.5476 94.8136 22.5575C94.9132 23.0289 95.018 23.4993 95.1285 23.9684C94.3219 24.9654 95.2881 24.8699 95.3624 25.3126C95.5187 26.2419 95.0004 28.1007 94.4806 28.9121C94.6611 29.0719 95.007 29.3575 94.7326 29.5736C93.8617 30.2602 93.5948 31.0491 93.1508 32.0572C93.2699 32.1622 93.5229 32.3611 93.5072 32.5099C93.4491 33.0692 92.7744 34.3608 92.52 34.8532L92.7916 35.1351L92.7778 35.1191C92.2718 35.5654 92.1245 36.0251 91.8744 36.6379C92.0531 37.0965 92.1079 37.5486 92.2198 38.0271C92.0821 38.0328 91.7205 38.0319 91.619 38.0867C91.2817 39.3137 91.2026 39.264 90.2836 40.1697C90.2798 40.681 90.2874 41.3486 90.2474 41.8448C90.5804 41.8872 90.6671 41.9038 90.9587 42.061C91.3803 42.2885 91.7143 43.0905 91.5833 43.5434C92.2041 43.54 92.8283 43.4947 93.4367 43.4918C93.4519 44.1219 93.5539 47.1489 93.4586 47.5919C94.1118 48.755 94.8164 50.2858 95.4596 51.3588C94.9846 51.3584 94.8846 51.3212 94.4424 51.0664C94.3795 51.124 94.2004 51.3136 94.118 51.3145C93.0655 51.3307 91.9811 51.3769 90.932 51.2826C90.195 51.2169 89.4979 50.8811 88.7618 51.1507C87.4983 51.6127 86.2095 50.7825 84.9355 51.1683C84.5787 51.275 84.1542 51.3874 84.0875 50.8664C84.1375 50.5792 84.3447 50.4858 84.3509 50.2872C83.9969 50.2424 83.4342 50.1462 83.4261 49.6723C83.6029 49.4737 83.6915 49.6718 83.743 49.4546C83.6463 49.1227 83.5257 48.844 83.4247 48.5268C82.2765 49.3389 80.7886 50.2667 79.587 51.0059C79.718 50.8268 79.8519 50.6668 79.9181 50.4544L79.899 50.3462C79.2301 50.0333 78.4464 50.7925 78.1677 51.3312C78.1343 51.3955 77.6093 51.3217 77.5535 51.2493C77.2548 51.1345 76.9732 50.7782 76.7631 50.7197L76.705 50.7668C76.7016 51.1812 77.1095 51.2802 77.0414 51.6465C76.7231 51.8261 75.1208 51.1493 74.7316 50.9926C74.1212 51.7708 74.0893 51.7432 73.1121 51.6908C72.8896 51.4741 72.6743 51.2502 72.4656 51.0202L72.1654 51.3007C71.6404 51.2736 71.0601 51.1969 70.5389 51.1164C69.3706 50.9364 68.159 50.834 66.9961 50.6363C66.6559 50.7682 66.2976 50.9016 65.965 51.0483C66.1508 50.8378 66.481 50.5682 66.2418 50.311C66.0775 50.2448 65.905 50.2653 65.7259 50.27C65.4986 50.4906 65.4085 50.5687 65.147 50.753C64.4566 49.4223 63.6567 49.6447 62.4699 49.1851C61.8767 48.3973 61.3278 48.1906 60.6222 47.6181C60.3583 47.4781 60.1834 47.3618 59.9376 47.1966C59.6365 47.0623 58.6793 46.5626 58.5583 46.2719C58.5735 45.9937 58.9023 45.77 58.8918 45.5052C58.8846 45.3207 58.372 45.1718 58.2495 45.0629C57.5835 44.4704 56.4357 43.3285 56.0145 42.5496C54.5981 42.5397 54.8778 42.2264 54.3808 43.4892L54.4004 43.5462C54.4914 43.5145 54.5647 43.4913 54.6581 43.4655C54.7377 43.5605 54.7129 43.5056 54.7196 43.6415C54.6176 43.6843 54.5857 43.674 54.4718 43.6684C54.4942 43.7743 54.5085 43.7929 54.5609 43.8898L54.5085 43.9602C54.3842 43.9466 54.3694 43.9379 54.2522 43.8902L54.1841 43.9313C54.1926 44.1174 54.2498 44.3228 54.1741 44.4451C54.0988 44.3869 54.0411 44.3384 53.9697 44.2752L53.9063 44.3074C53.8868 44.4571 53.9125 44.5293 53.9434 44.6755C53.7257 44.7559 53.569 44.4695 53.4275 44.7219C53.5013 44.9253 53.5475 44.8356 53.6814 44.998C53.5218 45.2026 53.4427 45.3073 53.2521 45.4797L53.1969 45.4744L53.195 45.2903L53.134 45.2488L53.0892 45.291C53.1897 45.8184 52.9644 46.0044 53.0125 46.262C53.2169 46.2315 53.1811 46.0789 53.3088 46.1515L53.3079 46.2646C53.2145 46.3398 53.1383 46.402 53.0511 46.4845L53.0844 46.5441C53.1826 46.5298 53.2807 46.5136 53.3784 46.496L53.4327 46.5536C53.3322 46.7717 53.1897 46.7141 53.1392 46.8927C53.3412 47.0565 53.7695 46.7546 54.1636 46.9346C54.3179 46.7465 54.215 46.4386 54.0626 46.2744C53.9749 46.267 53.973 46.2679 53.8858 46.2825C53.8863 45.9274 54.3065 45.9358 54.104 45.3686L54.1583 45.3583C54.2665 45.4426 54.2936 45.4544 54.3627 45.5687L54.3699 45.5063L54.3222 45.504C54.4266 45.401 54.3913 45.219 54.5552 44.9507C54.589 45.1386 54.5385 45.2257 54.6338 45.3304C54.9683 45.1056 54.6872 45.0765 54.8277 44.8055L54.9711 44.7686C55.1188 44.8629 55.1489 45.0849 55.3356 45.2572C55.9507 45.8256 56.6773 45.596 57.3876 45.7736C57.5454 45.8131 57.4834 47.5743 57.4596 47.7843C56.3233 47.9429 54.5428 47.7915 53.3727 47.8081C51.8786 47.8291 50.3892 47.8696 48.8946 47.8872C48.8932 47.5304 48.9079 46.8122 48.8612 46.4745C48.857 46.2796 48.8713 46.0501 48.8784 45.8524C49.5969 45.5302 50.8228 46.0053 51.1896 44.8587C51.2339 44.7203 51.3025 44.6115 51.2468 44.4744C51.1315 44.4697 51.0724 44.4657 50.959 44.4446C50.93 44.2892 51.121 43.9538 51.1286 43.8665C51.2092 42.5763 51.1953 41.1936 51.1162 39.895C51.0152 38.2342 49.6307 38.7395 48.7331 38.4559C48.5573 38.1646 48.6387 36.8975 48.6545 36.498C49.8904 36.5119 52.7466 36.2448 53.7595 36.5317C53.842 36.6455 53.9763 36.7957 53.9873 36.924C53.8968 36.9751 53.8153 37.0249 53.7271 37.0801C53.5652 37.4559 53.9892 37.6564 53.8181 37.937C53.7429 37.8845 53.7005 37.8492 53.6128 37.8174C53.6104 38.0645 53.791 38.1169 53.7805 38.264C53.7715 38.389 53.6771 38.3786 53.7219 38.6212L53.8677 38.5763C54.0025 38.6346 54.0869 38.8536 54.1912 39.0173C54.1464 38.7094 54.1112 38.456 54.0902 38.1445C54.085 37.8408 54.0549 37.517 54.033 37.2126C54.034 36.9049 54.0926 36.6703 54.1612 36.3751C54.2141 36.1104 54.2832 35.8479 54.3489 35.586C54.4409 35.5976 54.5333 35.6071 54.6262 35.6145C54.9135 35.6385 55.6605 35.6877 55.9278 35.6458C56.7416 35.5182 60.3054 36.1866 58.6497 34.3951C57.7107 34.2527 57.4034 34.1064 56.987 33.2376C57.0503 33.1091 57.1175 33.0066 57.1175 32.8668C56.9374 32.8026 57.0641 32.9165 56.8521 32.9258C56.4553 32.4489 55.6048 30.5425 55.3861 29.9179C55.4866 29.6819 55.5815 29.4436 55.6706 29.2032L55.3809 28.9293C56.3404 28.1055 56.874 26.7142 57.5673 25.7326C57.7259 25.8622 57.9094 26.0414 58.1037 26.075C58.3215 26.022 58.5464 25.6525 58.7007 25.4648C59.4383 24.5699 60.3964 23.7233 61.3926 23.1255C62.447 22.4927 63.296 21.7377 64.1579 20.8684C64.4347 20.5893 64.8406 20.2501 65.0555 19.925C64.8368 19.4659 63.9058 18.1486 63.5733 17.6847C63.1469 17.0899 62.5246 16.092 62.0892 15.5534L62.4146 15.1886L62.426 14.501C61.8047 13.7924 60.678 12.6432 61.4646 11.6622C61.4207 10.8775 61.3169 10.1161 61.2316 9.33699C61.1773 8.84089 61.0291 8.25615 61.6461 8.15975C61.7747 7.88927 61.5679 7.43318 61.4784 7.10916C61.9534 5.30919 62.8705 3.12726 64.9674 2.90577C65.6048 2.29772 66.1704 1.7025 66.9965 1.35061C68.2291 0.825345 69.1944 0.627053 70.476 1.11953L70.5241 0.461763C70.6437 0.583554 70.8028 0.755383 70.9272 0.863695C71.3045 0.76127 72.063 0.431834 72.376 0.492188C73.1655 0.644352 73.9188 0.733279 74.7111 0.82996L74.7187 0.0668945ZM67.6102 30.2529C67.5125 30.2714 67.3586 30.2948 67.2671 30.3229C65.0841 30.9931 64.3656 34.4401 63.7663 36.2309C64.2098 37.5168 64.6 38.7892 65.0241 40.0786C65.6158 40.3062 65.683 40.4709 65.7192 41.0841C65.8659 40.9623 66.0008 40.8214 66.1837 40.79C66.2847 40.8332 66.3767 40.9027 66.3972 41.0133C66.5673 41.9278 67.1352 42.2224 68.0109 42.5771C68.0409 41.7798 68.0376 40.9423 68.0695 40.1488C68.1414 38.3375 66.966 38.315 65.5643 38.2697C65.5429 37.5857 65.5543 36.901 65.5991 36.2181C68.7046 36.1319 71.9082 36.307 75.0236 36.283C75.4267 36.2798 75.825 36.3041 76.229 36.2826C76.1299 35.9247 76.0761 35.2867 76.0318 34.8977L75.643 35.1922C75.451 35.1959 75.2047 35.2079 75.017 35.2013C74.7487 34.5628 74.3318 33.7753 74.1122 33.1692L74.1451 33.1044L74.3485 33.0959C74.2842 32.804 72.9859 30.6779 72.7481 30.2491C72.964 30.0504 73.1674 29.899 72.8472 29.6415C72.4332 29.5542 72.3494 29.6968 72.1164 29.999C72.1188 29.6734 72.1111 29.2616 72.1311 28.9433C72.2317 28.7895 72.3832 28.5925 72.4037 28.418C72.2379 27.8541 71.5432 28.2527 71.4703 26.774C70.0829 27.3595 69.4807 28.0751 68.4845 29.2216C68.2005 29.5487 67.9242 29.961 67.6102 30.2529ZM73.7611 40.5191C74.206 40.0419 74.2289 39.9118 74.368 39.2695C74.7354 39.2663 76.1552 39.1951 76.3677 39.3662C76.4892 39.7923 76.4134 41.6055 76.3882 42.1374C77.1843 41.4441 77.686 41.0926 78.5636 40.5011L77.7975 40.4964C77.6717 39.8707 77.585 39.318 77.2467 38.76C76.047 38.0225 73.4933 38.4551 71.9153 38.3245C71.82 38.4785 71.5618 38.8464 71.5618 38.9982C71.7995 39.0349 71.8338 38.9417 72.0192 39.0192C72.0463 39.2452 71.396 41.0326 72.3737 40.8859C72.3946 40.8771 72.4156 40.8684 72.4365 40.8597C72.4832 40.582 72.5047 40.582 72.8272 40.6102C73.2279 40.6453 73.3789 40.6014 73.7611 40.5191ZM57.4596 47.7843C57.4834 47.5743 57.5454 45.8131 57.3876 45.7736C56.6773 45.596 55.9507 45.8256 55.3356 45.2572C55.1489 45.0849 55.1188 44.8629 54.9711 44.7686L54.8277 44.8055C54.6872 45.0765 54.9683 45.1056 54.6338 45.3304C54.5385 45.2257 54.589 45.1386 54.5552 44.9507C54.3913 45.219 54.4266 45.401 54.3222 45.504L54.3699 45.5063L54.3627 45.5687C54.2936 45.4544 54.2665 45.4426 54.1583 45.3583L54.104 45.3686C54.3065 45.9358 53.8863 45.9274 53.8858 46.2825C53.973 46.2679 53.9749 46.267 54.0626 46.2744C54.215 46.4386 54.3179 46.7465 54.1636 46.9346C53.7695 46.7546 53.3412 47.0565 53.1392 46.8927C53.1897 46.7141 53.3322 46.7717 53.4327 46.5536L53.3784 46.496C53.2807 46.5136 53.1826 46.5298 53.0844 46.5441L53.0511 46.4845C53.1383 46.402 53.2145 46.3398 53.3079 46.2646L53.3088 46.1515C53.1811 46.0789 53.2169 46.2315 53.0125 46.262C52.9644 46.0044 53.1897 45.8184 53.0892 45.291L53.134 45.2488L53.195 45.2903L53.1969 45.4744L53.2521 45.4797C53.4427 45.3073 53.5218 45.2026 53.6814 44.998C53.5475 44.8356 53.5013 44.9253 53.4275 44.7219C53.569 44.4695 53.7257 44.7559 53.9434 44.6755C53.9125 44.5293 53.8868 44.4571 53.9063 44.3074L53.9697 44.2752C54.0411 44.3384 54.0988 44.3869 54.1741 44.4451C54.2498 44.3228 54.1926 44.1174 54.1841 43.9313L54.2522 43.8902C54.3694 43.9379 54.3842 43.9466 54.5085 43.9602L54.5609 43.8898C54.5085 43.7929 54.4942 43.7743 54.4718 43.6684C54.5857 43.674 54.6176 43.6843 54.7196 43.6415C54.7129 43.5056 54.7377 43.5605 54.6581 43.4655C54.5647 43.4913 54.4914 43.5145 54.4004 43.5462L54.3808 43.4892C54.8778 42.2264 54.5981 42.5397 56.0145 42.5496C56.4357 43.3285 57.5835 44.4704 58.2495 45.0629C58.372 45.1718 58.8846 45.3207 58.8918 45.5052C58.9023 45.77 58.5735 45.9937 58.5583 46.2719C58.6793 46.5626 59.6365 47.0623 59.9376 47.1966C60.1834 47.3618 60.3583 47.4781 60.6222 47.6181C62.0039 48.1406 64.0959 48.3077 64.9797 46.8551C64.9683 46.7351 64.9478 46.6784 65.0074 46.5822C65.1246 46.5322 65.1408 46.5236 65.2342 46.437C65.4024 45.9867 65.3452 45.0621 65.3409 44.5578C65.0951 44.503 64.9045 44.39 64.6772 44.3232C63.5495 43.992 64.3423 45.3147 63.9497 45.9765C63.8463 46.0494 63.8048 46.0973 63.6629 46.081C63.0168 46.0066 63.1917 45.447 63.1655 44.9717C63.1216 44.1661 63.1602 42.9877 62.5613 42.3642C62.0182 41.7986 61.3478 41.7009 60.606 41.6867C61.6952 41.3688 62.4546 41.3959 63.1998 40.2573C63.5414 39.7351 63.5952 39.0667 63.447 38.4626C63.2793 37.7883 62.8472 37.21 62.2478 36.858C61.8795 36.637 61.183 36.4111 60.7461 36.3708C59.2143 36.2295 57.6583 36.384 56.1227 36.3656C55.6853 36.3603 55.2132 36.3573 54.7853 36.4526C54.631 36.4869 54.7787 36.8154 54.6958 36.9631L54.5233 36.8023C54.5457 36.6505 54.5509 36.6205 54.5285 36.4696C54.3732 36.361 54.3775 36.394 54.1612 36.3751C54.0926 36.6703 54.034 36.9049 54.033 37.2126C54.0549 37.517 54.085 37.8408 54.0902 38.1445C54.1112 38.456 54.1464 38.7094 54.1912 39.0173C54.0869 38.8536 54.0025 38.6346 53.8677 38.5763L53.7219 38.6212C53.6771 38.3786 53.7715 38.389 53.7805 38.264C53.791 38.1169 53.6104 38.0645 53.6128 37.8174C53.7005 37.8492 53.7429 37.8845 53.8181 37.937C53.9892 37.6564 53.5652 37.4559 53.7271 37.0801C53.8153 37.0249 53.8968 36.9751 53.9873 36.924C53.9763 36.7957 53.842 36.6455 53.7595 36.5317C52.7466 36.2448 49.8904 36.5119 48.6545 36.498C48.6387 36.8975 48.5573 38.1646 48.7331 38.4559C49.6307 38.7395 51.0152 38.2342 51.1162 39.895C51.1953 41.1936 51.2092 42.5763 51.1286 43.8665C51.121 43.9538 50.93 44.2892 50.959 44.4446C51.0724 44.4657 51.1315 44.4697 51.2468 44.4744C51.3025 44.6115 51.2339 44.7203 51.1896 44.8587C50.8228 46.0053 49.5969 45.5302 48.8784 45.8524C48.8713 46.0501 48.857 46.2796 48.8612 46.4745C48.9079 46.8122 48.8932 47.5304 48.8946 47.8872C50.3892 47.8696 51.8786 47.8291 53.3727 47.8081C54.5428 47.7915 56.3233 47.9429 57.4596 47.7843ZM77.3072 7.13488L77.0104 6.78729C76.4258 6.79415 75.7511 6.78248 75.1766 6.80539C73.4032 6.88855 72.3408 8.78478 71.8396 10.2738C72.0373 10.4962 72.3193 10.7952 72.4894 11.0216L71.8567 11.0318L71.8462 12.0061C72.8725 12.7732 73.7901 14.4581 74.4586 15.5818C74.8273 15.3409 75.268 15.0332 75.5906 14.7333C76.1533 14.2246 76.5968 13.5413 77.1004 12.9686C77.2924 12.7245 77.6522 12.7 77.8818 12.5451C78.6389 12.0352 78.7837 11.0787 78.8771 10.2462C78.9081 9.9704 78.6736 8.67814 78.7008 8.64814C78.8518 8.74973 79.0405 8.90685 79.2058 8.91243C79.4016 8.53397 78.4707 7.18266 78.2386 6.77538L77.6388 6.80115L77.3072 7.13488Z" fill="#EE6C03"/>
<path d="M54.869 36.4151C55.5907 36.3533 56.3642 36.3622 57.0932 36.3638C58.838 36.3678 61.1504 35.9645 62.6075 37.1166C63.6379 37.9312 63.8538 39.606 62.9571 40.5913C62.254 41.3638 61.5759 41.4885 60.6133 41.6794C63.0805 41.7824 63.091 43.0937 63.1748 45.1489C63.1858 45.4172 63.1386 46.0363 63.4898 46.0571C64.3936 46.1109 63.9348 44.876 64.0663 44.2891C64.3054 44.2702 64.445 44.2454 64.6747 44.3084C64.9105 44.4209 65.1273 44.4981 65.3484 44.6001C65.3498 44.9081 65.3679 45.4631 65.3412 45.7515C65.3226 45.9236 65.2907 46.1606 65.2974 46.3273C65.0997 46.5605 65.1182 46.5715 64.9867 46.8154C64.7166 47.305 64.1225 47.7398 63.5946 47.8756C62.2511 48.2214 59.8824 47.9437 59.5165 46.3118C59.4483 46.0075 59.2504 44.6988 59.3702 44.4903C59.4467 44.4814 59.4715 44.4773 59.549 44.4845L59.6028 44.4899L59.575 44.4109L59.3683 44.3376C59.2798 44.1972 59.3215 43.8328 59.2921 43.6555C59.2586 43.4542 59.1626 43.2226 59.0892 43.0313C58.2331 42.3404 57.3859 42.5521 56.3526 42.5582C55.8344 42.5604 55.3162 42.5494 54.7986 42.525C54.6491 42.6933 54.4372 43.2626 54.3681 43.4884L54.4085 43.5412L54.6768 43.4802L54.7163 43.5354L54.6835 43.6314C54.589 43.6425 54.5526 43.6416 54.464 43.6823C54.5141 43.7934 54.5438 43.8352 54.5468 43.9542C54.4631 43.9948 54.3536 43.9278 54.2077 43.9004C54.1394 43.9942 54.195 44.2547 54.2005 44.4191C54.0667 44.4838 54.1146 44.3034 53.9267 44.272C53.8504 44.388 53.8954 44.553 53.9077 44.7209C53.7721 44.6817 53.5621 44.594 53.4523 44.6303L53.4227 44.7598C53.464 44.8805 53.5578 44.9218 53.6683 44.9976C53.5556 45.3734 53.0479 45.2768 52.9998 46.2521C53.1213 46.325 53.0943 46.1325 53.2919 46.1225C53.308 46.2612 53.3173 46.1959 53.2609 46.3254C53.163 46.3738 53.0891 46.3933 53.0436 46.4886C53.164 46.6339 53.1871 46.4518 53.3815 46.5415C53.3294 46.6839 53.1058 46.8706 52.9852 46.9854C53.3213 46.9644 53.5912 46.8906 53.9224 46.8539C54.033 46.9035 54.0716 46.933 54.1881 46.9259C54.1895 46.7368 54.1913 46.3524 54.0958 46.2033C53.9991 46.2592 53.9645 46.2915 53.8568 46.2956C53.8597 46.1805 53.9841 46.0269 54.0516 45.9257C54.2403 45.6431 54.1927 45.6836 54.0855 45.3957L54.1193 45.3431L54.3121 45.5975L54.374 45.579L54.3843 45.4286L54.629 45.3232C54.8802 45.2521 54.6892 45.0527 54.8301 44.8394L54.9234 44.8244C55.1479 45.0493 55.4934 45.4081 55.7613 45.5575C56.107 45.7502 57.1058 45.6091 57.4032 45.8337C57.5378 46.1902 57.4941 47.4074 57.4426 47.8094C56.1566 47.9303 54.6005 47.7984 53.306 47.8146C51.831 47.8337 50.3608 47.8751 48.8828 47.8899C48.8711 47.4426 48.707 45.8532 49.0739 45.7981C49.8252 45.6851 50.2438 45.85 51.0187 45.2417C51.1232 44.996 51.2962 44.7375 51.1599 44.4956L50.9772 44.4478C50.8832 44.2996 51.1705 43.8989 51.1584 43.6877C51.0794 42.3144 51.3007 40.6763 50.9599 39.3544C50.6863 38.2937 49.3273 38.7231 48.6992 38.4481C48.5741 38.1597 48.633 36.8985 48.6395 36.5215C50.1125 36.4076 51.7136 36.479 53.199 36.4215C53.3013 36.4176 53.6096 36.4966 53.7223 36.5238C53.8019 36.6216 53.8899 36.7509 53.9655 36.8551C53.9611 37.0099 53.8181 36.9765 53.7228 37.1045C53.5307 37.3625 53.9757 37.7574 53.7595 37.9677C53.6906 37.8854 53.6728 37.8317 53.5896 37.8105C53.6033 37.9718 53.6193 37.9748 53.7164 38.1084C53.8363 38.2731 53.7393 38.3507 53.7061 38.5513L53.8651 38.5745C53.9419 38.6353 54.1426 38.9591 54.1324 38.9871C53.9307 39.5464 54.4369 39.9486 54.6433 40.5607C54.4958 40.7701 54.4232 40.7386 54.4236 40.9487C54.5158 40.9257 54.6122 40.8944 54.7037 40.8669C54.7496 40.9786 54.7068 41.0377 54.6718 41.1784C54.6893 41.1306 55.0147 40.8753 55.1016 40.7888C54.9873 40.6943 54.8398 40.5935 54.7757 40.4672C54.9339 40.387 55.0691 40.567 55.1391 40.5556C56.0905 40.4017 57.0415 40.6134 57.9938 40.4345C58.1731 40.4009 58.5833 40.3019 58.7437 40.3349C58.7948 40.3961 58.8281 40.4531 58.9019 40.4752C58.9877 40.3911 59.0256 40.3447 59.1002 40.25L59.2946 40.2592C59.24 39.8747 59.3242 39.877 59.5695 39.489C59.4783 39.2522 59.3864 38.971 59.2101 38.792L59.1894 38.7712C59.0027 38.5806 58.6771 38.4514 58.4291 38.3349C57.7932 38.4829 57.319 38.3582 56.7069 38.3919C56.1811 38.4208 55.8187 38.4585 55.2796 38.4554C55.3265 38.3005 55.3438 38.21 55.3719 38.0524C55.1834 38.2524 55.1577 38.3527 54.8825 38.4234L54.6501 38.4679C54.6154 38.3498 54.5654 38.2133 54.5256 38.0946C54.3881 38.0875 54.3027 38.0841 54.1649 38.057C54.2533 37.8426 54.3682 37.8413 54.6108 37.7355L54.7411 37.8408C54.8113 37.6885 54.5642 37.6489 54.5615 37.3322C54.6273 37.2571 54.6958 37.1844 54.7668 37.1142C54.6518 37.036 54.5783 37.0788 54.3983 37.0753C54.3519 36.9347 54.3938 36.9212 54.4616 36.7515C54.5536 36.7768 54.5954 36.9245 54.6904 36.9368L54.6483 36.8982L54.7034 36.8151C54.659 36.5494 54.6251 36.5422 54.869 36.4151ZM54.7005 47.0044C54.7468 46.8077 54.8473 46.6034 54.8177 46.4474C54.7709 46.3925 54.7286 46.3306 54.6658 46.2992C54.6906 46.8101 54.381 46.4967 54.7005 47.0044Z" fill="black"/>
<path d="M54.126 38.1108C54.1436 38.0202 54.2103 37.9101 54.2551 37.8255C54.5433 37.6922 54.6777 37.7539 54.9431 37.904L54.9435 38.0029L55.0717 38.0035C55.1298 37.9003 55.126 37.8697 55.1403 37.7489L55.2094 37.7129L55.258 37.743L55.2585 37.93C55.3137 37.9693 55.3114 37.9749 55.3776 37.9798C55.178 38.3434 55.2061 38.2911 54.8435 38.4473C54.7544 38.7188 54.9102 38.971 54.8044 39.1562L54.732 39.1394C54.6491 38.7592 54.7687 38.4363 54.5138 38.1571C54.399 38.0994 54.2499 38.0585 54.126 38.1108Z" fill="black"/>
<path d="M54.1611 36.375C54.3774 36.3939 54.3731 36.361 54.5285 36.4695C54.5509 36.6204 54.5456 36.6504 54.5232 36.8022C54.4375 36.8833 54.3579 36.9497 54.2912 37.0472C54.4475 37.0609 54.6566 37.0477 54.7462 37.1401C54.6738 37.2902 54.5966 37.3978 54.6304 37.5519C54.7405 37.7167 54.7786 37.7909 54.943 37.9039C54.6776 37.7538 54.5432 37.6921 54.255 37.8254C54.2102 37.91 54.1435 38.0201 54.1259 38.1107L54.0901 38.1444C54.0849 37.8407 54.0549 37.5169 54.033 37.2125C54.0339 36.9048 54.0925 36.6702 54.1611 36.375Z" fill="black"/>
<path d="M54.4604 40.0323L54.5866 39.9954C54.7481 40.0942 54.8139 40.1522 54.8625 40.3514C54.8777 40.4129 54.8892 40.4753 54.8968 40.5381C54.9206 40.5984 54.9835 40.6378 55.0273 40.7102C55.1279 40.8764 54.8225 41.1151 54.669 41.1689C54.7276 41.0365 54.7553 41.0052 54.7372 40.8684L54.6576 40.8409L54.4637 40.9857L54.4122 40.9585L54.4075 40.8627C54.4804 40.7682 54.5352 40.7103 54.6176 40.6236C54.6271 40.4824 54.5104 40.1832 54.4604 40.0323Z" fill="black"/>
<path d="M54.673 46.2883C54.7416 46.3243 54.7769 46.3754 54.8279 46.4343C54.8603 46.5882 54.764 46.7973 54.7226 46.9979C54.4043 46.4963 54.7169 46.7883 54.673 46.2883Z" fill="black"/>
<path d="M54.773 45.6245L54.8273 45.6662C54.8974 45.8141 54.855 45.9728 54.8345 46.1435L54.7892 46.1065C54.7273 45.9837 54.763 45.7741 54.773 45.6245Z" fill="black"/>
<path d="M65.5993 36.2181C68.7047 36.1319 71.9083 36.307 75.0238 36.283C75.4268 36.2799 75.8251 36.3042 76.2292 36.2826C77.4431 36.3517 78.6137 36.2971 79.8287 36.382L79.9111 36.4034C79.9425 36.944 79.9287 37.4981 79.923 38.0404L79.8182 38.0924C79.813 38.8883 79.8034 39.6841 79.7896 40.4798C79.3861 40.4864 78.9649 40.4866 78.5637 40.5011L77.7976 40.4965C77.6718 39.8707 77.5851 39.318 77.2468 38.76C76.0472 38.0225 73.4934 38.4552 71.9155 38.3245C71.8202 38.4785 71.5619 38.8464 71.5619 38.9983C71.7997 39.0349 71.834 38.9418 72.0193 39.0192C72.0465 39.2452 71.3961 41.0327 72.3738 40.8859C72.3948 40.8772 72.4157 40.8684 72.4367 40.8597C72.4834 40.5821 72.5048 40.582 72.8274 40.6103C73.2281 40.6454 73.3791 40.6014 73.7612 40.5191C74.2062 40.0419 74.2291 39.9119 74.3682 39.2695C74.7355 39.2663 76.1553 39.1951 76.3678 39.3662C76.4893 39.7923 76.4135 41.6055 76.3883 42.1375C76.3649 43.0288 76.2825 43.8415 76.2725 44.7454C75.596 44.7467 74.8946 44.7577 74.22 44.7478C73.9951 43.7343 73.6125 43.6646 72.6292 43.5153L72.6739 43.355C72.3747 43.3504 72.0693 43.3389 71.7701 43.3306L71.713 43.446C71.7806 43.8137 71.7034 45.1833 71.703 45.6475C72.4186 45.672 73.1656 45.6411 73.8893 45.6581C74.6216 45.6516 75.3878 45.7754 76.1158 45.6823C77.2969 45.5312 77.5165 44.5559 77.6632 43.5957C78.3255 43.5917 78.9987 43.5795 79.6595 43.6088C79.6996 44.2271 79.6457 44.9291 79.6391 45.5536C79.631 46.2922 79.6357 47.0361 79.6081 47.7734C78.2693 47.6972 76.5307 47.72 75.1472 47.6929L65.3548 47.5695C65.3286 46.9737 65.3925 46.2929 65.3649 45.6129C67.8862 45.4475 68.0163 45.1748 68.011 42.5772C68.041 41.7798 68.0377 40.9424 68.0696 40.1489C68.1416 38.3376 66.9662 38.315 65.5645 38.2697C65.543 37.5857 65.5545 36.901 65.5993 36.2181Z" fill="black"/>
<path d="M71.8205 42.6775C72.4037 42.765 73.6505 42.7691 74.0789 43.199L74.0498 43.2708C73.7139 43.4081 73.0559 43.3628 72.6738 43.355C72.3746 43.3503 72.0692 43.3389 71.77 43.3305C71.8015 43.0828 71.8191 42.926 71.8205 42.6775Z" fill="black"/>
<path d="M79.8287 36.3818L79.9111 36.4033C79.9426 36.9438 79.9288 37.498 79.923 38.0403L79.8182 38.0923C79.7925 37.5935 79.8116 36.8754 79.8287 36.3818Z" fill="black"/>
<path d="M81.9516 35.9803L82.1579 35.7659L82.2284 35.779L82.217 35.9132C82.5476 36.0906 87.6794 35.848 88.5818 35.9059C88.5965 36.5794 88.607 37.253 88.6127 37.9267C87.6022 37.9514 86.2053 38.0723 86.1953 39.3492C86.1791 41.4321 86.2467 43.5692 86.2586 45.6533C87.354 45.6549 89.7743 45.8966 90.761 45.2333C91.095 45.0088 91.1917 43.9183 91.3632 43.5833C91.3728 43.5645 91.5405 43.5447 91.5833 43.5433C92.2041 43.5399 92.8283 43.4946 93.4367 43.4917C93.4519 44.1218 93.5539 47.1488 93.4586 47.5918C93.005 47.6799 92.2132 47.6604 91.7296 47.6608L88.7047 47.6513C87.7194 47.6566 86.7131 47.7323 85.7288 47.7423C83.8407 47.7604 81.9478 47.7723 80.0596 47.7761C80.0301 46.9926 80.0253 46.4773 80.0963 45.6973C81.205 45.7694 82.51 45.6191 82.4962 44.2147C82.4804 42.6077 82.4714 40.8497 82.4066 39.2466C82.3589 38.0779 80.8115 38.0798 79.9229 38.0403C79.9286 37.498 79.9424 36.9439 79.911 36.4033C79.9148 36.2151 79.8867 36.1761 79.971 36.0284C80.1716 35.9703 81.6386 35.9842 81.9516 35.9803Z" fill="black"/>
<path d="M71.7701 43.3306C72.0693 43.3389 72.3747 43.3504 72.6739 43.355L72.6291 43.5152C72.2908 43.5035 72.0483 43.4874 71.7129 43.446L71.7701 43.3306Z" fill="black"/>
<path d="M77.7389 42.7913C78.4074 42.7876 79.0758 42.7897 79.7443 42.7977C79.7504 42.9762 79.7338 43.1771 79.7233 43.3576C79.3431 43.3613 77.9971 43.3984 77.7056 43.3142C77.6574 43.1559 77.7098 42.9625 77.7389 42.7913Z" fill="black"/>
<path d="M64.0716 43.4664C64.4094 43.4437 65.0173 43.5468 65.2227 43.8405C65.2446 44.027 65.2532 43.9506 65.1784 44.1323L63.9834 44.1303C63.9749 43.9267 63.9572 43.6164 64.0716 43.4664Z" fill="black"/>
<path d="M24.2451 2.64686C24.6195 2.57135 27.7061 3.72421 28.0999 3.94678L28.2382 4.8019C30.581 7.04892 31.0895 8.92548 30.6486 11.8789C30.6202 12.0687 30.8093 13.1659 30.8395 13.4605C30.0256 14.5659 29.8526 14.8548 29.4559 16.1395C28.4139 16.9244 28.0543 17.9426 27.3708 18.4725C27.0123 18.7505 24.5341 19.527 23.9887 19.4816C23.7573 19.4624 23.5667 19.4409 23.3189 19.3896C22.2996 19.1783 21.1793 19.0185 20.1756 18.7522C20.0259 18.7125 19.72 18.5149 19.5915 18.3994C17.5419 16.557 16.4235 13.8781 16.5589 11.1268C16.568 10.9413 16.7814 10.4058 16.8241 10.1833C17.0777 8.8649 17.1789 8.0183 17.0624 6.68975C17.3788 6.02033 18.1913 4.63725 18.9104 4.48051C19.9906 4.24503 20.0655 4.39258 20.7055 3.34359C21.8311 2.98126 23.4056 3.01911 24.2451 2.64686ZM19.2288 15.1745C19.6231 15.4377 19.8938 15.5858 20.173 15.974C20.1797 16.1441 20.1892 16.3171 20.1881 16.487C21.238 17.0647 21.5954 17.7978 22.6534 17.8075C23.802 17.7472 25.8305 17.3212 26.7076 16.4604C27.0237 16.1502 27.0318 15.6127 27.2447 15.2554C27.6586 14.5961 28.2767 14.1252 28.4548 13.3311C28.552 12.8976 28.4944 12.4874 28.5452 12.0653C28.8794 9.29203 27.8957 4.62291 24.2052 4.71022C22.4648 4.77085 21.6433 4.98122 20.3886 6.21147C20.248 6.3493 19.6544 6.77625 19.5887 6.86431C19.0315 7.65442 18.8835 8.72187 18.6289 9.63705C18.5103 10.0637 18.3198 10.4901 18.3404 10.9225C18.3872 11.91 18.4642 12.559 18.934 13.4474C19.0916 13.7455 19.2076 14.7989 19.2288 15.1745Z" fill="black"/>
<path d="M30.7615 19.5916C31.0422 19.5717 33.4368 20.629 33.7782 20.8538C33.8309 21.1256 33.8548 21.3646 33.8836 21.6383C35.1735 23.2261 35.9424 24.6141 35.9516 26.7457C35.9541 27.3249 35.8509 27.9366 35.8483 28.4999C35.8465 28.9008 35.9406 29.5657 35.9903 29.9818C35.7265 30.4123 35.3893 30.944 35.2083 31.413C35.1245 31.5866 34.966 32.4094 34.8675 32.5147C34.2911 33.1314 33.8813 33.8613 33.4397 34.5595C33.1997 34.939 32.3725 35.2336 31.9711 35.3908C31.2904 35.6574 30.7203 35.8699 29.9926 35.7048C29.5439 35.5987 27.5137 35.1937 27.2722 34.9853C25.2819 33.2681 24.127 29.618 24.6952 27.0746C25.0304 25.574 24.9615 24.9092 25.0079 23.5374C25.0315 22.8387 25.9239 21.6641 26.4036 21.3242C26.6659 21.2945 26.9273 21.2583 27.1877 21.2156C27.55 20.9302 27.6556 20.6778 27.8824 20.284C28.8549 19.8609 29.7862 20.0283 30.7615 19.5916ZM26.6525 31.6148C26.9199 31.8283 27.3847 32.1439 27.4064 32.5051C27.4387 33.0423 27.7217 33.0304 28.0414 33.3332C28.7253 33.9809 28.8026 34.258 29.7788 34.1495C29.8452 34.1422 29.9112 34.1323 29.9767 34.1197C31.1999 33.7872 32.7661 33.5198 33.0062 32.0287C33.1057 31.4105 33.8869 30.7052 33.9828 30.2054C34.1723 29.2172 34.2378 27.4574 34.1373 26.4683C34.0719 25.8822 33.9609 25.3021 33.8052 24.7333C33.3681 23.1389 32.2673 21.2059 30.2979 21.6168C28.6454 21.742 28.2438 22.3273 27.1359 23.5135C26.5145 24.1789 26.1901 26.4127 26.0101 27.3542C25.9551 27.6422 26.0608 28.4846 26.075 28.806C26.0977 29.32 26.3475 29.5784 26.4909 30.003C26.6105 30.3575 26.6625 31.228 26.6525 31.6148Z" fill="black"/>
<path d="M1.7412 48.0625C1.4277 47.0889 1.38136 46.1132 1.6018 45.1394C1.63723 45.0361 1.56435 44.7953 1.61219 44.715C1.7759 44.4401 2.33814 44.1376 2.41007 43.8388C2.53237 43.3309 2.31518 41.5419 2.78581 41.2649C2.88202 41.3217 2.91082 41.3391 3.01507 41.3771C3.21969 41.2486 3.16788 41.0198 3.21914 40.7971C3.27197 40.5677 3.50687 40.1894 3.4997 39.9728L3.45086 39.9077C3.19504 40.0877 3.1047 40.7273 2.83774 40.6849C2.636 40.3558 2.77509 39.5536 2.62767 39.1358C2.73016 39.2651 2.78376 39.3647 2.93736 39.4098C3.06944 39.3846 3.24232 39.1826 3.37349 39.0736L3.40877 38.9656C3.31544 38.8791 2.90407 38.8798 2.77936 38.8198C2.29179 38.5826 2.10393 38.1804 1.49449 38.2357C1.14055 38.2679 0.539946 38.3443 0.519316 37.8226C0.506734 37.5045 0.64909 36.9452 1.01834 36.8643C0.930195 37.0536 0.907664 37.1725 1.03986 37.3463L1.09688 37.3281C1.20856 37.0587 1.03524 36.7439 1.13911 36.5735C1.20954 36.5948 1.24069 36.6076 1.30809 36.6375C1.70145 36.5246 1.7227 36.3498 2.1068 36.5268C2.13153 36.5382 2.65309 36.315 2.71246 36.3042C3.1481 36.2595 3.92976 36.2364 4.3436 36.284C4.44575 36.3487 4.46095 36.3609 4.53937 36.4528C4.71875 36.3866 4.64162 36.2807 4.82633 36.2539C5.24317 36.1934 5.49144 36.6452 5.67721 36.1485L5.70589 36.1392C5.73257 36.254 5.73996 36.319 5.75244 36.4366C5.85821 36.4622 6.03225 36.3372 6.21259 36.3512C7.26257 36.4321 8.31103 36.5422 9.36115 36.603C9.39693 36.6051 9.61872 36.8022 9.66136 36.8404C9.71939 36.8032 10.0057 36.6211 10.0463 36.6205C10.6093 36.619 11.2562 36.6872 11.8053 36.8011C12.8647 37.0206 13.9044 37.1784 14.5253 38.1841C15.2233 39.3147 14.8849 40.7587 13.7277 41.4279C13.0959 41.7934 12.712 41.8901 12.0136 42.0148C13.4212 42.3461 14.709 42.6822 15.0621 44.3018C14.9866 44.5582 14.7879 44.4401 14.8604 44.6835C15.4382 46.6217 14.1605 47.6943 12.2582 47.8143C11.9902 47.6843 11.8133 47.5967 11.5589 47.4357C11.4547 47.5133 11.2032 47.7024 11.0842 47.7176C10.1883 47.8315 7.96418 47.8172 7.12416 47.7053C7.12497 47.6914 7.13546 47.539 7.13655 47.5457C7.09682 47.3023 7.43075 46.9227 7.38173 46.757C7.19696 46.9299 7.09748 47.1709 7.07433 47.42C6.67893 47.8577 5.78846 47.6719 5.29839 47.549C5.31621 47.5533 4.93791 47.6734 4.88155 47.671C4.52079 47.6538 2.96 47.7834 2.71174 47.6086C2.50312 46.8218 3.15195 43.4196 3.27812 42.4904L3.22357 42.516C3.17346 42.8263 2.97665 42.8991 2.91986 43.1997C2.79937 43.8374 2.55497 44.4445 2.43908 45.0842C2.33477 45.8346 2.21715 46.9237 2.1982 47.6743L1.7412 48.0625ZM9.62439 43.9286C9.65507 44.1244 9.69914 44.3336 9.67513 44.5288C9.50856 44.7538 9.54906 44.7709 9.51238 45.0471C9.27954 45.0088 9.16948 44.8212 9.19049 44.5981C9.34562 44.4753 9.30026 44.5108 9.50999 44.475C9.5361 43.9943 8.59661 43.9034 9.80796 43.5165C9.87204 43.2906 9.98229 43.0222 9.88305 42.8195C9.77027 42.7357 9.7577 42.7127 9.62572 42.7149C9.48851 42.902 9.59137 42.9877 9.46159 43.0596L9.33676 42.8613C8.58441 42.7898 7.26652 42.8718 6.40455 42.8243C6.46829 43.9827 6.29568 44.6661 6.30054 45.7269L7.26324 45.7593C7.36429 45.6562 7.58703 45.3978 7.70623 45.3743L7.77117 45.4198C7.73001 45.5279 7.69675 45.6211 7.6624 45.7316L7.70747 45.7887C8.31179 45.8576 9.38436 45.8486 10.0466 45.875L10.0679 45.9089C10.0156 46.0416 9.96504 46.1271 9.98362 46.2658C10.0644 46.3553 10.0205 46.3312 10.1542 46.3444C10.2374 46.1705 10.3077 45.8981 10.2541 45.7068C10.2573 45.5458 10.2448 45.4117 10.3316 45.275C10.3852 45.3832 10.3957 45.5024 10.4161 45.623L10.4738 45.6435C11.1961 45.2699 11.1141 43.9078 10.8195 43.2734C11.1485 42.4323 11.5921 42.1264 12.2572 41.5141C12.3927 41.3884 12.5294 41.3272 12.6063 41.168C12.4593 41.1887 12.3536 41.2983 12.2318 41.3952C11.8729 41.6744 11.0718 42.2972 10.7777 42.5687C10.3406 42.9721 10.2731 43.4917 9.62439 43.9286ZM9.87485 40.9655C9.78495 41.3926 9.84222 41.462 10.1196 41.7799C10.0978 41.6006 9.9831 41.0967 9.87485 40.9655ZM4.19581 38.02C4.06317 38.3649 3.8744 38.7681 3.91352 39.1334L3.96926 39.1878L4.08518 39.1262C4.12377 38.5661 4.37185 38.6779 4.45652 38.3185C4.40616 38.1376 4.37586 38.1631 4.19581 38.02ZM6.53242 38.5474C6.46782 39.3167 6.46391 39.9339 6.46658 40.709C7.29683 40.8584 8.35667 40.8185 9.21055 40.9065C9.21198 40.9066 9.39412 41.0751 9.42257 41.1016C9.50571 41.0421 9.51471 41.0067 9.56064 40.9169C9.81496 40.8159 10.1484 40.8917 10.3263 40.7018C10.8288 40.3203 11.1045 39.8933 10.6561 39.2603C10.3373 38.8102 9.61829 38.7467 9.12727 38.7107C8.25852 38.6378 7.39483 38.6242 6.53242 38.5474Z" fill="black"/>
<path d="M9.67503 44.5287C9.50847 44.7537 9.54897 44.7708 9.51228 45.047C9.27944 45.0087 9.16939 44.8211 9.1904 44.598C9.34553 44.4752 9.30017 44.5107 9.5099 44.4749C9.57184 44.5091 9.60619 44.5385 9.67503 44.5287Z" fill="black"/>
<path d="M10.2541 45.7066C10.2088 45.5759 10.2135 45.4387 10.1841 45.3245C10.1391 45.1493 9.82299 45.3286 9.76562 45.055C9.95777 45.1104 9.87464 45.1105 10.0893 45.0259C10.2415 45.0864 10.225 45.1187 10.3315 45.2748C10.2447 45.4115 10.2573 45.5456 10.2541 45.7066Z" fill="black"/>
<path d="M9.87477 40.9653C9.98302 41.0965 10.0977 41.6004 10.1195 41.7797C9.84213 41.4618 9.78486 41.3924 9.87477 40.9653Z" fill="black"/>
<path d="M12.2318 41.3953C12.3536 41.2983 12.4593 41.1887 12.6063 41.168C12.5294 41.3272 12.3927 41.3884 12.2572 41.5141L12.2318 41.3953Z" fill="black"/>
<path d="M38.3095 36.4095C39.0312 36.3477 39.8048 36.3565 40.5337 36.3582C42.2785 36.3622 44.591 35.9589 46.0481 37.111C47.0785 37.9256 47.2943 39.6004 46.3976 40.5857C45.6945 41.3582 45.0164 41.4829 44.0538 41.6738C46.5211 41.7768 46.5315 43.0881 46.6154 45.1433C46.6263 45.4116 46.5792 46.0306 46.9303 46.0515C47.8341 46.1053 47.3753 44.8704 47.5068 44.2835C47.746 44.2646 47.8856 44.2398 48.1152 44.3028C48.3511 44.4153 48.5678 44.4925 48.7889 44.5945C48.7903 44.9025 48.8084 45.4575 48.7818 45.7459C48.7632 45.918 48.7313 46.155 48.7379 46.3217C48.5402 46.5549 48.5588 46.5659 48.4273 46.8097C48.1572 47.2994 47.563 47.7342 47.0351 47.87C45.6917 48.2157 43.3229 47.9381 42.9571 46.3062C42.8889 46.0019 42.6909 44.6932 42.8107 44.4847C42.8873 44.4758 42.912 44.4717 42.9896 44.4789L43.0433 44.4842L43.0155 44.4053L42.8088 44.332C42.7203 44.1916 42.7621 43.8272 42.7326 43.6499C42.6992 43.4486 42.6031 43.217 42.5297 43.0257C41.6737 42.3348 40.8265 42.5465 39.7931 42.5526C39.2749 42.5548 38.7568 42.5438 38.2392 42.5194C38.0897 42.6876 37.8778 43.257 37.8087 43.4828L37.8491 43.5356L38.1174 43.4746L38.1568 43.5298L38.1241 43.6258C38.0296 43.6369 37.9932 43.636 37.9046 43.6767C37.9547 43.7878 37.9843 43.8296 37.9873 43.9486C37.9037 43.9892 37.7942 43.9222 37.6483 43.8947C37.58 43.9886 37.6356 44.2491 37.6411 44.4135C37.5073 44.4781 37.5552 44.2978 37.3672 44.2664C37.2909 44.3824 37.336 44.5474 37.3482 44.7153C37.2126 44.6761 37.0026 44.5884 36.8929 44.6247L36.8633 44.7542C36.9046 44.8748 36.9983 44.9162 37.1088 44.992C36.9961 45.3677 36.4884 45.2712 36.4404 46.2464C36.5619 46.3194 36.5349 46.1269 36.7324 46.1168C36.7486 46.2556 36.7578 46.1902 36.7015 46.3198C36.6035 46.3682 36.5296 46.3877 36.4841 46.483C36.6045 46.6283 36.6276 46.4462 36.822 46.5359C36.7699 46.6783 36.5464 46.865 36.4257 46.9798C36.7618 46.9588 37.0317 46.885 37.3629 46.8483C37.4735 46.8979 37.5121 46.9274 37.6287 46.9202C37.6301 46.7312 37.6319 46.3468 37.5364 46.1977C37.4397 46.2535 37.405 46.2859 37.2974 46.29C37.3003 46.1749 37.4246 46.0213 37.4922 45.9201C37.6808 45.6375 37.6332 45.678 37.5261 45.3901L37.5599 45.3375L37.7526 45.5918L37.8146 45.5734L37.8248 45.4229L38.0695 45.3175C38.3208 45.2465 38.1297 45.0471 38.2707 44.8338L38.3639 44.8188C38.5885 45.0437 38.9339 45.4025 39.2018 45.5519C39.5475 45.7446 40.5463 45.6035 40.8438 45.8281C40.9784 46.1846 40.9346 47.4018 40.8831 47.8038C39.5971 47.9247 38.041 47.7928 36.7465 47.809C35.2715 47.828 33.8014 47.8695 32.3233 47.8842C32.3117 47.437 32.1476 45.8476 32.5144 45.7925C33.2658 45.6795 33.6843 45.8444 34.4593 45.2361C34.5637 44.9904 34.7367 44.7319 34.6004 44.49L34.4178 44.4422C34.3237 44.294 34.6111 43.8933 34.5989 43.682C34.52 42.3088 34.7413 40.6707 34.4004 39.3488C34.1269 38.2881 32.7679 38.7175 32.1397 38.4425C32.0146 38.1541 32.0736 36.8929 32.0801 36.5159C33.5531 36.402 35.1542 36.4734 36.6395 36.4159C36.7419 36.412 37.0501 36.491 37.1629 36.5182C37.2424 36.616 37.3305 36.7453 37.406 36.8495C37.4017 37.0043 37.2586 36.9709 37.1634 37.0989C36.9713 37.3569 37.4163 37.7518 37.2 37.962C37.1312 37.8798 37.1133 37.8261 37.0301 37.8049C37.0439 37.9662 37.0598 37.9692 37.157 38.1027C37.2768 38.2675 37.1799 38.3451 37.1467 38.5456L37.3056 38.5689C37.3824 38.6297 37.5831 38.9535 37.573 38.9815C37.3712 39.5408 37.8775 39.943 38.0839 40.5551C37.9363 40.7645 37.8638 40.733 37.8642 40.9431C37.9564 40.9201 38.0528 40.8888 38.1443 40.8612C38.1902 40.973 38.1473 41.0321 38.1124 41.1728C38.1299 41.125 38.4553 40.8697 38.5422 40.7832C38.4279 40.6887 38.2803 40.5879 38.2163 40.4615C38.3745 40.3814 38.5097 40.5614 38.5796 40.55C39.5311 40.396 40.4821 40.6078 41.4343 40.4289C41.6137 40.3952 42.0239 40.2963 42.1842 40.3293C42.2354 40.3905 42.2687 40.4474 42.3424 40.4695C42.4282 40.3855 42.4662 40.339 42.5408 40.2444L42.7352 40.2535C42.6805 39.8691 42.7648 39.8714 43.0101 39.4833C42.9189 39.2465 42.827 38.9654 42.6507 38.7864L42.63 38.7656C42.4432 38.575 42.1177 38.4458 41.8696 38.3293C41.2338 38.4773 40.7596 38.3526 40.1475 38.3863C39.6216 38.4152 39.2593 38.4529 38.7201 38.4498C38.767 38.2949 38.7844 38.2044 38.8125 38.0468C38.6239 38.2468 38.5983 38.3471 38.3231 38.4178L38.0907 38.4623C38.056 38.3442 38.006 38.2077 37.9661 38.089C37.8286 38.0819 37.7433 38.0784 37.6054 38.0513C37.6939 37.837 37.8087 37.8357 38.0513 37.7299L38.1817 37.8352C38.2519 37.6828 38.0048 37.6433 38.0021 37.3266C38.0679 37.2515 38.1363 37.1788 38.2073 37.1086C38.0924 37.0304 38.0189 37.0732 37.8388 37.0697C37.7924 36.9291 37.8343 36.9156 37.9021 36.7459C37.9942 36.7711 38.036 36.9188 38.131 36.9312L38.0889 36.8925L38.144 36.8095C38.0995 36.5438 38.0657 36.5366 38.3095 36.4095ZM38.1411 46.9988C38.1874 46.8021 38.2879 46.5978 38.2583 46.4418C38.2115 46.3869 38.1691 46.325 38.1064 46.2936C38.1311 46.8045 37.8215 46.4911 38.1411 46.9988Z" fill="black"/>
<path d="M38.1063 46.2937C38.1691 46.3251 38.2114 46.387 38.2582 46.4419C38.2878 46.5979 38.1873 46.8022 38.141 46.9989C37.8214 46.4912 38.1311 46.8046 38.1063 46.2937Z" fill="black"/>
<path d="M58.0309 2.70736C58.5202 2.6112 59.353 2.64 59.677 3.08601C59.5398 3.36886 57.059 4.31268 56.6083 4.57068C56.3014 4.74662 57.0699 5.48386 56.8979 5.919C56.613 6.64062 54.9817 7.09966 54.3785 7.54789C53.7396 7.98717 52.8996 8.93826 52.7662 9.7127C52.64 10.4449 54.2584 11.2472 54.58 11.8694C54.9135 12.5152 55.1923 13.1543 55.5148 13.7903C56.1013 14.9237 56.7564 16.0204 57.4768 17.0741C58.0314 17.8785 58.5269 17.8905 59.4412 18.0592C59.5079 18.1218 59.5731 18.1859 59.637 18.2512C59.8247 18.4439 60.0091 18.6466 60.0048 18.926C59.9514 19.0386 59.9248 19.0777 59.8071 19.1345C59.5574 19.2555 59.2568 19.309 58.9819 19.3365C58.2748 19.4072 54.6739 19.4378 54.0817 19.2407C53.9197 19.1868 53.6891 19.0843 53.6181 18.9164C53.5733 18.8105 53.5862 18.7061 53.64 18.6042C53.9135 18.0863 55.0755 17.8867 55.6163 17.7423C55.622 17.5349 55.6034 17.3153 55.5896 17.1071C55.1289 16.5786 53.5752 15.0305 53.3194 14.5474C52.4532 12.9141 52.2383 12.4267 50.8385 11.111C50.2763 11.5778 49.7723 12.0008 49.2391 12.4985C49.1334 13.0503 49.0514 13.7579 49.0728 14.3157C49.0933 14.8463 49.1634 15.3668 49.1634 15.9025C49.1629 16.4647 48.9857 17.1122 49.1253 17.6505C49.2625 17.736 50.1263 17.7384 50.3702 17.7876C50.6461 17.8433 50.8076 17.8811 51.0849 17.9672C51.1058 18.1023 51.1254 18.2375 51.1435 18.373C51.2621 19.2726 50.5317 19.1469 49.8361 19.2249C48.9609 19.3178 45.2727 19.6907 44.8963 18.78C44.8492 18.6638 44.8536 18.5331 44.9084 18.4203C45.1248 17.981 46.552 17.5884 47.0475 17.4199C47.372 16.1367 46.9341 15.2804 46.8855 14.0082C46.8526 13.6009 47.078 12.9566 47.0351 12.5729C46.926 11.6019 46.8745 10.8129 47.0313 9.8422C47.0627 9.64888 46.7369 9.05395 46.7526 8.79638C46.8788 6.74197 47.9794 4.89099 45.1312 4.2752C44.8047 4.20442 44.6579 3.57836 44.8239 3.29069C45.0132 2.96286 45.4964 2.82904 45.8413 2.71695C47.372 3.00075 47.4834 3.36247 49.1438 2.88021C49.7465 2.70515 51.3636 2.86829 52.0454 2.90618C52.8263 2.94961 52.4632 3.66755 51.9348 3.85321C51.3612 4.14931 51.0248 4.3706 50.3707 4.48181C50.1601 4.51758 49.3692 4.60164 49.2792 4.65337C49.0886 4.86341 49.1043 5.07559 49.1114 5.34755C49.1434 6.57646 49.2477 7.80709 49.251 9.03628C49.0419 9.32143 48.6355 9.73199 48.7408 10.1077C49.3111 10.2843 50.3059 8.67249 51.001 8.30814C51.5075 8.04237 52.4094 6.58746 53.0697 6.20163C53.3699 6.02626 54.4452 5.26454 54.5267 4.99648C54.399 4.26615 52.4999 3.86192 52.8077 3.1827C53.4452 2.64457 54.995 3.04943 55.7102 2.98546C56.4582 2.91851 57.281 2.79922 58.0309 2.70736Z" fill="black"/>
<path d="M21.8148 36.2848C22.615 36.2372 24.2228 36.1448 24.9758 36.3185C25.1791 36.3654 26.0853 37.9701 26.1463 38.3325C26.2764 38.304 26.3878 38.1252 26.5885 38.0071L26.662 38.0287C26.7414 38.2834 26.6416 38.4913 26.5165 38.7075C27.567 40.3121 28.4984 42.0356 29.5611 43.6378C29.7706 43.9538 29.7229 43.6656 29.9697 43.8438C29.983 44.0243 29.9419 44.0381 29.8571 44.226C29.729 44.2971 29.7879 44.2874 29.6339 44.2545C29.6022 44.3885 29.6941 44.3955 29.6849 44.4302C29.633 44.6254 29.4195 44.7077 29.3885 44.9161C29.5694 44.8152 29.8341 44.4734 29.936 44.2952C30.1102 44.2621 30.362 44.4157 30.5338 44.4886C30.9749 44.6761 31.3901 44.7583 31.8621 44.8389C31.5256 44.8614 29.946 44.8545 29.7934 44.9565L29.7431 45.0354C29.1827 45.8027 28.5787 46.5401 28.0318 47.3074C27.4452 48.0933 26.4777 49.4674 25.8668 50.1785L25.7896 49.9694C26.0157 49.8103 27.3805 47.9761 27.378 47.7442C27.2245 47.7018 27.2472 47.7261 27.0772 47.7985L26.9922 47.7089C26.5934 47.7413 25.7098 47.7204 25.2795 47.7209C25.252 47.034 25.2126 46.3221 25.2217 45.6362C25.6758 45.5879 26.1511 45.6194 26.5932 45.4745C26.8092 45.4037 27.1575 45.1667 27.0644 44.9128C26.7324 44.8141 26.2477 44.9253 25.8313 44.8371L25.7853 44.827C26.1454 44.7875 26.789 44.7721 27.0445 44.4907C27.3059 44.2028 27.1287 43.6918 26.8556 43.4595C26.6623 43.4248 26.6738 43.5839 26.4919 43.6426C26.2251 43.7287 26.2349 43.3772 25.9529 43.2686L25.8921 43.2977C25.9662 43.4182 26.0127 43.4736 26.1018 43.5808C25.9227 43.598 26.0347 43.4727 25.597 43.4687L21.945 43.4677C21.8235 43.6671 21.654 43.8806 21.6987 44.1309C21.76 44.4734 21.8339 44.4877 21.5399 44.6564L21.5395 44.747L21.5643 44.8803C21.5919 45.0784 21.6924 45.1368 21.6653 45.3108C21.5363 45.3657 21.4641 45.3997 21.343 45.4698L21.3725 45.5258C21.7703 45.6705 21.7839 45.2585 22.0998 45.2665C22.0845 45.3392 22.068 45.4116 22.0503 45.4838C22.8803 45.8279 23.6946 45.1077 23.5106 46.4868C23.4638 46.8373 23.5574 47.3093 23.4767 47.6675C23.2592 47.8514 21.7415 47.687 21.3314 47.7518C20.9529 47.8113 21.0722 47.9371 20.8488 47.9199L20.7458 47.7599C20.6904 47.7232 15.7058 47.7847 15.1472 47.7899C15.1183 47.2231 15.0502 46.2854 15.1156 45.7588C16.0444 45.5115 16.1797 45.5132 16.9335 44.8741C16.5197 44.8981 16.1596 44.8802 15.7476 44.8538C16.6419 44.5748 17.3256 43.7926 17.7394 42.978C18.0375 42.391 17.4306 42.3064 17.0506 42.1973C17.4508 42.1671 17.776 42.269 18.1077 42.2371C18.4607 41.9454 19.0646 40.7867 19.3432 40.3563C20.1565 39.0998 20.9675 37.4931 21.8148 36.2848ZM22.9927 41.6897C23.2781 41.6521 23.5159 41.6164 23.8053 41.6223C23.9242 41.6247 24.1742 41.6679 24.2511 41.6589C24.7815 41.6637 25.3119 41.6593 25.8421 41.6459C25.4629 41.0492 24.8164 39.9175 24.4353 39.401C23.9602 40.1506 23.4477 40.9317 22.9927 41.6897Z" fill="black"/>
<path d="M50.052 26.9615C50.689 26.5626 51.0034 26.1007 51.4532 25.5272C51.6142 25.322 52.1064 24.9064 52.2179 24.7424C52.5976 24.2344 52.9211 23.711 53.3699 23.2558C53.5624 23.0607 53.7163 22.8903 53.9259 22.7117C54.1813 22.4939 54.631 22.2086 54.7554 21.9039C54.7754 21.337 53.5886 20.9392 53.3404 20.3718C53.3551 19.534 55.1466 19.9685 55.6745 19.9117C56.6407 19.8076 57.5002 19.6207 58.4769 19.6541C58.6489 19.7615 58.8314 19.9331 58.9867 20.0702C58.1481 20.4789 57.2705 20.9931 56.453 21.4518C56.1938 21.597 56.7755 22.4162 56.6507 22.7561C56.3715 23.5159 55.2214 23.7934 54.6615 24.2786C54.1398 24.7302 53.7334 25.359 53.4523 25.9757C52.9888 27.0654 54.2847 27.5751 54.7335 28.3327C54.9631 28.7204 55.1713 29.4321 55.3862 29.9178C55.6049 30.5424 56.4553 32.4488 56.8522 32.9257C57.0642 32.9164 56.9375 32.8025 57.1176 32.8667C57.1176 33.0065 57.0504 33.109 56.9871 33.2375C57.4035 34.1063 57.7108 34.2526 58.6498 34.395C60.3055 36.1865 56.7417 35.5181 55.9279 35.6457C55.6606 35.6876 54.9136 35.6384 54.6263 35.6144C54.5334 35.607 54.4409 35.5975 54.349 35.5859C53.9083 35.317 53.924 34.9779 54.2756 34.6482C54.1899 34.3848 54.0922 33.5236 54.0312 33.1737C54.1884 32.8004 54.3695 32.5197 54.6196 32.2064C54.4286 31.8942 53.9326 31.364 53.8111 31.0835C53.2313 29.745 52.8149 28.8274 51.8005 27.7466C51.3679 28.1654 50.9386 28.6299 50.5194 29.0656C50.3783 30.2415 50.4022 31.1943 50.4684 32.3672C50.4989 32.9111 50.3293 33.4339 50.4412 34.0161C50.638 34.1018 51.1397 34.1069 51.3846 34.1519C51.6304 34.197 51.7657 34.2406 52.0035 34.319C52.0497 34.6374 52.0635 34.9777 52.0649 35.2992C51.1854 35.6386 49.9529 35.6071 49.0095 35.677C48.5173 35.7149 47.3501 35.6717 47.0842 35.1813C46.5668 34.2265 48.7751 34.2171 48.8642 33.4559C48.9733 32.5251 48.6512 31.4896 48.6279 30.5541C48.6164 30.0955 48.7389 29.7014 48.7532 29.2491C48.7613 28.7241 48.6555 28.182 48.6569 27.6556C48.6574 27.3044 48.7618 26.8858 48.7546 26.5536C48.7475 26.2104 48.5192 25.7851 48.5293 25.4072C48.5555 24.4555 48.9628 23.2219 48.6779 22.303C48.3835 21.3535 47.5811 21.4607 47.0013 20.9907C46.9165 20.7776 46.9141 20.454 46.9927 20.2454C47.1152 19.9214 47.5206 19.7894 47.8222 19.6537C48.251 19.8153 48.8051 19.9771 49.2492 20.1202C50.0439 19.915 50.4155 19.8144 51.2636 19.7727C54.3185 19.6226 53.1188 20.9017 51.2235 21.4282C51.0068 21.4884 50.7743 21.4176 50.5518 21.5134C50.3154 21.8659 50.5246 25.0997 50.5246 25.7615C50.1811 26.2783 50.1415 26.3503 50.052 26.9615Z" fill="black"/>
<path d="M54.6197 32.2065C54.9775 32.6258 55.301 33.0737 55.6292 33.5166L55.644 34.1162C55.1352 34.2764 54.754 34.4051 54.2757 34.6483C54.1899 34.3849 54.0922 33.5238 54.0312 33.1738C54.1885 32.8005 54.3695 32.5198 54.6197 32.2065Z" fill="black"/>
<path d="M4.95502 2.45616C6.34976 2.26966 5.47139 3.32702 5.49779 3.76426C5.83072 4.08756 6.42909 3.27364 6.86027 3.17528C7.93998 2.929 9.24986 2.89744 10.3563 2.87043C10.7063 2.86188 11.4024 3.18159 11.2716 3.60251C10.9368 4.67972 8.44882 4.33285 7.75788 4.73626C7.49922 5.09528 7.66641 7.97395 7.52352 8.53825C7.42556 8.92514 6.75407 8.58045 6.53991 9.76363C6.93931 9.92352 7.51642 10.2688 7.50937 10.7429C7.49751 11.5417 7.55034 12.5551 7.61805 13.3403C7.65345 13.7508 7.23022 14.7208 7.22689 15.2574C7.22184 16.0635 7.34004 16.8001 7.34104 17.5787C8.91616 18.1621 10.2366 17.3116 11.8253 17.707C12.2697 17.8176 12.5793 17.8459 13.0369 17.8404C13.1323 17.7825 13.3409 17.6561 13.4049 17.5606C13.7943 16.9522 14.0247 15.9625 14.1311 15.2514C14.2943 14.1603 14.05 13.9075 15.2596 13.537C16.4055 14.008 16.2457 14.4602 15.8488 15.4519C15.9354 15.7161 16.0443 15.9899 16.143 16.2512C16.8663 18.2376 15.8664 19.2308 13.9115 19.2731C11.1626 19.3331 8.41933 19.1589 5.67002 19.1662C4.79056 19.1685 3.36529 19.5381 2.57112 19.199C1.12132 18.58 2.70079 17.3438 3.58383 17.1193C3.88127 17.2941 4.68884 17.8949 4.93444 17.4458C4.96779 17.0361 4.65658 16.6002 4.45333 16.2289C4.90195 16.0442 4.87979 16.014 5.07356 15.5743C4.85564 15.2975 4.69317 15.082 4.49888 14.7885C4.64748 14.0397 4.86178 13.7944 4.73634 12.9634C4.52332 11.5526 4.27843 10.1461 4.08213 8.73314C3.99471 8.10407 4.15898 7.51219 4.35556 6.92236C4.5804 6.26347 4.55629 5.16411 3.88741 4.75941C3.25288 4.31665 1.5107 4.76679 1.98547 3.43283C2.13268 3.01919 2.42815 2.86538 2.80131 2.69997C3.70527 2.8217 4.11153 2.84941 4.95502 2.45616Z" fill="black"/>
<path d="M37.8004 2.5597C38.3801 2.52735 38.7923 2.84132 39.3617 2.96145C39.8669 3.06805 40.3757 3.13441 40.8751 3.24093C41.0117 3.27009 41.1993 3.70503 41.4416 3.80133C42.0662 3.85387 42.58 3.09127 43.1835 3.36385C44.4492 3.93546 43.9015 4.90084 43.868 5.8676C43.8391 6.70062 44.3195 7.38738 43.9465 8.26036C43.4672 9.38192 42.4427 9.31971 42.0213 8.21554C41.8393 7.89991 41.7637 7.27469 41.5886 6.98673C41.1496 6.26463 40.8653 5.70171 40.5703 4.90679C39.6542 4.535 38.7338 4.15474 37.7597 3.96651C36.4209 4.42098 34.7621 6.88675 33.7063 8.03365C33.6245 8.589 33.5503 9.10467 33.4348 9.65497C33.354 10.0398 33.1123 10.7549 33.0818 11.1064C32.9498 12.6294 33.6457 14.3789 34.1111 15.7952C35.3183 16.2968 36.6039 17.6454 37.9303 17.6409C38.5196 17.6389 39.6551 17.6948 40.1907 17.5518C40.5569 17.3909 40.5192 17.2218 40.5671 16.8641C41.2489 16.1823 41.743 15.1808 42.0144 14.2605C42.3375 13.9701 42.4987 13.8289 42.8599 13.5933C44.1989 13.5879 44.2996 13.6306 44.6737 14.8741C43.8138 15.1638 43.8264 15.8133 43.67 16.6008C43.0345 17.2423 40.6998 19.1502 39.7736 19.2895C39.4563 19.3372 38.7547 19.074 38.4809 19.0953C38.1464 19.1214 37.6959 19.2459 37.3326 19.3025C36.5069 18.9377 35.6244 18.754 34.9468 18.5242C34.6061 18.4086 32.6303 16.675 32.3683 16.3851C31.7206 15.6683 31.1633 13.5838 31.3097 12.5874C31.3488 12.0287 31.6216 11.2436 31.6414 10.7104C31.7083 8.90987 31.5024 8.16477 32.4838 6.57188C33.2222 5.37336 33.5735 4.71242 34.7007 3.71965C35.0665 3.66145 35.6842 3.62697 36.0709 3.59299C36.7125 3.04947 37.0092 2.83557 37.8004 2.5597Z" fill="black"/>
<path d="M6.42736 20.0444C6.98389 19.9494 9.06175 20.4637 9.74282 20.4861C10.2034 20.4934 10.9878 20.1977 11.4212 20.3375C12.6163 20.7568 12.3523 22.8319 12.4234 23.819C12.4754 24.5428 12.0055 25.2023 11.2247 25.0024C10.4926 24.8113 10.3788 23.7782 10.0508 23.3061C9.05875 21.8779 7.30572 20.7554 5.65728 21.9176C4.29628 22.8772 4.58791 23.4097 4.27012 24.7704C4.97731 26.0854 6.4923 26.6066 7.9281 26.4864C8.42913 26.448 9.01072 26.1877 9.50312 26.3164C10.2458 26.5331 10.4998 27.3156 11.2017 27.6145C12.1247 28.0076 13.359 28.8871 12.6968 30.025C12.5517 30.2743 12.4136 30.525 12.2739 30.7737C12.4749 31.1492 12.7733 31.5874 12.7697 32.0128C12.7586 33.3436 12.154 33.8496 11.1365 34.4695C9.98552 35.1706 9.50975 35.3783 8.17123 35.4087C7.3629 35.4075 6.25541 35.4069 5.48896 35.1992C4.16759 34.841 4.125 34.6896 2.75752 35.0328C2.02469 33.7277 1.74737 32.1821 1.76588 30.6917C1.77525 29.9372 2.56298 29.148 3.1334 29.9951C3.40109 30.3927 3.54405 31.0343 3.6548 31.5025C4.39347 32.0469 4.68072 32.698 4.66843 33.6114C6.0757 33.8802 8.11992 34.3088 9.452 33.5875C10.0712 33.2522 9.95874 32.8739 10.2354 32.4297C10.4249 32.1254 11.0145 31.681 11.0893 31.206C11.2929 29.9127 9.77031 28.967 9.12788 27.9239C8.39282 27.644 7.37114 27.8563 6.57177 27.7566C2.00095 27.1863 1.02978 20.5269 6.42736 20.0444Z" fill="black"/>
<path d="M18.2809 19.7974C19.7121 20.0613 19.666 20.0374 21.1156 19.929C21.6031 20.1601 21.9452 20.5764 22.487 20.6632C23.0949 20.7606 23.2156 19.9005 23.7888 19.9797C23.9226 20.0641 24.0033 20.1504 24.0727 20.2921C24.2423 20.6379 24.449 24.0493 24.4489 24.5894C24.4489 24.8064 24.4446 25.0583 24.3671 25.2632C24.3173 25.3947 24.2043 25.5015 24.0755 25.5557C23.9204 25.621 23.7205 25.6154 23.5671 25.5473C23.2479 25.4057 23.1504 25.0235 23.0416 24.7233C22.3567 24.4429 22.4579 23.9998 22.4849 23.2862C22.5975 22.317 21.0672 21.1038 20.3324 21.9787C19.5657 22.8917 19.6468 25.0416 19.5449 26.193C19.4582 27.1729 19.3042 27.9958 19.3155 28.9641C19.3187 29.2385 19.5187 29.7105 19.5533 30.0025C19.6509 30.6403 19.7916 31.373 19.881 31.9983C19.924 32.2996 19.7343 33.0161 19.7821 33.4308C19.9447 35.0128 21.8417 33.7155 22.6898 34.4783C22.8794 34.6489 23.0143 35.0713 22.7846 35.2345C21.8431 35.9034 20.2905 35.5864 19.1949 35.5545C18.2151 35.5597 17.2461 35.5921 16.2568 35.5253C15.5826 35.4798 14.8437 34.9066 15.76 34.437C16.0821 34.2718 16.8307 34.2031 17.2043 34.1579C17.4032 33.4814 17.5953 33.2312 18.131 32.8067C18.0524 32.6898 17.9805 32.5687 17.9156 32.4437C17.5092 31.655 18.3982 31.1394 18.3564 30.3732C18.3514 30.2804 18.1937 29.9882 18.1435 29.8919C18.201 28.3952 18.6411 28.9046 18.0212 27.0662C18.1018 26.724 18.271 26.2318 18.3789 25.8849C18.1423 24.9314 18.0879 24.7705 18.3872 23.8692C18.271 23.3705 17.9053 22.6222 17.5539 22.2526C16.8965 21.5614 16.2999 21.5855 15.4417 21.5565C15.2651 22.6083 14.9515 27.6184 12.9261 24.8456C12.7505 24.6053 13.4778 23.8316 13.6248 23.4708L13.6334 23.4491C13.6105 23.1644 13.4558 22.4814 13.3945 22.1729C13.6529 21.2403 14.0837 20.7091 14.8708 20.1721C15.7138 20.1823 16.5992 20.246 17.4445 20.2948C17.7324 19.9846 17.8753 19.9262 18.2809 19.7974Z" fill="black"/>
<path d="M40.087 20.5082C40.6055 19.975 40.9332 19.6566 41.6799 19.4849C42.0493 19.6341 42.2874 19.7902 42.7119 19.9024C43.1118 20.008 43.5376 20.0805 43.9317 20.1918C44.0433 20.2233 44.2057 20.6761 44.3857 20.716C44.6967 20.7595 45.0056 20.424 45.2748 20.2976C45.7163 20.0904 46.177 20.5264 46.3426 20.9091C46.5996 21.5027 46.2861 22.1957 46.3215 22.8233C46.3498 23.3262 46.5001 23.8832 46.4868 24.3841C46.4804 24.6322 46.4303 24.8772 46.339 25.1079C46.2444 25.3429 45.9875 25.7161 45.7476 25.7731C44.8641 25.9829 44.6857 24.2136 44.4676 23.7603C44.1072 23.011 43.8914 22.4939 43.6627 21.7662C42.8445 21.3899 42.287 21.0999 41.4093 20.858C40.1104 21.5843 39.2278 23.4878 38.3074 24.6547C38.1043 24.9122 38.0493 25.9383 37.9936 26.3001C37.9206 26.7754 37.7472 27.2455 37.6809 27.7222C37.5966 29.1837 38.1297 30.8575 38.5136 32.2458C39.0946 32.564 39.6994 33.0741 40.2594 33.4587C40.3955 33.579 40.8292 33.8644 41.0003 33.9822C41.5464 34.0029 42.9521 34.0922 43.4553 33.8746C43.5599 33.8294 43.602 33.6921 43.6236 33.5798C43.7337 33.0403 44.1825 32.6041 44.3825 32.0765C44.7794 31.029 45.0289 29.5982 46.5267 30.2979C46.8169 30.4334 46.8802 31.0597 46.9389 31.3613C46.2466 31.7011 46.2703 32.3297 46.1548 33.0202C45.6631 33.5983 43.7221 35.5544 43.0448 35.5713C42.395 35.5876 42.1677 35.3535 41.1093 35.6115C40.5113 35.307 39.2838 35.0247 38.8957 34.672C38.4677 34.2832 37.4947 33.2726 37.1317 32.8125C36.6365 32.1849 36.3569 30.8393 36.2616 30.0577C36.1634 29.2536 36.4136 28.344 36.5097 27.5452C36.5785 26.7186 36.5314 25.8599 36.61 25.0367C36.6759 24.3466 37.0847 23.6737 37.3618 23.0447C37.7517 22.1598 38.2756 21.4446 38.8979 20.701C39.1794 20.5753 39.7562 20.5427 40.087 20.5082Z" fill="black"/>
<path d="M29.842 45.1046C29.9843 45.0886 31.2421 45.57 31.946 45.5609L31.9412 47.6409C31.592 47.688 28.2742 47.7866 28.0994 47.6547C28.1157 47.5208 28.1185 47.5013 28.1799 47.3818C28.7115 46.5797 29.2621 45.8708 29.842 45.1046Z" fill="black"/>
<path d="M1.0371 45.7232C1.07662 45.7183 1.1134 45.7324 1.15649 45.742C1.22316 45.9158 1.09793 47.046 1.17759 47.3784C1.28486 47.8266 0.644863 47.759 0.333665 47.7366C0.253652 47.728 0.242479 47.7152 0.168221 47.6837C0.0324732 47.4161 0.139654 46.1288 0.148453 45.7407C0.444762 45.7415 0.741057 45.7356 1.0371 45.7232Z" fill="black"/>
<path d="M50.1072 5.396C50.8462 5.45444 51.0458 5.56103 51.4093 6.22616C51.2007 6.50707 51.0906 6.61143 50.8171 6.82833C50.0753 7.22407 49.4931 6.4332 49.8066 6.05598C49.9524 6.01936 50.0191 6.01759 50.1239 5.91091C50.1968 5.7393 50.1439 5.58146 50.1072 5.396Z" fill="black"/>
<path d="M51.2469 22.2395C51.8639 22.334 52.0068 22.4825 52.265 23.0382C52.1016 23.3271 51.9815 23.4381 51.7462 23.6617C51.2292 23.9303 50.8762 23.4637 50.9424 22.9591C51.3107 22.6678 51.2574 22.7286 51.2469 22.2395Z" fill="black"/>
<path d="M47.4477 44.1577C47.2757 42.7436 48.5854 43.7005 48.6559 43.9583L48.6274 44.0892C48.563 44.1263 48.5402 44.1507 48.4682 44.144C48.0899 44.1335 47.8236 44.1273 47.4477 44.1577Z" fill="black"/>
<path d="M26.9923 47.709L27.0773 47.7985C27.0021 48.0224 26.0161 49.2736 25.8123 49.5403C25.6769 49.7175 25.5886 49.7856 25.3755 49.8023L25.2917 49.7237L25.2968 49.5913C25.401 49.3822 25.6952 49.2431 25.9065 49.1683L25.9555 49.1512C26.2717 48.6782 26.6555 48.1729 26.9923 47.709Z" fill="black"/>
<path d="M29.7431 45.0354L29.842 45.1047C29.2621 45.8708 28.7115 46.5797 28.1798 47.3818L28.0319 47.3075C28.5788 46.5402 29.1828 45.8027 29.7431 45.0354Z" fill="black"/>
<path d="M25.8669 50.1786C25.8418 50.22 25.816 50.261 25.7892 50.3015C25.6892 50.452 25.6062 50.5515 25.4238 50.5887C25.2649 50.5439 25.319 50.5834 25.226 50.4324C25.2599 50.1305 25.4918 49.9695 25.7896 49.9695L25.8669 50.1786Z" fill="black"/>
<path d="M21.5396 44.747C21.8093 44.7194 21.7943 44.6671 22.0116 44.5144C22.3655 44.7216 22.3282 44.7435 22.7338 44.8399C22.3074 44.8722 21.9917 44.8837 21.5643 44.8803L21.5396 44.747Z" fill="black"/>
<path d="M37.9021 36.7458C37.8642 36.6432 37.8331 36.5667 37.7867 36.4677L37.8217 36.3996C37.9776 36.3764 38.1509 36.3974 38.3095 36.4094C38.0657 36.5365 38.0995 36.5437 38.144 36.8094L38.0889 36.8925L38.131 36.9311C38.036 36.9188 37.9942 36.7711 37.9021 36.7458Z" fill="black"/>
<path d="M47.4478 44.1576C47.8237 44.1271 48.09 44.1334 48.4683 44.1439C48.2444 44.1994 48.2587 44.161 48.1152 44.3027C47.8856 44.2398 47.746 44.2646 47.5068 44.2835L47.4478 44.1576Z" fill="black"/>
<path d="M29.8571 44.2261L29.936 44.2952C29.8342 44.4735 29.5695 44.8152 29.3885 44.9162C29.4195 44.7077 29.633 44.6255 29.6849 44.4303C29.6941 44.3955 29.6022 44.3886 29.6339 44.2546C29.7879 44.2874 29.7291 44.2972 29.8571 44.2261Z" fill="black"/>
<path d="M40.2594 33.4588C40.2223 33.1853 40.2811 32.9253 40.5401 32.7803C40.5714 33.0484 40.4129 33.2503 40.2594 33.4588Z" fill="black"/>
<path d="M48.7818 45.7458L48.8785 45.8523C48.8714 46.05 48.8571 46.2795 48.8614 46.4744L48.738 46.3216C48.7313 46.155 48.7632 45.918 48.7818 45.7458Z" fill="black"/>
<path d="M7.07434 47.4198C7.0975 47.1707 7.19698 46.9297 7.38174 46.7568C7.43077 46.9226 7.09683 47.3022 7.13656 47.5456C7.13547 47.5389 7.12499 47.6913 7.12418 47.7051L7.07434 47.4198Z" fill="black"/>
<path d="M37.8248 45.423C37.8283 45.2665 37.8668 45.1295 37.9026 44.9779L37.9301 44.9709C38.0119 45.0262 38.0268 45.1865 38.0695 45.3176L37.8248 45.423Z" fill="black"/>
<path d="M38.0906 38.4622L38.323 38.4177C38.1657 38.6502 38.3215 38.6577 38.2011 38.9489C38.1675 38.7847 38.1378 38.623 38.0906 38.4622Z" fill="black"/>
</g>
<path d="M23.6074 68.0486C23.6074 68.5271 23.5117 68.9509 23.334 69.3064C23.1494 69.6687 22.8896 69.9626 22.5479 70.1814C22.2061 70.4001 21.8164 70.5642 21.3652 70.6736C20.9141 70.783 20.4014 70.8308 19.8408 70.8308C18.9248 70.8308 18.1865 70.7966 17.6191 70.7214V60.9597C18.2891 60.8914 18.9658 60.8503 19.6357 60.8503C22.0557 60.8503 23.2725 61.7048 23.2725 63.4001C23.2725 63.8923 23.1357 64.3435 22.8623 64.7605C22.5889 65.1843 22.2129 65.4919 21.7344 65.697C22.3086 65.8474 22.7666 66.1414 23.1016 66.5789C23.4365 67.0164 23.6074 67.5017 23.6074 68.0486ZM20.1484 66.2371H18.8359V69.8123C19.1572 69.8533 19.5879 69.8669 20.1211 69.8669C20.415 69.8669 20.6885 69.8328 20.9482 69.7576C21.208 69.6892 21.4404 69.5798 21.6455 69.4363C21.8506 69.2996 22.0078 69.1082 22.1309 68.8689C22.2471 68.6296 22.3086 68.3562 22.3086 68.0486C22.3086 67.823 22.2744 67.6111 22.2061 67.406C22.1377 67.2078 22.0283 67.0164 21.8779 66.8318C21.7275 66.6541 21.502 66.5105 21.208 66.4011C20.9072 66.2917 20.5586 66.2371 20.1484 66.2371ZM18.8359 61.8757V65.3005H20.0117C20.6406 65.3005 21.1328 65.157 21.4883 64.8562C21.8438 64.5623 22.0283 64.1042 22.0283 63.4822C22.0283 62.9626 21.8506 62.5525 21.4951 62.2585C21.1396 61.9646 20.6064 61.8142 19.9023 61.8142C19.5879 61.8142 19.2324 61.8347 18.8359 61.8757ZM30.915 70.8582C30.6006 70.8582 30.334 70.7625 30.1289 70.571C29.9238 70.3796 29.8213 70.0994 29.8213 69.7234C29.5889 70.0789 29.2812 70.3591 28.9121 70.5642C28.543 70.7693 28.1328 70.8718 27.6816 70.8718C26.1299 70.8718 25.3574 69.9626 25.3574 68.1306V63.3591H26.5605V67.8367C26.5605 68.4792 26.6973 68.9919 26.9707 69.3679C27.2441 69.7507 27.5928 69.9353 28.0029 69.9353C28.5225 69.9353 28.9326 69.7644 29.2471 69.4158C29.5547 69.0671 29.7119 68.657 29.7119 68.1853V63.3591H30.915V69.491C30.915 69.6619 30.9629 69.7917 31.0586 69.8806C31.1543 69.9763 31.2773 70.0173 31.4277 70.0173C31.5986 70.0173 31.7832 69.9558 31.9746 69.8259V69.949C31.9746 70.1814 31.8652 70.3933 31.6602 70.5779C31.4551 70.7693 31.2021 70.8582 30.915 70.8582ZM37.3613 68.7322C37.3613 69.4021 37.1357 69.9285 36.6914 70.3113C36.2402 70.6941 35.666 70.8855 34.9551 70.8855C34.5312 70.8855 34.1211 70.824 33.7109 70.6941C33.3008 70.571 32.9453 70.3933 32.6309 70.1746L32.9795 69.3337C33.6221 69.7644 34.2852 69.9763 34.9551 69.9763C35.3311 69.9763 35.6455 69.8738 35.9053 69.6687C36.1582 69.4636 36.2881 69.1765 36.2881 68.8142C36.2881 68.6707 36.2539 68.5408 36.1924 68.4177C36.124 68.2947 36.0557 68.199 35.9736 68.1169C35.8916 68.0417 35.7686 67.9597 35.6045 67.8708C35.4336 67.7888 35.29 67.7205 35.1807 67.6794C35.0645 67.6384 34.8936 67.5701 34.6748 67.488C34.4424 67.406 34.251 67.3308 34.1006 67.2625C33.9434 67.1941 33.7725 67.0984 33.5811 66.9753C33.3896 66.8523 33.2324 66.7156 33.123 66.5789C33.0068 66.4421 32.9111 66.2644 32.8291 66.0525C32.7471 65.8406 32.7129 65.6013 32.7129 65.3416C32.7129 64.6853 32.9316 64.1726 33.3691 63.7898C33.8066 63.407 34.3672 63.2156 35.0645 63.2156C35.748 63.2156 36.4453 63.3933 37.1562 63.7488L37.1221 63.8992C37.0811 64.1316 37.0195 64.282 36.9375 64.364C36.8555 64.446 36.7393 64.4871 36.5957 64.4871C36.5273 64.4871 36.3291 64.4255 35.9873 64.3025C35.6455 64.1794 35.3584 64.1111 35.1123 64.1111C34.7295 64.1111 34.4082 64.2136 34.1621 64.405C33.916 64.6033 33.793 64.8835 33.793 65.2458C33.793 65.5876 33.9023 65.8406 34.1348 66.0183C34.3672 66.196 34.7979 66.4011 35.4336 66.6335C35.5908 66.6951 35.7275 66.7498 35.8369 66.7908C35.9463 66.8318 36.0693 66.8933 36.2197 66.9617C36.3633 67.0369 36.4863 67.1121 36.582 67.1804C36.6777 67.2488 36.7803 67.3376 36.8896 67.447C36.999 67.5564 37.0811 67.6658 37.1426 67.7888C37.2041 67.9119 37.2588 68.0486 37.2998 68.2126C37.3408 68.3767 37.3613 68.5476 37.3613 68.7322ZM40.2871 61.3972C40.2871 61.5886 40.2188 61.7527 40.0889 61.8894C39.959 62.0261 39.7949 62.0945 39.6035 62.0945C39.4121 62.0945 39.248 62.0261 39.1113 61.8894C38.9746 61.7527 38.9131 61.5886 38.9131 61.3972C38.9131 61.2195 38.9746 61.0554 39.1113 60.9187C39.248 60.782 39.4121 60.7136 39.6035 60.7136C39.7949 60.7136 39.959 60.782 40.0889 60.9187C40.2188 61.0554 40.2871 61.2126 40.2871 61.3972ZM40.2188 63.3591V69.4636C40.2188 69.6414 40.2666 69.7712 40.3623 69.8601C40.458 69.949 40.5879 69.99 40.7383 69.99C40.9229 69.99 41.1006 69.9285 41.2783 69.7986V69.9216C41.2783 70.2087 41.1758 70.4343 40.9775 70.5916C40.7725 70.7556 40.5264 70.8308 40.2324 70.8308C39.7676 70.8308 39.4463 70.6667 39.2754 70.3386C39.0977 70.0105 39.0156 69.4978 39.0156 68.8005V63.3591H40.2188ZM48.0732 66.1824V69.4636C48.0732 69.6345 48.1211 69.7644 48.2168 69.8533C48.3125 69.949 48.4355 69.99 48.5859 69.99C48.7568 69.99 48.9414 69.9285 49.1328 69.7986V69.908C49.1328 70.1951 49.0303 70.4207 48.832 70.5847C48.627 70.7488 48.3809 70.8308 48.0869 70.8308C47.7451 70.8308 47.458 70.7283 47.2256 70.5095C46.9863 70.2976 46.8701 69.9695 46.8701 69.532V66.073C46.8701 64.8152 46.3916 64.1794 45.4414 64.1794C44.9082 64.1794 44.4844 64.3572 44.1768 64.7126C43.8691 65.0681 43.7188 65.4988 43.7188 65.991V70.7625H42.5156V63.3591H43.5752L43.6025 64.446C43.7939 64.0769 44.0811 63.7761 44.4639 63.5437C44.8467 63.3181 45.2773 63.2019 45.7627 63.2019C46.3369 63.2019 46.8154 63.3591 47.2119 63.6667C47.6084 63.9744 47.8613 64.4529 47.9844 65.0955C48.0391 65.4304 48.0732 65.7927 48.0732 66.1824ZM55.8184 65.1228C55.8184 65.574 55.6953 65.9636 55.4561 66.2986C55.2168 66.6335 54.8818 66.9001 54.4512 67.1052C54.0137 67.3103 53.5215 67.4607 52.9678 67.5632C52.4072 67.6726 51.7852 67.7273 51.1016 67.741C51.1973 68.4451 51.4502 68.9783 51.8604 69.3406C52.2705 69.7029 52.7627 69.8806 53.3438 69.8806C54.1299 69.8806 54.9023 69.5867 55.6543 68.9851C55.6543 69.5115 55.4014 69.9626 54.8955 70.3318C54.3896 70.7009 53.7744 70.8855 53.0635 70.8855C52.4482 70.8855 51.9014 70.7283 51.416 70.407C50.9307 70.0925 50.5547 69.655 50.2949 69.0945C50.0283 68.5408 49.8984 67.9187 49.8984 67.2351C49.8984 66.4968 50.0488 65.8132 50.3496 65.1912C50.6504 64.5759 51.0674 64.0906 51.5869 63.7351C52.1064 63.3796 52.6738 63.2019 53.2891 63.2019C54.0752 63.2019 54.6904 63.3865 55.1416 63.7556C55.5928 64.1248 55.8184 64.5759 55.8184 65.1228ZM53.3574 64.0701C52.7695 64.0701 52.25 64.3367 51.792 64.8562C51.3271 65.3826 51.0879 66.0525 51.0605 66.8591C52.3184 66.8591 53.2686 66.6814 53.918 66.3123C54.1572 66.1755 54.3418 66.0046 54.4717 65.7927C54.6016 65.5808 54.6699 65.3621 54.6699 65.1365C54.6699 64.8425 54.5537 64.5896 54.335 64.3845C54.1162 64.1794 53.7881 64.0701 53.3574 64.0701ZM61.8887 68.7322C61.8887 69.4021 61.6631 69.9285 61.2188 70.3113C60.7676 70.6941 60.1934 70.8855 59.4824 70.8855C59.0586 70.8855 58.6484 70.824 58.2383 70.6941C57.8281 70.571 57.4727 70.3933 57.1582 70.1746L57.5068 69.3337C58.1494 69.7644 58.8125 69.9763 59.4824 69.9763C59.8584 69.9763 60.1729 69.8738 60.4326 69.6687C60.6855 69.4636 60.8154 69.1765 60.8154 68.8142C60.8154 68.6707 60.7812 68.5408 60.7197 68.4177C60.6514 68.2947 60.583 68.199 60.501 68.1169C60.4189 68.0417 60.2959 67.9597 60.1318 67.8708C59.9609 67.7888 59.8174 67.7205 59.708 67.6794C59.5918 67.6384 59.4209 67.5701 59.2021 67.488C58.9697 67.406 58.7783 67.3308 58.6279 67.2625C58.4707 67.1941 58.2998 67.0984 58.1084 66.9753C57.917 66.8523 57.7598 66.7156 57.6504 66.5789C57.5342 66.4421 57.4385 66.2644 57.3564 66.0525C57.2744 65.8406 57.2402 65.6013 57.2402 65.3416C57.2402 64.6853 57.459 64.1726 57.8965 63.7898C58.334 63.407 58.8945 63.2156 59.5918 63.2156C60.2754 63.2156 60.9727 63.3933 61.6836 63.7488L61.6494 63.8992C61.6084 64.1316 61.5469 64.282 61.4648 64.364C61.3828 64.446 61.2666 64.4871 61.123 64.4871C61.0547 64.4871 60.8564 64.4255 60.5146 64.3025C60.1729 64.1794 59.8857 64.1111 59.6396 64.1111C59.2568 64.1111 58.9355 64.2136 58.6895 64.405C58.4434 64.6033 58.3203 64.8835 58.3203 65.2458C58.3203 65.5876 58.4297 65.8406 58.6621 66.0183C58.8945 66.196 59.3252 66.4011 59.9609 66.6335C60.1182 66.6951 60.2549 66.7498 60.3643 66.7908C60.4736 66.8318 60.5967 66.8933 60.7471 66.9617C60.8906 67.0369 61.0137 67.1121 61.1094 67.1804C61.2051 67.2488 61.3076 67.3376 61.417 67.447C61.5264 67.5564 61.6084 67.6658 61.6699 67.7888C61.7314 67.9119 61.7861 68.0486 61.8271 68.2126C61.8682 68.3767 61.8887 68.5476 61.8887 68.7322ZM67.8086 68.7322C67.8086 69.4021 67.583 69.9285 67.1387 70.3113C66.6875 70.6941 66.1133 70.8855 65.4023 70.8855C64.9785 70.8855 64.5684 70.824 64.1582 70.6941C63.748 70.571 63.3926 70.3933 63.0781 70.1746L63.4268 69.3337C64.0693 69.7644 64.7324 69.9763 65.4023 69.9763C65.7783 69.9763 66.0928 69.8738 66.3525 69.6687C66.6055 69.4636 66.7354 69.1765 66.7354 68.8142C66.7354 68.6707 66.7012 68.5408 66.6396 68.4177C66.5713 68.2947 66.5029 68.199 66.4209 68.1169C66.3389 68.0417 66.2158 67.9597 66.0518 67.8708C65.8809 67.7888 65.7373 67.7205 65.6279 67.6794C65.5117 67.6384 65.3408 67.5701 65.1221 67.488C64.8896 67.406 64.6982 67.3308 64.5479 67.2625C64.3906 67.1941 64.2197 67.0984 64.0283 66.9753C63.8369 66.8523 63.6797 66.7156 63.5703 66.5789C63.4541 66.4421 63.3584 66.2644 63.2764 66.0525C63.1943 65.8406 63.1602 65.6013 63.1602 65.3416C63.1602 64.6853 63.3789 64.1726 63.8164 63.7898C64.2539 63.407 64.8145 63.2156 65.5117 63.2156C66.1953 63.2156 66.8926 63.3933 67.6035 63.7488L67.5693 63.8992C67.5283 64.1316 67.4668 64.282 67.3848 64.364C67.3027 64.446 67.1865 64.4871 67.043 64.4871C66.9746 64.4871 66.7764 64.4255 66.4346 64.3025C66.0928 64.1794 65.8057 64.1111 65.5596 64.1111C65.1768 64.1111 64.8555 64.2136 64.6094 64.405C64.3633 64.6033 64.2402 64.8835 64.2402 65.2458C64.2402 65.5876 64.3496 65.8406 64.582 66.0183C64.8145 66.196 65.2451 66.4011 65.8809 66.6335C66.0381 66.6951 66.1748 66.7498 66.2842 66.7908C66.3936 66.8318 66.5166 66.8933 66.667 66.9617C66.8105 67.0369 66.9336 67.1121 67.0293 67.1804C67.125 67.2488 67.2275 67.3376 67.3369 67.447C67.4463 67.5564 67.5283 67.6658 67.5898 67.7888C67.6514 67.9119 67.7061 68.0486 67.7471 68.2126C67.7881 68.3767 67.8086 68.5476 67.8086 68.7322ZM79.252 68.0486C79.252 68.5271 79.1562 68.9509 78.9785 69.3064C78.7939 69.6687 78.5342 69.9626 78.1924 70.1814C77.8506 70.4001 77.4609 70.5642 77.0098 70.6736C76.5586 70.783 76.0459 70.8308 75.4854 70.8308C74.5693 70.8308 73.8311 70.7966 73.2637 70.7214V60.9597C73.9336 60.8914 74.6104 60.8503 75.2803 60.8503C77.7002 60.8503 78.917 61.7048 78.917 63.4001C78.917 63.8923 78.7803 64.3435 78.5068 64.7605C78.2334 65.1843 77.8574 65.4919 77.3789 65.697C77.9531 65.8474 78.4111 66.1414 78.7461 66.5789C79.0811 67.0164 79.252 67.5017 79.252 68.0486ZM75.793 66.2371H74.4805V69.8123C74.8018 69.8533 75.2324 69.8669 75.7656 69.8669C76.0596 69.8669 76.333 69.8328 76.5928 69.7576C76.8525 69.6892 77.085 69.5798 77.29 69.4363C77.4951 69.2996 77.6523 69.1082 77.7754 68.8689C77.8916 68.6296 77.9531 68.3562 77.9531 68.0486C77.9531 67.823 77.9189 67.6111 77.8506 67.406C77.7822 67.2078 77.6729 67.0164 77.5225 66.8318C77.3721 66.6541 77.1465 66.5105 76.8525 66.4011C76.5518 66.2917 76.2031 66.2371 75.793 66.2371ZM74.4805 61.8757V65.3005H75.6562C76.2852 65.3005 76.7773 65.157 77.1328 64.8562C77.4883 64.5623 77.6729 64.1042 77.6729 63.4822C77.6729 62.9626 77.4951 62.5525 77.1396 62.2585C76.7842 61.9646 76.251 61.8142 75.5469 61.8142C75.2324 61.8142 74.877 61.8347 74.4805 61.8757ZM86.5049 63.3113V69.4294C86.5049 69.6482 86.5596 69.7986 86.6689 69.8943C86.7646 69.9763 86.8809 70.0173 87.0244 70.0173C87.2021 70.0173 87.373 69.949 87.5508 69.8123V69.9353C87.5508 70.2292 87.4482 70.4548 87.25 70.6189C87.0518 70.783 86.8057 70.8582 86.5049 70.8582C86.2178 70.8582 85.9717 70.783 85.7598 70.6189C85.541 70.4617 85.4248 70.2087 85.4111 69.8669L85.3975 69.614C85.1719 70.0242 84.8643 70.3386 84.4746 70.5574C84.0781 70.7761 83.6338 70.8855 83.1279 70.8855C82.3623 70.8855 81.7061 70.5437 81.1729 69.8464C80.6396 69.1492 80.373 68.2195 80.373 67.0505C80.373 66.3328 80.5098 65.6833 80.7832 65.1091C81.0566 64.5349 81.4668 64.0769 82.0137 63.7351C82.5605 63.3933 83.21 63.2156 83.9551 63.2156C84.3105 63.2156 84.7002 63.2566 85.1172 63.3386C85.5342 63.4207 85.8076 63.4548 85.9307 63.4548C86.0947 63.4548 86.2861 63.407 86.5049 63.3113ZM85.3018 64.323C84.9326 64.1863 84.502 64.1111 83.9961 64.1111C83.5791 64.1111 83.21 64.1931 82.8955 64.3503C82.5811 64.5144 82.3281 64.7332 82.1436 65.0066C81.9521 65.2869 81.8154 65.6013 81.7266 65.9431C81.6309 66.2849 81.5898 66.6609 81.5898 67.0642C81.5898 67.9734 81.7744 68.6843 82.1572 69.1902C82.5332 69.696 82.9775 69.949 83.4834 69.949C84.0166 69.949 84.4473 69.7781 84.7891 69.4226C85.1309 69.074 85.3018 68.5476 85.3018 67.8503V64.323ZM93.1768 67.8777V63.3591H94.3799V68.6912C94.3799 69.2996 94.3662 69.8054 94.3525 70.2156C94.3115 71.282 94.0312 72.116 93.5186 72.7039C92.999 73.2986 92.2539 73.5925 91.2695 73.5925C91.0098 73.5925 90.7227 73.5652 90.4082 73.4968C90.0938 73.4353 89.8477 73.3464 89.6631 73.2234C89.2803 72.991 89.0889 72.7175 89.0889 72.4167C89.0889 72.2322 89.1709 72.0476 89.335 71.8699C89.9229 72.3894 90.5518 72.6492 91.2148 72.6492C91.9121 72.6492 92.4111 72.4509 92.7188 72.0408C93.0195 71.6306 93.1768 70.9675 93.1768 70.0515V69.6003C92.9648 69.9285 92.6846 70.1882 92.3291 70.3796C91.9736 70.571 91.5703 70.6667 91.1328 70.6667C90.5586 70.6667 90.0732 70.5164 89.6768 70.2087C89.2803 69.9011 89.0205 69.4226 88.9043 68.7732C88.8496 68.4656 88.8223 68.1033 88.8223 67.6794V63.3591H90.0254V67.8503C90.0254 68.5271 90.1416 69.0125 90.3877 69.2996C90.627 69.5935 90.9688 69.7371 91.4131 69.7371C91.9463 69.7371 92.3701 69.5525 92.6914 69.1833C93.0127 68.8142 93.1768 68.3767 93.1768 67.8777Z" fill="black"/>
<defs>
<clipPath id="clip0_352_606">
<rect width="95.5254" height="51.76" fill="white"/>
</clipPath>
</defs>
</svg>
