<svg width="96" height="75" viewBox="0 0 96 75" fill="none" xmlns="http://www.w3.org/2000/svg">
<g clip-path="url(#clip0_380_2064)">
<path d="M74.7191 0.0668945C76.5891 0.346112 83.8134 1.34859 84.883 2.82322C85.0883 3.10648 85.2565 3.4152 85.4714 3.69216C86.4634 4.96974 87.7255 6.27152 88.341 7.78668C88.1509 8.23744 87.8246 8.86018 87.6683 9.2644C87.8841 9.81642 88.1452 10.7121 88.3081 11.2992C88.0732 11.691 87.9208 11.757 87.6726 12.0735C87.8388 12.3229 88.1547 12.7706 88.2834 13.0183C87.3524 13.8254 86.8069 15.0619 86.1999 16.1149C86.0627 16.3529 85.8792 16.7416 85.7311 16.9553C84.0292 17.1702 83.599 17.6793 83.4551 19.3863C83.3198 19.273 83.1488 19.1003 82.9853 19.0749C82.7943 19.1478 82.3378 19.8025 82.2168 20.0221C81.9696 20.471 80.7208 21.3778 80.2234 21.135C80.2072 21.0388 80.1991 20.9856 80.1705 20.8927C79.7708 20.863 79.1076 21.4871 78.9275 21.8327C79.3339 22.7097 79.6579 23.2854 80.3025 24.0236C80.6079 24.3731 81.0376 24.782 81.2739 25.1641C81.2906 26.7313 81.8867 27.8031 83.0549 28.8304C83.2397 28.9926 83.397 30.2992 83.4513 30.6094C83.7958 30.6199 84.0826 30.634 84.4266 30.6032C84.6734 30.3153 84.8244 30.188 85.1136 29.9418C85.1808 29.7259 85.2318 29.5515 85.2775 29.3317C85.3323 29.0686 85.3185 27.9852 85.4323 27.8537L85.59 27.8122C85.5996 27.5588 85.3123 27.418 85.3671 27.065C85.4171 26.6874 85.5553 26.2994 85.6258 25.9281C85.7058 25.5027 85.9031 24.9624 85.9307 24.5433C85.9755 23.8602 85.8178 22.7914 85.642 22.1353C86.4643 22.245 87.0651 22.555 87.9175 22.5567C88.8661 22.5585 89.7017 22.373 90.637 22.2505C91.8476 22.0918 93.0897 22.5659 94.3046 22.5485C94.4623 22.5463 94.6572 22.5476 94.814 22.5575C94.9135 23.0289 95.0183 23.4993 95.1289 23.9684C94.3223 24.9654 95.2885 24.8699 95.3628 25.3126C95.5191 26.2419 95.0007 28.1007 94.4809 28.9121C94.6615 29.0719 95.0074 29.3575 94.733 29.5736C93.862 30.2602 93.5952 31.0491 93.1512 32.0572C93.2703 32.1622 93.5233 32.3611 93.5075 32.5099C93.4494 33.0692 92.7748 34.3608 92.5204 34.8532L92.7919 35.1351L92.7781 35.1191C92.2721 35.5654 92.1249 36.0251 91.8748 36.6379C92.0534 37.0965 92.1082 37.5486 92.2202 38.0271C92.0825 38.0328 91.7209 38.0319 91.6194 38.0867C91.2821 39.3137 91.203 39.264 90.2839 40.1697C90.2801 40.681 90.2878 41.3486 90.2477 41.8448C90.5808 41.8872 90.6675 41.9038 90.9591 42.061C91.3807 42.2885 91.7147 43.0905 91.5837 43.5434C92.2045 43.54 92.8286 43.4947 93.437 43.4918C93.4523 44.1219 93.5542 47.1489 93.459 47.5919C94.1121 48.755 94.8168 50.2858 95.46 51.3588C94.985 51.3584 94.8849 51.3212 94.4428 51.0664C94.3799 51.124 94.2008 51.3136 94.1183 51.3145C93.0659 51.3307 91.9815 51.3769 90.9324 51.2826C90.1953 51.2169 89.4983 50.8811 88.7622 51.1507C87.4987 51.6127 86.2099 50.7825 84.9359 51.1683C84.579 51.275 84.1545 51.3874 84.0878 50.8664C84.1378 50.5792 84.3451 50.4858 84.3513 50.2872C83.9973 50.2424 83.4346 50.1462 83.4265 49.6723C83.6033 49.4737 83.6919 49.6718 83.7434 49.4546C83.6466 49.1227 83.5261 48.844 83.4251 48.5268C82.2769 49.3389 80.7889 50.2667 79.5873 51.0059C79.7184 50.8268 79.8522 50.6668 79.9185 50.4544L79.8994 50.3462C79.2305 50.0333 78.4467 50.7925 78.168 51.3312C78.1347 51.3955 77.6096 51.3217 77.5539 51.2493C77.2552 51.1345 76.9736 50.7782 76.7635 50.7197L76.7053 50.7668C76.702 51.1812 77.1098 51.2802 77.0417 51.6465C76.7235 51.8261 75.1212 51.1493 74.7319 50.9926C74.1216 51.7708 74.0897 51.7432 73.1125 51.6908C72.89 51.4741 72.6747 51.2502 72.466 51.0202L72.1658 51.3007C71.6408 51.2736 71.0605 51.1969 70.5392 51.1164C69.371 50.9364 68.1594 50.834 66.9964 50.6363C66.6562 50.7682 66.298 50.9016 65.9654 51.0483C66.1512 50.8378 66.4814 50.5682 66.2422 50.311C66.0778 50.2448 65.9054 50.2653 65.7262 50.27C65.499 50.4906 65.4089 50.5687 65.1473 50.753C64.457 49.4223 63.657 49.6447 62.4702 49.1851C61.8771 48.3973 61.3282 48.1906 60.6226 47.6181C60.3586 47.4781 60.1838 47.3618 59.9379 47.1966C59.6368 47.0623 58.6796 46.5626 58.5586 46.2719C58.5739 45.9937 58.9026 45.77 58.8921 45.5052C58.885 45.3207 58.3723 45.1718 58.2499 45.0629C57.5838 44.4704 56.4361 43.3285 56.0149 42.5496C54.5985 42.5397 54.8781 42.2264 54.3812 43.4892L54.4007 43.5462C54.4917 43.5145 54.5651 43.4913 54.6585 43.4655C54.738 43.5605 54.7133 43.5056 54.7199 43.6415C54.618 43.6843 54.5861 43.674 54.4722 43.6684C54.4946 43.7743 54.5089 43.7929 54.5613 43.8898L54.5089 43.9602C54.3845 43.9466 54.3698 43.9379 54.2525 43.8902L54.1844 43.9313C54.193 44.1174 54.2502 44.3228 54.1744 44.4451C54.0991 44.3869 54.0415 44.3384 53.97 44.2752L53.9067 44.3074C53.8871 44.4571 53.9128 44.5293 53.9438 44.6755C53.7261 44.7559 53.5693 44.4695 53.4278 44.7219C53.5017 44.9253 53.5479 44.8356 53.6818 44.998C53.5222 45.2026 53.4431 45.3073 53.2525 45.4797L53.1972 45.4744L53.1953 45.2903L53.1343 45.2488L53.0896 45.291C53.1901 45.8184 52.9647 46.0044 53.0129 46.262C53.2172 46.2315 53.1815 46.0789 53.3092 46.1515L53.3082 46.2646C53.2149 46.3398 53.1386 46.402 53.0514 46.4845L53.0848 46.5441C53.1829 46.5298 53.2811 46.5136 53.3788 46.496L53.4331 46.5536C53.3325 46.7717 53.1901 46.7141 53.1396 46.8927C53.3416 47.0565 53.7699 46.7546 54.1639 46.9346C54.3183 46.7465 54.2154 46.4386 54.0629 46.2744C53.9753 46.267 53.9734 46.2679 53.8862 46.2825C53.8866 45.9274 54.3069 45.9358 54.1044 45.3686L54.1587 45.3583C54.2668 45.4426 54.294 45.4544 54.3631 45.5687L54.3702 45.5063L54.3226 45.504C54.4269 45.401 54.3917 45.219 54.5556 44.9507C54.5894 45.1386 54.5389 45.2257 54.6342 45.3304C54.9686 45.1056 54.6875 45.0765 54.8281 44.8055L54.9715 44.7686C55.1192 44.8629 55.1492 45.0849 55.336 45.2572C55.9511 45.8256 56.6776 45.596 57.388 45.7736C57.5457 45.8131 57.4838 47.5743 57.46 47.7843C56.3236 47.9429 54.5432 47.7915 53.373 47.8081C51.8789 47.8291 50.3896 47.8696 48.895 47.8872C48.8935 47.5304 48.9083 46.8122 48.8616 46.4745C48.8573 46.2796 48.8716 46.0501 48.8788 45.8524C49.5972 45.5302 50.8231 46.0053 51.19 44.8587C51.2343 44.7203 51.3029 44.6115 51.2472 44.4744C51.1319 44.4697 51.0728 44.4657 50.9594 44.4446C50.9303 44.2892 51.1214 43.9538 51.129 43.8665C51.2095 42.5763 51.1957 41.1936 51.1166 39.895C51.0156 38.2342 49.6311 38.7395 48.7334 38.4559C48.5576 38.1646 48.6391 36.8975 48.6548 36.498C49.8907 36.5119 52.747 36.2448 53.7599 36.5317C53.8423 36.6455 53.9767 36.7957 53.9877 36.924C53.8971 36.9751 53.8157 37.0249 53.7275 37.0801C53.5655 37.4559 53.9896 37.6564 53.8185 37.937C53.7432 37.8845 53.7008 37.8492 53.6132 37.8174C53.6108 38.0645 53.7914 38.1169 53.7809 38.264C53.7718 38.389 53.6775 38.3786 53.7223 38.6212L53.8681 38.5763C54.0029 38.6346 54.0872 38.8536 54.1916 39.0173C54.1468 38.7094 54.1115 38.456 54.0906 38.1445C54.0853 37.8408 54.0553 37.517 54.0334 37.2126C54.0343 36.9049 54.0929 36.6703 54.1616 36.3751C54.2144 36.1104 54.2835 35.8479 54.3493 35.586C54.4412 35.5976 54.5337 35.6071 54.6266 35.6145C54.9139 35.6385 55.6609 35.6877 55.9282 35.6458C56.742 35.5182 60.3057 36.1866 58.6501 34.3951C57.711 34.2527 57.4037 34.1064 56.9873 33.2376C57.0507 33.1091 57.1179 33.0066 57.1179 32.8668C56.9378 32.8026 57.0645 32.9165 56.8525 32.9258C56.4556 32.4489 55.6052 30.5425 55.3865 29.9179C55.487 29.6819 55.5818 29.4436 55.6709 29.2032L55.3812 28.9293C56.3408 28.1055 56.8744 26.7142 57.5676 25.7326C57.7263 25.8622 57.9097 26.0414 58.1041 26.075C58.3218 26.022 58.5467 25.6525 58.7011 25.4648C59.4386 24.5699 60.3967 23.7233 61.393 23.1255C62.4474 22.4927 63.2964 21.7377 64.1583 20.8684C64.4351 20.5893 64.841 20.2501 65.0559 19.925C64.8372 19.4659 63.9062 18.1486 63.5737 17.6847C63.1472 17.0899 62.525 16.092 62.0895 15.5534L62.415 15.1886L62.4264 14.501C61.8051 13.7924 60.6783 12.6432 61.4649 11.6622C61.4211 10.8775 61.3172 10.1161 61.232 9.33699C61.1776 8.84089 61.0295 8.25615 61.6465 8.15975C61.7751 7.88927 61.5683 7.43318 61.4787 7.10916C61.9538 5.30919 62.8709 3.12726 64.9677 2.90577C65.6052 2.29772 66.1707 1.7025 66.9969 1.35061C68.2295 0.825345 69.1947 0.627053 70.4763 1.11953L70.5245 0.461763C70.6441 0.583554 70.8032 0.755383 70.9275 0.863695C71.3049 0.76127 72.0634 0.431834 72.3764 0.492188C73.1659 0.644352 73.9191 0.733279 74.7114 0.82996L74.7191 0.0668945ZM67.6106 30.2529C67.5129 30.2714 67.359 30.2948 67.2675 30.3229C65.0845 30.9931 64.366 34.4401 63.7666 36.2309C64.2102 37.5168 64.6004 38.7892 65.0244 40.0786C65.6162 40.3062 65.6833 40.4709 65.7196 41.0841C65.8663 40.9623 66.0011 40.8214 66.1841 40.79C66.2851 40.8332 66.377 40.9027 66.3975 41.0133C66.5676 41.9278 67.1355 42.2224 68.0112 42.5771C68.0413 41.7798 68.0379 40.9423 68.0698 40.1488C68.1418 38.3375 66.9664 38.315 65.5647 38.2697C65.5433 37.5857 65.5547 36.901 65.5995 36.2181C68.7049 36.1319 71.9085 36.307 75.024 36.283C75.4271 36.2798 75.8254 36.3041 76.2294 36.2826C76.1303 35.9247 76.0764 35.2867 76.0321 34.8977L75.6434 35.1922C75.4514 35.1959 75.205 35.2079 75.0173 35.2013C74.7491 34.5628 74.3322 33.7753 74.1126 33.1692L74.1454 33.1044L74.3489 33.0959C74.2845 32.804 72.9862 30.6779 72.7485 30.2491C72.9643 30.0504 73.1678 29.899 72.8476 29.6415C72.4336 29.5542 72.3497 29.6968 72.1167 29.999C72.1191 29.6734 72.1115 29.2616 72.1315 28.9433C72.232 28.7895 72.3835 28.5925 72.404 28.418C72.2382 27.8541 71.5436 28.2527 71.4707 26.774C70.0833 27.3595 69.4811 28.0751 68.4848 29.2216C68.2009 29.5487 67.9245 29.961 67.6106 30.2529ZM73.7614 40.5191C74.2064 40.0419 74.2293 39.9118 74.3684 39.2695C74.7357 39.2663 76.1555 39.1951 76.368 39.3662C76.4895 39.7923 76.4138 41.6055 76.3885 42.1374C77.1847 41.4441 77.6863 41.0926 78.5639 40.5011L77.7978 40.4964C77.6721 39.8707 77.5853 39.318 77.2471 38.76C76.0474 38.0225 73.4937 38.4551 71.9157 38.3245C71.8204 38.4785 71.5622 38.8464 71.5622 38.9982C71.7999 39.0349 71.8342 38.9417 72.0195 39.0192C72.0467 39.2452 71.3964 41.0326 72.374 40.8859C72.395 40.8771 72.4159 40.8684 72.4369 40.8597C72.4836 40.582 72.505 40.582 72.8276 40.6102C73.2283 40.6453 73.3793 40.6014 73.7614 40.5191ZM57.46 47.7843C57.4838 47.5743 57.5457 45.8131 57.388 45.7736C56.6776 45.596 55.9511 45.8256 55.336 45.2572C55.1492 45.0849 55.1192 44.8629 54.9715 44.7686L54.8281 44.8055C54.6875 45.0765 54.9686 45.1056 54.6342 45.3304C54.5389 45.2257 54.5894 45.1386 54.5556 44.9507C54.3917 45.219 54.4269 45.401 54.3226 45.504L54.3702 45.5063L54.3631 45.5687C54.294 45.4544 54.2668 45.4426 54.1587 45.3583L54.1044 45.3686C54.3069 45.9358 53.8866 45.9274 53.8862 46.2825C53.9734 46.2679 53.9753 46.267 54.0629 46.2744C54.2154 46.4386 54.3183 46.7465 54.1639 46.9346C53.7699 46.7546 53.3416 47.0565 53.1396 46.8927C53.1901 46.7141 53.3325 46.7717 53.4331 46.5536L53.3788 46.496C53.2811 46.5136 53.1829 46.5298 53.0848 46.5441L53.0514 46.4845C53.1386 46.402 53.2149 46.3398 53.3082 46.2646L53.3092 46.1515C53.1815 46.0789 53.2172 46.2315 53.0129 46.262C52.9647 46.0044 53.1901 45.8184 53.0896 45.291L53.1343 45.2488L53.1953 45.2903L53.1972 45.4744L53.2525 45.4797C53.4431 45.3073 53.5222 45.2026 53.6818 44.998C53.5479 44.8356 53.5017 44.9253 53.4278 44.7219C53.5693 44.4695 53.7261 44.7559 53.9438 44.6755C53.9128 44.5293 53.8871 44.4571 53.9067 44.3074L53.97 44.2752C54.0415 44.3384 54.0991 44.3869 54.1744 44.4451C54.2502 44.3228 54.193 44.1174 54.1844 43.9313L54.2525 43.8902C54.3698 43.9379 54.3845 43.9466 54.5089 43.9602L54.5613 43.8898C54.5089 43.7929 54.4946 43.7743 54.4722 43.6684C54.5861 43.674 54.618 43.6843 54.7199 43.6415C54.7133 43.5056 54.738 43.5605 54.6585 43.4655C54.5651 43.4913 54.4917 43.5145 54.4007 43.5462L54.3812 43.4892C54.8781 42.2264 54.5985 42.5397 56.0149 42.5496C56.4361 43.3285 57.5838 44.4704 58.2499 45.0629C58.3723 45.1718 58.885 45.3207 58.8921 45.5052C58.9026 45.77 58.5739 45.9937 58.5586 46.2719C58.6796 46.5626 59.6368 47.0623 59.9379 47.1966C60.1838 47.3618 60.3586 47.4781 60.6226 47.6181C62.0043 48.1406 64.0963 48.3077 64.9801 46.8551C64.9687 46.7351 64.9482 46.6784 65.0078 46.5822C65.125 46.5322 65.1411 46.5236 65.2345 46.437C65.4027 45.9867 65.3455 45.0621 65.3413 44.5578C65.0954 44.503 64.9048 44.39 64.6776 44.3232C63.5498 43.992 64.3426 45.3147 63.95 45.9765C63.8467 46.0494 63.8052 46.0973 63.6632 46.081C63.0172 46.0066 63.192 45.447 63.1658 44.9717C63.122 44.1661 63.1606 42.9877 62.5617 42.3642C62.0186 41.7986 61.3482 41.7009 60.6064 41.6867C61.6955 41.3688 62.455 41.3959 63.2001 40.2573C63.5417 39.7351 63.5956 39.0667 63.4474 38.4626C63.2797 37.7883 62.8476 37.21 62.2482 36.858C61.8799 36.637 61.1834 36.4111 60.7465 36.3708C59.2147 36.2295 57.6586 36.384 56.1231 36.3656C55.6857 36.3603 55.2135 36.3573 54.7857 36.4526C54.6313 36.4869 54.779 36.8154 54.6961 36.9631L54.5236 36.8023C54.546 36.6505 54.5513 36.6205 54.5289 36.4696C54.3736 36.361 54.3779 36.394 54.1616 36.3751C54.0929 36.6703 54.0343 36.9049 54.0334 37.2126C54.0553 37.517 54.0853 37.8408 54.0906 38.1445C54.1115 38.456 54.1468 38.7094 54.1916 39.0173C54.0872 38.8536 54.0029 38.6346 53.8681 38.5763L53.7223 38.6212C53.6775 38.3786 53.7718 38.389 53.7809 38.264C53.7914 38.1169 53.6108 38.0645 53.6132 37.8174C53.7008 37.8492 53.7432 37.8845 53.8185 37.937C53.9896 37.6564 53.5655 37.4559 53.7275 37.0801C53.8157 37.0249 53.8971 36.9751 53.9877 36.924C53.9767 36.7957 53.8423 36.6455 53.7599 36.5317C52.747 36.2448 49.8907 36.5119 48.6548 36.498C48.6391 36.8975 48.5576 38.1646 48.7334 38.4559C49.6311 38.7395 51.0156 38.2342 51.1166 39.895C51.1957 41.1936 51.2095 42.5763 51.129 43.8665C51.1214 43.9538 50.9303 44.2892 50.9594 44.4446C51.0728 44.4657 51.1319 44.4697 51.2472 44.4744C51.3029 44.6115 51.2343 44.7203 51.19 44.8587C50.8231 46.0053 49.5972 45.5302 48.8788 45.8524C48.8716 46.0501 48.8573 46.2796 48.8616 46.4745C48.9083 46.8122 48.8935 47.5304 48.895 47.8872C50.3896 47.8696 51.8789 47.8291 53.373 47.8081C54.5432 47.7915 56.3236 47.9429 57.46 47.7843ZM77.3076 7.13488L77.0107 6.78729C76.4262 6.79415 75.7515 6.78248 75.1769 6.80539C73.4036 6.88855 72.3411 8.78478 71.8399 10.2738C72.0376 10.4962 72.3197 10.7952 72.4898 11.0216L71.8571 11.0318L71.8466 12.0061C72.8729 12.7732 73.7905 14.4581 74.4589 15.5818C74.8277 15.3409 75.2684 15.0332 75.591 14.7333C76.1536 14.2246 76.5972 13.5413 77.1008 12.9686C77.2928 12.7245 77.6525 12.7 77.8822 12.5451C78.6392 12.0352 78.7841 11.0787 78.8774 10.2462C78.9084 9.9704 78.674 8.67814 78.7012 8.64814C78.8522 8.74973 79.0409 8.90685 79.2062 8.91243C79.402 8.53397 78.471 7.18266 78.239 6.77538L77.6392 6.80115L77.3076 7.13488Z" fill="#EE6C03"/>
<path d="M54.8693 36.4151C55.5911 36.3533 56.3646 36.3622 57.0935 36.3638C58.8383 36.3678 61.1508 35.9645 62.6079 37.1166C63.6383 37.9312 63.8541 39.606 62.9574 40.5913C62.2543 41.3638 61.5763 41.4885 60.6137 41.6794C63.0809 41.7824 63.0913 43.0937 63.1752 45.1489C63.1862 45.4172 63.139 46.0363 63.4901 46.0571C64.3939 46.1109 63.9351 44.876 64.0666 44.2891C64.3058 44.2702 64.4454 44.2454 64.675 44.3084C64.9109 44.4209 65.1277 44.4981 65.3487 44.6001C65.3502 44.9081 65.3683 45.4631 65.3416 45.7515C65.323 45.9236 65.2911 46.1606 65.2977 46.3273C65.1 46.5605 65.1186 46.5715 64.9871 46.8154C64.717 47.305 64.1228 47.7398 63.5949 47.8756C62.2515 48.2214 59.8828 47.9437 59.5169 46.3118C59.4487 46.0075 59.2508 44.6988 59.3705 44.4903C59.4471 44.4814 59.4718 44.4773 59.5494 44.4845L59.6031 44.4899L59.5754 44.4109L59.3686 44.3376C59.2801 44.1972 59.3219 43.8328 59.2924 43.6555C59.259 43.4542 59.1629 43.2226 59.0895 43.0313C58.2335 42.3404 57.3863 42.5521 56.3529 42.5582C55.8348 42.5604 55.3166 42.5494 54.799 42.525C54.6495 42.6933 54.4376 43.2626 54.3685 43.4884L54.4089 43.5412L54.6772 43.4802L54.7166 43.5354L54.6839 43.6314C54.5894 43.6425 54.553 43.6416 54.4644 43.6823C54.5145 43.7934 54.5441 43.8352 54.5471 43.9542C54.4635 43.9948 54.354 43.9278 54.2081 43.9004C54.1398 43.9942 54.1954 44.2547 54.2009 44.4191C54.0671 44.4838 54.115 44.3034 53.927 44.272C53.8508 44.388 53.8958 44.553 53.908 44.7209C53.7724 44.6817 53.5624 44.594 53.4527 44.6303L53.4231 44.7598C53.4644 44.8805 53.5581 44.9218 53.6687 44.9976C53.5559 45.3734 53.0482 45.2768 53.0002 46.2521C53.1217 46.325 53.0947 46.1325 53.2922 46.1225C53.3084 46.2612 53.3176 46.1959 53.2613 46.3254C53.1633 46.3738 53.0895 46.3933 53.044 46.4886C53.1643 46.6339 53.1875 46.4518 53.3818 46.5415C53.3297 46.6839 53.1062 46.8706 52.9855 46.9854C53.3216 46.9644 53.5915 46.8906 53.9227 46.8539C54.0333 46.9035 54.0719 46.933 54.1885 46.9259C54.1899 46.7368 54.1917 46.3524 54.0962 46.2033C53.9995 46.2592 53.9648 46.2915 53.8572 46.2956C53.8601 46.1805 53.9844 46.0269 54.052 45.9257C54.2406 45.6431 54.193 45.6836 54.0859 45.3957L54.1197 45.3431L54.3124 45.5975L54.3744 45.579L54.3847 45.4286L54.6294 45.3232C54.8806 45.2521 54.6895 45.0527 54.8305 44.8394L54.9238 44.8244C55.1483 45.0493 55.4937 45.4081 55.7616 45.5575C56.1073 45.7502 57.1061 45.6091 57.4036 45.8337C57.5382 46.1902 57.4944 47.4074 57.4429 47.8094C56.1569 47.9303 54.6008 47.7984 53.3063 47.8146C51.8314 47.8337 50.3612 47.8751 48.8831 47.8899C48.8715 47.4426 48.7074 45.8532 49.0742 45.7981C49.8256 45.6851 50.2441 45.85 51.0191 45.2417C51.1236 44.996 51.2966 44.7375 51.1602 44.4956L50.9776 44.4478C50.8835 44.2996 51.1709 43.8989 51.1587 43.6877C51.0798 42.3144 51.3011 40.6763 50.9602 39.3544C50.6867 38.2937 49.3277 38.7231 48.6995 38.4481C48.5745 38.1597 48.6334 36.8985 48.6399 36.5215C50.1129 36.4076 51.714 36.479 53.1993 36.4215C53.3017 36.4176 53.6099 36.4966 53.7227 36.5238C53.8023 36.6216 53.8903 36.7509 53.9658 36.8551C53.9615 37.0099 53.8185 36.9765 53.7232 37.1045C53.5311 37.3625 53.9761 37.7574 53.7599 37.9677C53.691 37.8854 53.6731 37.8317 53.59 37.8105C53.6037 37.9718 53.6196 37.9748 53.7168 38.1084C53.8367 38.2731 53.7397 38.3507 53.7065 38.5513L53.8654 38.5745C53.9422 38.6353 54.143 38.9591 54.1328 38.9871C53.931 39.5464 54.4373 39.9486 54.6437 40.5607C54.4961 40.7701 54.4236 40.7386 54.424 40.9487C54.5162 40.9257 54.6126 40.8944 54.7041 40.8669C54.75 40.9786 54.7071 41.0377 54.6722 41.1784C54.6897 41.1306 55.0151 40.8753 55.102 40.7888C54.9877 40.6943 54.8401 40.5935 54.7761 40.4672C54.9343 40.387 55.0695 40.567 55.1394 40.5556C56.0909 40.4017 57.0419 40.6134 57.9941 40.4345C58.1735 40.4009 58.5837 40.3019 58.7441 40.3349C58.7952 40.3961 58.8285 40.4531 58.9022 40.4752C58.988 40.3911 59.026 40.3447 59.1006 40.25L59.295 40.2592C59.2404 39.8747 59.3246 39.877 59.5699 39.489C59.4787 39.2522 59.3868 38.971 59.2105 38.792L59.1898 38.7712C59.003 38.5806 58.6775 38.4514 58.4295 38.3349C57.7936 38.4829 57.3194 38.3582 56.7073 38.3919C56.1814 38.4208 55.8191 38.4585 55.2799 38.4554C55.3268 38.3005 55.3442 38.21 55.3723 38.0524C55.1837 38.2524 55.1581 38.3527 54.8829 38.4234L54.6505 38.4679C54.6158 38.3498 54.5658 38.2133 54.5259 38.0946C54.3884 38.0875 54.3031 38.0841 54.1653 38.057C54.2537 37.8426 54.3686 37.8413 54.6112 37.7355L54.7415 37.8408C54.8117 37.6885 54.5646 37.6489 54.5619 37.3322C54.6277 37.2571 54.6962 37.1844 54.7671 37.1142C54.6522 37.036 54.5787 37.0788 54.3986 37.0753C54.3523 36.9347 54.3941 36.9212 54.4619 36.7515C54.554 36.7768 54.5958 36.9245 54.6908 36.9368L54.6487 36.8982L54.7038 36.8151C54.6593 36.5494 54.6255 36.5422 54.8693 36.4151ZM54.7009 47.0044C54.7472 46.8077 54.8477 46.6034 54.8181 46.4474C54.7713 46.3925 54.7289 46.3306 54.6662 46.2992C54.691 46.8101 54.3813 46.4967 54.7009 47.0044Z" fill="white"/>
<path d="M54.1262 38.1108C54.1438 38.0202 54.2105 37.9101 54.2553 37.8255C54.5436 37.6922 54.6779 37.7539 54.9433 37.904L54.9438 38.0029L55.072 38.0035C55.1301 37.9003 55.1263 37.8697 55.1406 37.7489L55.2096 37.7129L55.2582 37.743L55.2587 37.93C55.314 37.9693 55.3116 37.9749 55.3778 37.9798C55.1782 38.3434 55.2063 38.2911 54.8437 38.4473C54.7546 38.7188 54.9104 38.971 54.8047 39.1562L54.7323 39.1394C54.6494 38.7592 54.7689 38.4363 54.514 38.1571C54.3992 38.0994 54.2501 38.0585 54.1262 38.1108Z" fill="white"/>
<path d="M54.1614 36.375C54.3777 36.3939 54.3734 36.361 54.5287 36.4695C54.5511 36.6204 54.5459 36.6504 54.5235 36.8022C54.4377 36.8833 54.3581 36.9497 54.2914 37.0472C54.4477 37.0609 54.6569 37.0477 54.7464 37.1401C54.674 37.2902 54.5968 37.3978 54.6307 37.5519C54.7407 37.7167 54.7788 37.7909 54.9432 37.9039C54.6778 37.7538 54.5435 37.6921 54.2552 37.8254C54.2104 37.91 54.1437 38.0201 54.1261 38.1107L54.0904 38.1444C54.0851 37.8407 54.0551 37.5169 54.0332 37.2125C54.0342 36.9048 54.0928 36.6702 54.1614 36.375Z" fill="white"/>
<path d="M54.4606 40.0323L54.5869 39.9954C54.7484 40.0942 54.8141 40.1522 54.8627 40.3514C54.878 40.4129 54.8894 40.4753 54.897 40.5381C54.9208 40.5984 54.9837 40.6378 55.0276 40.7102C55.1281 40.8764 54.8227 41.1151 54.6693 41.1689C54.7279 41.0365 54.7555 41.0052 54.7374 40.8684L54.6578 40.8409L54.4639 40.9857L54.4125 40.9585L54.4077 40.8627C54.4806 40.7682 54.5354 40.7103 54.6178 40.6236C54.6274 40.4824 54.5106 40.1832 54.4606 40.0323Z" fill="white"/>
<path d="M54.6733 46.2883C54.7419 46.3243 54.7771 46.3754 54.8281 46.4343C54.8605 46.5882 54.7643 46.7973 54.7228 46.9979C54.4046 46.4963 54.7171 46.7883 54.6733 46.2883Z" fill="white"/>
<path d="M54.7733 45.6245L54.8276 45.6662C54.8976 45.8141 54.8552 45.9728 54.8347 46.1435L54.7894 46.1065C54.7275 45.9837 54.7632 45.7741 54.7733 45.6245Z" fill="white"/>
<path d="M65.5995 36.2181C68.705 36.1319 71.9086 36.307 75.024 36.283C75.4271 36.2799 75.8254 36.3042 76.2294 36.2826C77.4434 36.3517 78.614 36.2971 79.8289 36.382L79.9113 36.4034C79.9428 36.944 79.929 37.4981 79.9233 38.0404L79.8184 38.0924C79.8132 38.8883 79.8037 39.6841 79.7898 40.4798C79.3863 40.4864 78.9651 40.4866 78.564 40.5011L77.7978 40.4965C77.6721 39.8707 77.5854 39.318 77.2471 38.76C76.0474 38.0225 73.4937 38.4552 71.9157 38.3245C71.8204 38.4785 71.5622 38.8464 71.5622 38.9983C71.7999 39.0349 71.8342 38.9418 72.0196 39.0192C72.0467 39.2452 71.3964 41.0327 72.374 40.8859C72.395 40.8772 72.416 40.8684 72.4369 40.8597C72.4836 40.5821 72.5051 40.582 72.8276 40.6103C73.2283 40.6454 73.3793 40.6014 73.7614 40.5191C74.2064 40.0419 74.2293 39.9119 74.3684 39.2695C74.7358 39.2663 76.1556 39.1951 76.368 39.3662C76.4895 39.7923 76.4138 41.6055 76.3885 42.1375C76.3652 43.0288 76.2828 43.8415 76.2728 44.7454C75.5962 44.7467 74.8949 44.7577 74.2202 44.7478C73.9954 43.7343 73.6128 43.6646 72.6294 43.5153L72.6742 43.355C72.375 43.3504 72.0696 43.3389 71.7704 43.3306L71.7132 43.446C71.7809 43.8137 71.7037 45.1833 71.7032 45.6475C72.4188 45.672 73.1659 45.6411 73.8896 45.6581C74.6219 45.6516 75.388 45.7754 76.116 45.6823C77.2971 45.5312 77.5167 44.5559 77.6635 43.5957C78.3257 43.5917 78.999 43.5795 79.6598 43.6088C79.6998 44.2271 79.646 44.9291 79.6393 45.5536C79.6312 46.2922 79.636 47.0361 79.6083 47.7734C78.2695 47.6972 76.531 47.72 75.1474 47.6929L65.3551 47.5695C65.3289 46.9737 65.3927 46.2929 65.3651 45.6129C67.8864 45.4475 68.0165 45.1748 68.0113 42.5772C68.0413 41.7798 68.0379 40.9424 68.0699 40.1489C68.1418 38.3376 66.9664 38.315 65.5647 38.2697C65.5433 37.5857 65.5547 36.901 65.5995 36.2181Z" fill="white"/>
<path d="M71.8208 42.6775C72.4039 42.765 73.6508 42.7691 74.0791 43.199L74.05 43.2708C73.7141 43.4081 73.0562 43.3628 72.6741 43.355C72.3749 43.3503 72.0695 43.3389 71.7703 43.3305C71.8017 43.0828 71.8193 42.926 71.8208 42.6775Z" fill="white"/>
<path d="M79.8289 36.3818L79.9114 36.4033C79.9428 36.9438 79.929 37.498 79.9233 38.0403L79.8185 38.0923C79.7927 37.5935 79.8118 36.8754 79.8289 36.3818Z" fill="white"/>
<path d="M81.9518 35.9803L82.1581 35.7659L82.2286 35.779L82.2172 35.9132C82.5479 36.0906 87.6796 35.848 88.582 35.9059C88.5968 36.5794 88.6073 37.253 88.613 37.9267C87.6024 37.9514 86.2055 38.0723 86.1955 39.3492C86.1793 41.4321 86.247 43.5692 86.2589 45.6533C87.3542 45.6549 89.7745 45.8966 90.7612 45.2333C91.0952 45.0088 91.1919 43.9183 91.3635 43.5833C91.373 43.5645 91.5407 43.5447 91.5836 43.5433C92.2044 43.5399 92.8285 43.4946 93.4369 43.4917C93.4522 44.1218 93.5541 47.1488 93.4589 47.5918C93.0053 47.6799 92.2134 47.6604 91.7299 47.6608L88.7049 47.6513C87.7196 47.6566 86.7134 47.7323 85.7291 47.7423C83.8409 47.7604 81.948 47.7723 80.0599 47.7761C80.0303 46.9926 80.0256 46.4773 80.0966 45.6973C81.2053 45.7694 82.5102 45.6191 82.4964 44.2147C82.4807 42.6077 82.4716 40.8497 82.4068 39.2466C82.3592 38.0779 80.8117 38.0798 79.9231 38.0403C79.9289 37.498 79.9427 36.9439 79.9112 36.4033C79.915 36.2151 79.8869 36.1761 79.9713 36.0284C80.1718 35.9703 81.6388 35.9842 81.9518 35.9803Z" fill="white"/>
<path d="M71.7703 43.3306C72.0695 43.3389 72.3749 43.3504 72.6741 43.355L72.6293 43.5152C72.2911 43.5035 72.0485 43.4874 71.7131 43.446L71.7703 43.3306Z" fill="white"/>
<path d="M77.7392 42.7913C78.4076 42.7876 79.0761 42.7897 79.7445 42.7977C79.7507 42.9762 79.734 43.1771 79.7235 43.3576C79.3433 43.3613 77.9974 43.3984 77.7058 43.3142C77.6577 43.1559 77.7101 42.9625 77.7392 42.7913Z" fill="white"/>
<path d="M64.0718 43.4664C64.4096 43.4437 65.0176 43.5468 65.2229 43.8405C65.2448 44.027 65.2534 43.9506 65.1786 44.1323L63.9837 44.1303C63.9751 43.9267 63.9575 43.6164 64.0718 43.4664Z" fill="white"/>
<path d="M24.2453 2.64686C24.6197 2.57135 27.7063 3.72421 28.1001 3.94678L28.2384 4.8019C30.5813 7.04892 31.0898 8.92548 30.6488 11.8789C30.6205 12.0687 30.8096 13.1659 30.8398 13.4605C30.0258 14.5659 29.8528 14.8548 29.4561 16.1395C28.4141 16.9244 28.0545 17.9426 27.3711 18.4725C27.0126 18.7505 24.5344 19.527 23.989 19.4816C23.7575 19.4624 23.567 19.4409 23.3192 19.3896C22.2998 19.1783 21.1796 19.0185 20.1759 18.7522C20.0261 18.7125 19.7202 18.5149 19.5917 18.3994C17.5421 16.557 16.4238 13.8781 16.5591 11.1268C16.5682 10.9413 16.7816 10.4058 16.8244 10.1833C17.0779 8.8649 17.1792 8.0183 17.0627 6.68975C17.3791 6.02033 18.1916 4.63725 18.9106 4.48051C19.9908 4.24503 20.0658 4.39258 20.7057 3.34359C21.8314 2.98126 23.4059 3.01911 24.2453 2.64686ZM19.2291 15.1745C19.6234 15.4377 19.894 15.5858 20.1732 15.974C20.18 16.1441 20.1894 16.3171 20.1883 16.487C21.2383 17.0647 21.5956 17.7978 22.6536 17.8075C23.8023 17.7472 25.8307 17.3212 26.7078 16.4604C27.024 16.1502 27.032 15.6127 27.2449 15.2554C27.6589 14.5961 28.2769 14.1252 28.455 13.3311C28.5523 12.8976 28.4946 12.4874 28.5455 12.0653C28.8796 9.29203 27.8959 4.62291 24.2055 4.71022C22.4651 4.77085 21.6435 4.98122 20.3888 6.21147C20.2482 6.3493 19.6546 6.77625 19.589 6.86431C19.0317 7.65442 18.8837 8.72187 18.6292 9.63705C18.5105 10.0637 18.3201 10.4901 18.3406 10.9225C18.3874 11.91 18.4645 12.559 18.9342 13.4474C19.0919 13.7455 19.2078 14.7989 19.2291 15.1745Z" fill="white"/>
<path d="M30.7618 19.5916C31.0426 19.5717 33.4371 20.629 33.7786 20.8538C33.8313 21.1256 33.8551 21.3646 33.8839 21.6383C35.1739 23.2261 35.9428 24.6141 35.9519 26.7457C35.9544 27.3249 35.8512 27.9366 35.8487 28.4999C35.8468 28.9008 35.941 29.5657 35.9906 29.9818C35.7268 30.4123 35.3897 30.944 35.2087 31.413C35.1248 31.5866 34.9663 32.4094 34.8679 32.5147C34.2915 33.1314 33.8817 33.8613 33.44 34.5595C33.2001 34.939 32.3729 35.2336 31.9715 35.3908C31.2907 35.6574 30.7207 35.8699 29.993 35.7048C29.5442 35.5987 27.5141 35.1937 27.2726 34.9853C25.2823 33.2681 24.1274 29.618 24.6955 27.0746C25.0307 25.574 24.9619 24.9092 25.0083 23.5374C25.0319 22.8387 25.9243 21.6641 26.404 21.3242C26.6662 21.2945 26.9277 21.2583 27.188 21.2156C27.5504 20.9302 27.6559 20.6778 27.8827 20.284C28.8553 19.8609 29.7865 20.0283 30.7618 19.5916ZM26.6529 31.6148C26.9203 31.8283 27.3851 32.1439 27.4068 32.5051C27.439 33.0423 27.7221 33.0304 28.0418 33.3332C28.7257 33.9809 28.803 34.258 29.7792 34.1495C29.8455 34.1422 29.9116 34.1323 29.9771 34.1197C31.2003 33.7872 32.7664 33.5198 33.0065 32.0287C33.1061 31.4105 33.8873 30.7052 33.9831 30.2054C34.1727 29.2172 34.2381 27.4574 34.1377 26.4683C34.0722 25.8822 33.9612 25.3021 33.8055 24.7333C33.3684 23.1389 32.2677 21.2059 30.2982 21.6168C28.6458 21.742 28.2442 22.3273 27.1363 23.5135C26.5149 24.1789 26.1905 26.4127 26.0105 27.3542C25.9554 27.6422 26.0612 28.4846 26.0753 28.806C26.098 29.32 26.3479 29.5784 26.4912 30.003C26.6109 30.3575 26.6628 31.228 26.6529 31.6148Z" fill="white"/>
<path d="M1.74145 48.0625C1.42794 47.0889 1.38161 46.1132 1.60205 45.1394C1.63748 45.0361 1.56459 44.7953 1.61244 44.715C1.77614 44.4401 2.33838 44.1376 2.41032 43.8388C2.53262 43.3309 2.31543 41.5419 2.78606 41.2649C2.88226 41.3217 2.91107 41.3391 3.01532 41.3771C3.21993 41.2486 3.16812 41.0198 3.21939 40.7971C3.27221 40.5677 3.50711 40.1894 3.49995 39.9728L3.4511 39.9077C3.19528 40.0877 3.10494 40.7273 2.83798 40.6849C2.63625 40.3558 2.77534 39.5536 2.62792 39.1358C2.7304 39.2651 2.784 39.3647 2.93761 39.4098C3.06969 39.3846 3.24257 39.1826 3.37374 39.0736L3.40902 38.9656C3.31569 38.8791 2.90431 38.8798 2.7796 38.8198C2.29203 38.5826 2.10418 38.1804 1.49473 38.2357C1.14079 38.2679 0.54019 38.3443 0.51956 37.8226C0.506978 37.5045 0.649334 36.9452 1.01859 36.8643C0.930439 37.0536 0.907908 37.1725 1.0401 37.3463L1.09713 37.3281C1.20881 37.0587 1.03549 36.7439 1.13935 36.5735C1.20978 36.5948 1.24093 36.6076 1.30834 36.6375C1.7017 36.5246 1.72295 36.3498 2.10705 36.5268C2.13178 36.5382 2.65334 36.315 2.71271 36.3042C3.14835 36.2595 3.93001 36.2364 4.34385 36.284C4.44599 36.3487 4.46119 36.3609 4.53962 36.4528C4.719 36.3866 4.64186 36.2807 4.82658 36.2539C5.24341 36.1934 5.49169 36.6452 5.67745 36.1485L5.70614 36.1392C5.73282 36.254 5.7402 36.319 5.75268 36.4366C5.85845 36.4622 6.0325 36.3372 6.21283 36.3512C7.26281 36.4321 8.31127 36.5422 9.3614 36.603C9.39718 36.6051 9.61896 36.8022 9.6616 36.8404C9.71963 36.8032 10.006 36.6211 10.0465 36.6205C10.6096 36.619 11.2564 36.6872 11.8056 36.8011C12.8649 37.0206 13.9046 37.1784 14.5256 38.1841C15.2236 39.3147 14.8852 40.7587 13.728 41.4279C13.0961 41.7934 12.7122 41.8901 12.0138 42.0148C13.4215 42.3461 14.7092 42.6822 15.0624 44.3018C14.9868 44.5582 14.7881 44.4401 14.8606 44.6835C15.4385 46.6217 14.1607 47.6943 12.2584 47.8143C11.9904 47.6843 11.8135 47.5967 11.5591 47.4357C11.4549 47.5133 11.2034 47.7024 11.0844 47.7176C10.1885 47.8315 7.96442 47.8172 7.12441 47.7053C7.12522 47.6914 7.1357 47.539 7.1368 47.5457C7.09706 47.3023 7.431 46.9227 7.38197 46.757C7.19721 46.9299 7.09773 47.1709 7.07457 47.42C6.67917 47.8577 5.7887 47.6719 5.29864 47.549C5.31645 47.5533 4.93816 47.6734 4.8818 47.671C4.52103 47.6538 2.96024 47.7834 2.71199 47.6086C2.50336 46.8218 3.15219 43.4196 3.27836 42.4904L3.22381 42.516C3.17371 42.8263 2.97689 42.8991 2.92011 43.1997C2.79962 43.8374 2.55522 44.4445 2.43932 45.0842C2.33502 45.8346 2.21739 46.9237 2.19844 47.6743L1.74145 48.0625ZM9.62463 43.9286C9.65531 44.1244 9.69938 44.3336 9.67537 44.5288C9.50881 44.7538 9.54931 44.7709 9.51262 45.0471C9.27978 45.0088 9.16972 44.8212 9.19074 44.5981C9.34587 44.4753 9.30051 44.5108 9.51024 44.475C9.53635 43.9943 8.59685 43.9034 9.8082 43.5165C9.87229 43.2906 9.98253 43.0222 9.88329 42.8195C9.77052 42.7357 9.75794 42.7127 9.62597 42.7149C9.48875 42.902 9.59161 42.9877 9.46183 43.0596L9.337 42.8613C8.58465 42.7898 7.26677 42.8718 6.40479 42.8243C6.46854 43.9827 6.29592 44.6661 6.30078 45.7269L7.26348 45.7593C7.36453 45.6562 7.58727 45.3978 7.70648 45.3743L7.77142 45.4198C7.73025 45.5279 7.697 45.6211 7.66264 45.7316L7.70772 45.7887C8.31203 45.8576 9.3846 45.8486 10.0469 45.875L10.0682 45.9089C10.0159 46.0416 9.96529 46.1271 9.98387 46.2658C10.0646 46.3553 10.0207 46.3312 10.1544 46.3444C10.2377 46.1705 10.3079 45.8981 10.2544 45.7068C10.2576 45.5458 10.2451 45.4117 10.3319 45.275C10.3854 45.3832 10.396 45.5024 10.4163 45.623L10.4741 45.6435C11.1964 45.2699 11.1143 43.9078 10.8197 43.2734C11.1487 42.4323 11.5924 42.1264 12.2574 41.5141C12.3929 41.3884 12.5296 41.3272 12.6065 41.168C12.4595 41.1887 12.3539 41.2983 12.2321 41.3952C11.8731 41.6744 11.0721 42.2972 10.7779 42.5687C10.3409 42.9721 10.2734 43.4917 9.62463 43.9286ZM9.8751 40.9655C9.78519 41.3926 9.84246 41.462 10.1198 41.7799C10.0981 41.6006 9.98334 41.0967 9.8751 40.9655ZM4.19605 38.02C4.06341 38.3649 3.87465 38.7681 3.91376 39.1334L3.9695 39.1878L4.08542 39.1262C4.12401 38.5661 4.3721 38.6779 4.45676 38.3185C4.4064 38.1376 4.3761 38.1631 4.19605 38.02ZM6.53267 38.5474C6.46806 39.3167 6.46415 39.9339 6.46682 40.709C7.29707 40.8584 8.35691 40.8185 9.21079 40.9065C9.21222 40.9066 9.39437 41.0751 9.42281 41.1016C9.50595 41.0421 9.51495 41.0067 9.56088 40.9169C9.81521 40.8159 10.1487 40.8917 10.3265 40.7018C10.8291 40.3203 11.1047 39.8933 10.6564 39.2603C10.3375 38.8102 9.61853 38.7467 9.12751 38.7107C8.25877 38.6378 7.39507 38.6242 6.53267 38.5474Z" fill="white"/>
<path d="M9.6754 44.5287C9.50884 44.7537 9.54933 44.7708 9.51265 45.047C9.27981 45.0087 9.16975 44.8211 9.19076 44.598C9.34589 44.4752 9.30054 44.5107 9.51027 44.4749C9.5722 44.5091 9.60655 44.5385 9.6754 44.5287Z" fill="white"/>
<path d="M10.2543 45.7066C10.2091 45.5759 10.2137 45.4387 10.1844 45.3245C10.1393 45.1493 9.82323 45.3286 9.76587 45.055C9.95802 45.1104 9.87488 45.1105 10.0896 45.0259C10.2418 45.0864 10.2252 45.1187 10.3318 45.2748C10.245 45.4115 10.2575 45.5456 10.2543 45.7066Z" fill="white"/>
<path d="M9.87501 40.9653C9.98326 41.0965 10.098 41.6004 10.1197 41.7797C9.84238 41.4618 9.78511 41.3924 9.87501 40.9653Z" fill="white"/>
<path d="M12.2319 41.3953C12.3538 41.2983 12.4594 41.1887 12.6064 41.168C12.5295 41.3272 12.3928 41.3884 12.2573 41.5141L12.2319 41.3953Z" fill="white"/>
<path d="M38.3098 36.4095C39.0315 36.3477 39.805 36.3565 40.5339 36.3582C42.2788 36.3622 44.5912 35.9589 46.0483 37.111C47.0787 37.9256 47.2946 39.6004 46.3978 40.5857C45.6948 41.3582 45.0167 41.4829 44.0541 41.6738C46.5213 41.7768 46.5318 43.0881 46.6156 45.1433C46.6266 45.4116 46.5794 46.0306 46.9306 46.0515C47.8344 46.1053 47.3756 44.8704 47.5071 44.2835C47.7462 44.2646 47.8858 44.2398 48.1155 44.3028C48.3513 44.4153 48.5681 44.4925 48.7892 44.5945C48.7906 44.9025 48.8087 45.4575 48.782 45.7459C48.7634 45.918 48.7315 46.155 48.7382 46.3217C48.5405 46.5549 48.559 46.5659 48.4275 46.8097C48.1574 47.2994 47.5633 47.7342 47.0354 47.87C45.6919 48.2157 43.3232 47.9381 42.9573 46.3062C42.8891 46.0019 42.6912 44.6932 42.811 44.4847C42.8875 44.4758 42.9122 44.4717 42.9898 44.4789L43.0436 44.4842L43.0158 44.4053L42.8091 44.332C42.7206 44.1916 42.7623 43.8272 42.7329 43.6499C42.6994 43.4486 42.6034 43.217 42.53 43.0257C41.6739 42.3348 40.8267 42.5465 39.7934 42.5526C39.2752 42.5548 38.757 42.5438 38.2394 42.5194C38.0899 42.6876 37.878 43.257 37.8089 43.4828L37.8493 43.5356L38.1176 43.4746L38.1571 43.5298L38.1243 43.6258C38.0298 43.6369 37.9934 43.636 37.9048 43.6767C37.9549 43.7878 37.9846 43.8296 37.9876 43.9486C37.9039 43.9892 37.7944 43.9222 37.6485 43.8947C37.5802 43.9886 37.6358 44.2491 37.6413 44.4135C37.5075 44.4781 37.5554 44.2978 37.3675 44.2664C37.2912 44.3824 37.3362 44.5474 37.3485 44.7153C37.2129 44.6761 37.0028 44.5884 36.8931 44.6247L36.8635 44.7542C36.9048 44.8748 36.9986 44.9162 37.1091 44.992C36.9964 45.3677 36.4887 45.2712 36.4406 46.2464C36.5621 46.3194 36.5351 46.1269 36.7327 46.1168C36.7488 46.2556 36.758 46.1902 36.7017 46.3198C36.6038 46.3682 36.5299 46.3877 36.4844 46.483C36.6048 46.6283 36.6279 46.4462 36.8223 46.5359C36.7702 46.6783 36.5466 46.865 36.426 46.9798C36.7621 46.9588 37.032 46.885 37.3632 46.8483C37.4738 46.8979 37.5124 46.9274 37.6289 46.9202C37.6303 46.7312 37.6321 46.3468 37.5366 46.1977C37.4399 46.2535 37.4052 46.2859 37.2976 46.29C37.3005 46.1749 37.4249 46.0213 37.4924 45.9201C37.6811 45.6375 37.6335 45.678 37.5263 45.3901L37.5601 45.3375L37.7529 45.5918L37.8148 45.5734L37.8251 45.4229L38.0698 45.3175C38.321 45.2465 38.13 45.0471 38.2709 44.8338L38.3642 44.8188C38.5887 45.0437 38.9342 45.4025 39.2021 45.5519C39.5478 45.7446 40.5466 45.6035 40.844 45.8281C40.9786 46.1846 40.9349 47.4018 40.8834 47.8038C39.5974 47.9247 38.0413 47.7928 36.7468 47.809C35.2718 47.828 33.8016 47.8695 32.3236 47.8842C32.3119 47.437 32.1478 45.8476 32.5147 45.7925C33.266 45.6795 33.6846 45.8444 34.4595 45.2361C34.564 44.9904 34.737 44.7319 34.6007 44.49L34.418 44.4422C34.324 44.294 34.6113 43.8933 34.5991 43.682C34.5202 42.3088 34.7415 40.6707 34.4007 39.3488C34.1271 38.2881 32.7681 38.7175 32.1399 38.4425C32.0149 38.1541 32.0738 36.8929 32.0803 36.5159C33.5533 36.402 35.1544 36.4734 36.6398 36.4159C36.7421 36.412 37.0503 36.491 37.1631 36.5182C37.2427 36.616 37.3307 36.7453 37.4062 36.8495C37.4019 37.0043 37.2589 36.9709 37.1636 37.0989C36.9715 37.3569 37.4165 37.7518 37.2003 37.962C37.1314 37.8798 37.1136 37.8261 37.0304 37.8049C37.0441 37.9662 37.0601 37.9692 37.1572 38.1027C37.2771 38.2675 37.1801 38.3451 37.1469 38.5456L37.3059 38.5689C37.3827 38.6297 37.5834 38.9535 37.5732 38.9815C37.3715 39.5408 37.8777 39.943 38.0841 40.5551C37.9366 40.7645 37.864 40.733 37.8644 40.9431C37.9566 40.9201 38.053 40.8888 38.1445 40.8612C38.1904 40.973 38.1475 41.0321 38.1126 41.1728C38.1301 41.125 38.4555 40.8697 38.5424 40.7832C38.4281 40.6887 38.2806 40.5879 38.2165 40.4615C38.3747 40.3814 38.5099 40.5614 38.5799 40.55C39.5313 40.396 40.4823 40.6078 41.4346 40.4289C41.6139 40.3952 42.0241 40.2963 42.1845 40.3293C42.2356 40.3905 42.2689 40.4474 42.3427 40.4695C42.4285 40.3855 42.4664 40.339 42.541 40.2444L42.7354 40.2535C42.6808 39.8691 42.765 39.8714 43.0103 39.4833C42.9191 39.2465 42.8272 38.9654 42.6509 38.7864L42.6302 38.7656C42.4435 38.575 42.1179 38.4458 41.8699 38.3293C41.234 38.4773 40.7598 38.3526 40.1477 38.3863C39.6218 38.4152 39.2595 38.4529 38.7204 38.4498C38.7673 38.2949 38.7846 38.2044 38.8127 38.0468C38.6242 38.2468 38.5985 38.3471 38.3233 38.4178L38.0909 38.4623C38.0562 38.3442 38.0062 38.2077 37.9664 38.089C37.8289 38.0819 37.7435 38.0784 37.6057 38.0513C37.6941 37.837 37.809 37.8357 38.0516 37.7299L38.1819 37.8352C38.2521 37.6828 38.005 37.6433 38.0023 37.3266C38.0681 37.2515 38.1366 37.1788 38.2076 37.1086C38.0926 37.0304 38.0191 37.0732 37.8391 37.0697C37.7927 36.9291 37.8346 36.9156 37.9024 36.7459C37.9944 36.7711 38.0362 36.9188 38.1312 36.9312L38.0891 36.8925L38.1442 36.8095C38.0998 36.5438 38.0659 36.5366 38.3098 36.4095ZM38.1413 46.9988C38.1876 46.8021 38.2881 46.5978 38.2585 46.4418C38.2117 46.3869 38.1694 46.325 38.1066 46.2936C38.1314 46.8045 37.8218 46.4911 38.1413 46.9988Z" fill="white"/>
<path d="M38.1066 46.2937C38.1693 46.3251 38.2117 46.387 38.2584 46.4419C38.288 46.5979 38.1876 46.8022 38.1412 46.9989C37.8217 46.4912 38.1313 46.8046 38.1066 46.2937Z" fill="white"/>
<path d="M58.0312 2.70736C58.5205 2.6112 59.3533 2.64 59.6773 3.08601C59.54 3.36886 57.0592 4.31268 56.6085 4.57068C56.3017 4.74662 57.0702 5.48386 56.8982 5.919C56.6133 6.64062 54.9819 7.09966 54.3787 7.54789C53.7398 7.98717 52.8999 8.93826 52.7665 9.7127C52.6402 10.4449 54.2587 11.2472 54.5803 11.8694C54.9138 12.5152 55.1925 13.1543 55.5151 13.7903C56.1016 14.9237 56.7567 16.0204 57.4771 17.0741C58.0316 17.8785 58.5271 17.8905 59.4414 18.0592C59.5081 18.1218 59.5734 18.1859 59.6372 18.2512C59.825 18.4439 60.0093 18.6466 60.0051 18.926C59.9517 19.0386 59.925 19.0777 59.8073 19.1345C59.5577 19.2555 59.257 19.309 58.9821 19.3365C58.2751 19.4072 54.6741 19.4378 54.0819 19.2407C53.9199 19.1868 53.6893 19.0843 53.6183 18.9164C53.5736 18.8105 53.5864 18.7061 53.6403 18.6042C53.9137 18.0863 55.0758 17.8867 55.6165 17.7423C55.6223 17.5349 55.6037 17.3153 55.5899 17.1071C55.1291 16.5786 53.5755 15.0305 53.3196 14.5474C52.4534 12.9141 52.2386 12.4267 50.8388 11.111C50.2766 11.5778 49.7725 12.0008 49.2394 12.4985C49.1336 13.0503 49.0517 13.7579 49.0731 14.3157C49.0936 14.8463 49.1636 15.3668 49.1636 15.9025C49.1631 16.4647 48.9859 17.1122 49.1255 17.6505C49.2627 17.736 50.1265 17.7384 50.3704 17.7876C50.6463 17.8433 50.8078 17.8811 51.0851 17.9672C51.1061 18.1023 51.1256 18.2375 51.1437 18.373C51.2623 19.2726 50.532 19.1469 49.8364 19.2249C48.9611 19.3178 45.2729 19.6907 44.8966 18.78C44.8495 18.6638 44.8539 18.5331 44.9086 18.4203C45.1251 17.981 46.5522 17.5884 47.0477 17.4199C47.3722 16.1367 46.9343 15.2804 46.8857 14.0082C46.8529 13.6009 47.0782 12.9566 47.0354 12.5729C46.9262 11.6019 46.8748 10.8129 47.0315 9.8422C47.063 9.64888 46.7371 9.05395 46.7528 8.79638C46.8791 6.74197 47.9797 4.89099 45.1314 4.2752C44.805 4.20442 44.6581 3.57836 44.8242 3.29069C45.0134 2.96286 45.4966 2.82904 45.8416 2.71695C47.3722 3.00075 47.4837 3.36247 49.1441 2.88021C49.7468 2.70515 51.3638 2.86829 52.0456 2.90618C52.8265 2.94961 52.4635 3.66755 51.9351 3.85321C51.3614 4.14931 51.0251 4.3706 50.3709 4.48181C50.1603 4.51758 49.3694 4.60164 49.2794 4.65337C49.0888 4.86341 49.1045 5.07559 49.1117 5.34755C49.1436 6.57646 49.2479 7.80709 49.2513 9.03628C49.0421 9.32143 48.6357 9.73199 48.741 10.1077C49.3113 10.2843 50.3061 8.67249 51.0013 8.30814C51.5077 8.04237 52.4096 6.58746 53.07 6.20163C53.3701 6.02626 54.4454 5.26454 54.5269 4.99648C54.3992 4.26615 52.5001 3.86192 52.8079 3.1827C53.4454 2.64457 54.9953 3.04943 55.7104 2.98546C56.4584 2.91851 57.2812 2.79922 58.0312 2.70736Z" fill="white"/>
<path d="M21.815 36.2848C22.6152 36.2372 24.2231 36.1448 24.976 36.3185C25.1793 36.3654 26.0855 37.9701 26.1466 38.3325C26.2767 38.304 26.388 38.1252 26.5887 38.0071L26.6622 38.0287C26.7417 38.2834 26.6418 38.4913 26.5168 38.7075C27.5672 40.3121 28.4986 42.0356 29.5613 43.6378C29.7709 43.9538 29.7232 43.6656 29.9699 43.8438C29.9832 44.0243 29.9421 44.0381 29.8573 44.226C29.7293 44.2971 29.7881 44.2874 29.6341 44.2545C29.6025 44.3885 29.6944 44.3955 29.6852 44.4302C29.6332 44.6254 29.4197 44.7077 29.3888 44.9161C29.5697 44.8152 29.8344 44.4734 29.9362 44.2952C30.1105 44.2621 30.3622 44.4157 30.534 44.4886C30.9752 44.6761 31.3903 44.7583 31.8624 44.8389C31.5258 44.8614 29.9463 44.8545 29.7936 44.9565L29.7433 45.0354C29.183 45.8027 28.579 46.5401 28.0321 47.3074C27.4454 48.0933 26.4779 49.4674 25.8671 50.1785L25.7898 49.9694C26.0159 49.8103 27.3808 47.9761 27.3782 47.7442C27.2248 47.7018 27.2474 47.7261 27.0775 47.7985L26.9925 47.7089C26.5936 47.7413 25.71 47.7204 25.2797 47.7209C25.2522 47.034 25.2128 46.3221 25.222 45.6362C25.6761 45.5879 26.1513 45.6194 26.5934 45.4745C26.8094 45.4037 27.1577 45.1667 27.0646 44.9128C26.7327 44.8141 26.248 44.9253 25.8316 44.8371L25.7855 44.827C26.1457 44.7875 26.7893 44.7721 27.0448 44.4907C27.3062 44.2028 27.1289 43.6918 26.8559 43.4595C26.6626 43.4248 26.674 43.5839 26.4922 43.6426C26.2253 43.7287 26.2352 43.3772 25.9531 43.2686L25.8923 43.2977C25.9664 43.4182 26.0129 43.4736 26.1021 43.5808C25.9229 43.598 26.0349 43.4727 25.5972 43.4687L21.9452 43.4677C21.8237 43.6671 21.6542 43.8806 21.699 44.1309C21.7602 44.4734 21.8341 44.4877 21.5401 44.6564L21.5398 44.747L21.5646 44.8803C21.5922 45.0784 21.6927 45.1368 21.6656 45.3108C21.5366 45.3657 21.4644 45.3997 21.3432 45.4698L21.3727 45.5258C21.7705 45.6705 21.7841 45.2585 22.1 45.2665C22.0848 45.3392 22.0682 45.4116 22.0505 45.4838C22.8805 45.8279 23.6949 45.1077 23.5108 46.4868C23.4641 46.8373 23.5576 47.3093 23.477 47.6675C23.2594 47.8514 21.7417 47.687 21.3317 47.7518C20.9532 47.8113 21.0724 47.9371 20.8491 47.9199L20.7461 47.7599C20.6907 47.7232 15.706 47.7847 15.1475 47.7899C15.1186 47.2231 15.0505 46.2854 15.1159 45.7588C16.0446 45.5115 16.18 45.5132 16.9338 44.8741C16.5199 44.8981 16.1599 44.8802 15.7478 44.8538C16.6421 44.5748 17.3259 43.7926 17.7397 42.978C18.0378 42.391 17.4308 42.3064 17.0508 42.1973C17.451 42.1671 17.7763 42.269 18.108 42.2371C18.461 41.9454 19.0649 40.7867 19.3434 40.3563C20.1567 39.0998 20.9678 37.4931 21.815 36.2848ZM22.9929 41.6897C23.2783 41.6521 23.5161 41.6164 23.8055 41.6223C23.9245 41.6247 24.1744 41.6679 24.2514 41.6589C24.7817 41.6637 25.3122 41.6593 25.8424 41.6459C25.4632 41.0492 24.8167 39.9175 24.4356 39.401C23.9604 40.1506 23.4479 40.9317 22.9929 41.6897Z" fill="white"/>
<path d="M50.0521 26.9615C50.6891 26.5626 51.0035 26.1007 51.4533 25.5272C51.6143 25.322 52.1065 24.9064 52.218 24.7424C52.5977 24.2344 52.9212 23.711 53.37 23.2558C53.5625 23.0607 53.7164 22.8903 53.926 22.7117C54.1814 22.4939 54.6312 22.2086 54.7555 21.9039C54.7755 21.337 53.5887 20.9392 53.3405 20.3718C53.3553 19.534 55.1467 19.9685 55.6746 19.9117C56.6408 19.8076 57.5003 19.6207 58.477 19.6541C58.649 19.7615 58.8315 19.9331 58.9868 20.0702C58.1483 20.4789 57.2707 20.9931 56.4531 21.4518C56.1939 21.597 56.7756 22.4162 56.6508 22.7561C56.3716 23.5159 55.2215 23.7934 54.6617 24.2786C54.14 24.7302 53.7336 25.359 53.4525 25.9757C52.9889 27.0654 54.2848 27.5751 54.7336 28.3327C54.9633 28.7204 55.1715 29.4321 55.3863 29.9178C55.605 30.5424 56.4555 32.4488 56.8523 32.9257C57.0644 32.9164 56.9376 32.8025 57.1177 32.8667C57.1177 33.0065 57.0505 33.109 56.9872 33.2375C57.4036 34.1063 57.7109 34.2526 58.65 34.395C60.3056 36.1865 56.7418 35.5181 55.928 35.6457C55.6608 35.6876 54.9137 35.6384 54.6264 35.6144C54.5335 35.607 54.4411 35.5975 54.3491 35.5859C53.9084 35.317 53.9241 34.9779 54.2757 34.6482C54.19 34.3848 54.0923 33.5236 54.0313 33.1737C54.1886 32.8004 54.3696 32.5197 54.6197 32.2064C54.4287 31.8942 53.9327 31.364 53.8112 31.0835C53.2314 29.745 52.815 28.8274 51.8006 27.7466C51.368 28.1654 50.9387 28.6299 50.5195 29.0656C50.3784 30.2415 50.4023 31.1943 50.4685 32.3672C50.499 32.9111 50.3294 33.4339 50.4413 34.0161C50.6381 34.1018 51.1398 34.1069 51.3847 34.1519C51.6305 34.197 51.7658 34.2406 52.0036 34.319C52.0498 34.6374 52.0636 34.9777 52.0651 35.2992C51.1855 35.6386 49.953 35.6071 49.0096 35.677C48.5175 35.7149 47.3502 35.6717 47.0843 35.1813C46.5669 34.2265 48.7752 34.2171 48.8643 33.4559C48.9734 32.5251 48.6513 31.4896 48.628 30.5541C48.6166 30.0955 48.739 29.7014 48.7533 29.2491C48.7614 28.7241 48.6556 28.182 48.6571 27.6556C48.6575 27.3044 48.7619 26.8858 48.7547 26.5536C48.7476 26.2104 48.5194 25.7851 48.5294 25.4072C48.5556 24.4555 48.9629 23.2219 48.678 22.303C48.3836 21.3535 47.5813 21.4607 47.0014 20.9907C46.9166 20.7776 46.9142 20.454 46.9929 20.2454C47.1153 19.9214 47.5208 19.7894 47.8223 19.6537C48.2511 19.8153 48.8052 19.9771 49.2493 20.1202C50.044 19.915 50.4156 19.8144 51.2637 19.7727C54.3186 19.6226 53.1189 20.9017 51.2237 21.4282C51.0069 21.4884 50.7744 21.4176 50.5519 21.5134C50.3156 21.8659 50.5247 25.0997 50.5247 25.7615C50.1812 26.2783 50.1417 26.3503 50.0521 26.9615Z" fill="white"/>
<path d="M54.6199 32.2065C54.9777 32.6258 55.3012 33.0737 55.6295 33.5166L55.6442 34.1162C55.1354 34.2764 54.7543 34.4051 54.2759 34.6483C54.1901 34.3849 54.0925 33.5238 54.0315 33.1738C54.1887 32.8005 54.3698 32.5198 54.6199 32.2065Z" fill="white"/>
<path d="M4.95527 2.45616C6.35 2.26966 5.47163 3.32702 5.49803 3.76426C5.83097 4.08756 6.42933 3.27364 6.86051 3.17528C7.94022 2.929 9.2501 2.89744 10.3565 2.87043C10.7065 2.86188 11.4026 3.18159 11.2718 3.60251C10.9371 4.67972 8.44906 4.33285 7.75813 4.73626C7.49947 5.09528 7.66665 7.97395 7.52377 8.53825C7.42581 8.92514 6.75431 8.58045 6.54015 9.76363C6.93955 9.92352 7.51667 10.2688 7.50961 10.7429C7.49775 11.5417 7.55059 12.5551 7.61829 13.3403C7.65369 13.7508 7.23047 14.7208 7.22713 15.2574C7.22208 16.0635 7.34029 16.8001 7.34129 17.5787C8.9164 18.1621 10.2368 17.3116 11.8256 17.707C12.27 17.8176 12.5795 17.8459 13.0372 17.8404C13.1325 17.7825 13.3412 17.6561 13.4051 17.5606C13.7945 16.9522 14.025 15.9625 14.1313 15.2514C14.2946 14.1603 14.0503 13.9075 15.2598 13.537C16.4057 14.008 16.2459 14.4602 15.849 15.4519C15.9356 15.7161 16.0445 15.9899 16.1433 16.2512C16.8665 18.2376 15.8666 19.2308 13.9118 19.2731C11.1628 19.3331 8.41957 19.1589 5.67026 19.1662C4.7908 19.1685 3.36553 19.5381 2.57137 19.199C1.12157 18.58 2.70104 17.3438 3.58407 17.1193C3.88151 17.2941 4.68908 17.8949 4.93468 17.4458C4.96804 17.0361 4.65682 16.6002 4.45357 16.2289C4.90219 16.0442 4.88004 16.014 5.07381 15.5743C4.85588 15.2975 4.69341 15.082 4.49912 14.7885C4.64772 14.0397 4.86203 13.7944 4.73658 12.9634C4.52356 11.5526 4.27867 10.1461 4.08238 8.73314C3.99495 8.10407 4.15923 7.51219 4.35581 6.92236C4.58064 6.26347 4.55653 5.16411 3.88766 4.75941C3.25313 4.31665 1.51095 4.76679 1.98571 3.43283C2.13293 3.01919 2.4284 2.86538 2.80155 2.69997C3.70551 2.8217 4.11177 2.84941 4.95527 2.45616Z" fill="white"/>
<path d="M37.8006 2.5597C38.3803 2.52735 38.7926 2.84132 39.3619 2.96145C39.8671 3.06805 40.376 3.13441 40.8753 3.24093C41.012 3.27009 41.1996 3.70503 41.4418 3.80133C42.0665 3.85387 42.5802 3.09127 43.1838 3.36385C44.4494 3.93546 43.9018 4.90084 43.8682 5.8676C43.8393 6.70062 44.3198 7.38738 43.9467 8.26036C43.4674 9.38192 42.443 9.31971 42.0216 8.21554C41.8395 7.89991 41.7639 7.27469 41.5889 6.98673C41.1499 6.26463 40.8656 5.70171 40.5706 4.90679C39.6545 4.535 38.7341 4.15474 37.7599 3.96651C36.4212 4.42098 34.7624 6.88675 33.7066 8.03365C33.6248 8.589 33.5505 9.10467 33.435 9.65497C33.3542 10.0398 33.1125 10.7549 33.082 11.1064C32.95 12.6294 33.6459 14.3789 34.1113 15.7952C35.3186 16.2968 36.6042 17.6454 37.9306 17.6409C38.5199 17.6389 39.6554 17.6948 40.1909 17.5518C40.5571 17.3909 40.5194 17.2218 40.5673 16.8641C41.2491 16.1823 41.7432 15.1808 42.0147 14.2605C42.3377 13.9701 42.4989 13.8289 42.8601 13.5933C44.1991 13.5879 44.2999 13.6306 44.674 14.8741C43.8141 15.1638 43.8267 15.8133 43.6702 16.6008C43.0347 17.2423 40.7001 19.1502 39.7739 19.2895C39.4566 19.3372 38.7549 19.074 38.4812 19.0953C38.1466 19.1214 37.6961 19.2459 37.3328 19.3025C36.5071 18.9377 35.6246 18.754 34.947 18.5242C34.6063 18.4086 32.6305 16.675 32.3686 16.3851C31.7208 15.6683 31.1636 13.5838 31.31 12.5874C31.3491 12.0287 31.6219 11.2436 31.6417 10.7104C31.7085 8.90987 31.5026 8.16477 32.484 6.57188C33.2224 5.37336 33.5738 4.71242 34.7009 3.71965C35.0667 3.66145 35.6845 3.62697 36.0712 3.59299C36.7128 3.04947 37.0094 2.83557 37.8006 2.5597Z" fill="white"/>
<path d="M6.42772 20.0444C6.98425 19.9494 9.06211 20.4637 9.74319 20.4861C10.2038 20.4934 10.9881 20.1977 11.4216 20.3375C12.6167 20.7568 12.3527 22.8319 12.4237 23.819C12.4758 24.5428 12.0059 25.2023 11.2251 25.0024C10.493 24.8113 10.3792 23.7782 10.0512 23.3061C9.05911 21.8779 7.30609 20.7554 5.65765 21.9176C4.29665 22.8772 4.58828 23.4097 4.27049 24.7704C4.97767 26.0854 6.49266 26.6066 7.92847 26.4864C8.42949 26.448 9.01109 26.1877 9.50349 26.3164C10.2461 26.5331 10.5002 27.3156 11.2021 27.6145C12.1251 28.0076 13.3593 28.8871 12.6972 30.025C12.5521 30.2743 12.414 30.525 12.2742 30.7737C12.4752 31.1492 12.7736 31.5874 12.7701 32.0128C12.7589 33.3436 12.1544 33.8496 11.1369 34.4695C9.98589 35.1706 9.51011 35.3783 8.1716 35.4087C7.36326 35.4075 6.25577 35.4069 5.48932 35.1992C4.16796 34.841 4.12537 34.6896 2.75788 35.0328C2.02506 33.7277 1.74773 32.1821 1.76624 30.6917C1.77562 29.9372 2.56335 29.148 3.13377 29.9951C3.40146 30.3927 3.54442 31.0343 3.65517 31.5025C4.39384 32.0469 4.68109 32.698 4.6688 33.6114C6.07606 33.8802 8.12028 34.3088 9.45237 33.5875C10.0716 33.2522 9.95911 32.8739 10.2357 32.4297C10.4253 32.1254 11.0149 31.681 11.0897 31.206C11.2932 29.9127 9.77068 28.967 9.12824 27.9239C8.39319 27.644 7.37151 27.8563 6.57213 27.7566C2.00131 27.1863 1.03015 20.5269 6.42772 20.0444Z" fill="white"/>
<path d="M18.2812 19.7974C19.7124 20.0613 19.6662 20.0374 21.1158 19.929C21.6033 20.1601 21.9455 20.5764 22.4873 20.6632C23.0951 20.7606 23.2158 19.9005 23.789 19.9797C23.9229 20.0641 24.0035 20.1504 24.073 20.2921C24.2425 20.6379 24.4493 24.0493 24.4492 24.5894C24.4491 24.8064 24.4448 25.0583 24.3673 25.2632C24.3175 25.3947 24.2045 25.5015 24.0757 25.5557C23.9207 25.621 23.7208 25.6154 23.5673 25.5473C23.2481 25.4057 23.1506 25.0235 23.0419 24.7233C22.357 24.4429 22.4582 23.9998 22.4851 23.2862C22.5977 22.317 21.0675 21.1038 20.3327 21.9787C19.5659 22.8917 19.6471 25.0416 19.5452 26.193C19.4584 27.1729 19.3045 27.9958 19.3158 28.9641C19.3189 29.2385 19.5189 29.7105 19.5535 30.0025C19.6511 30.6403 19.7918 31.373 19.8812 31.9983C19.9242 32.2996 19.7345 33.0161 19.7823 33.4308C19.945 35.0128 21.8419 33.7155 22.69 34.4783C22.8797 34.6489 23.0145 35.0713 22.7848 35.2345C21.8433 35.9034 20.2908 35.5864 19.1951 35.5545C18.2154 35.5597 17.2463 35.5921 16.2571 35.5253C15.5828 35.4798 14.844 34.9066 15.7602 34.437C16.0824 34.2718 16.8309 34.2031 17.2045 34.1579C17.4034 33.4814 17.5956 33.2312 18.1313 32.8067C18.0527 32.6898 17.9807 32.5687 17.9158 32.4437C17.5095 31.655 18.3985 31.1394 18.3567 30.3732C18.3516 30.2804 18.1939 29.9882 18.1438 29.8919C18.2012 28.3952 18.6413 28.9046 18.0214 27.0662C18.1021 26.724 18.2713 26.2318 18.3791 25.8849C18.1426 24.9314 18.0882 24.7705 18.3875 23.8692C18.2712 23.3705 17.9056 22.6222 17.5541 22.2526C16.8968 21.5614 16.3002 21.5855 15.4419 21.5565C15.2653 22.6083 14.9518 27.6184 12.9263 24.8456C12.7508 24.6053 13.478 23.8316 13.625 23.4708L13.6337 23.4491C13.6107 23.1644 13.4561 22.4814 13.3947 22.1729C13.6531 21.2403 14.0839 20.7091 14.8711 20.1721C15.7141 20.1823 16.5995 20.246 17.4448 20.2948C17.7326 19.9846 17.8755 19.9262 18.2812 19.7974Z" fill="white"/>
<path d="M40.0873 20.5082C40.6059 19.975 40.9335 19.6566 41.6803 19.4849C42.0497 19.6341 42.2877 19.7902 42.7123 19.9024C43.1122 20.008 43.5379 20.0805 43.9321 20.1918C44.0437 20.2233 44.2061 20.6761 44.3861 20.716C44.697 20.7595 45.006 20.424 45.2751 20.2976C45.7167 20.0904 46.1773 20.5264 46.343 20.9091C46.6 21.5027 46.2865 22.1957 46.3218 22.8233C46.3502 23.3262 46.5005 23.8832 46.4872 24.3841C46.4807 24.6322 46.4307 24.8772 46.3394 25.1079C46.2448 25.3429 45.9879 25.7161 45.748 25.7731C44.8645 25.9829 44.686 24.2136 44.468 23.7603C44.1075 23.011 43.8918 22.4939 43.6631 21.7662C42.8448 21.3899 42.2874 21.0999 41.4097 20.858C40.1108 21.5843 39.2282 23.4878 38.3078 24.6547C38.1047 24.9122 38.0496 25.9383 37.994 26.3001C37.9209 26.7754 37.7476 27.2455 37.6813 27.7222C37.597 29.1837 38.13 30.8575 38.514 32.2458C39.095 32.564 39.6998 33.0741 40.2598 33.4587C40.3959 33.579 40.8296 33.8644 41.0007 33.9822C41.5468 34.0029 42.9525 34.0922 43.4557 33.8746C43.5602 33.8294 43.6024 33.6921 43.6239 33.5798C43.7341 33.0403 44.1829 32.6041 44.3828 32.0765C44.7797 31.029 45.0293 29.5982 46.5271 30.2979C46.8172 30.4334 46.8806 31.0597 46.9392 31.3613C46.247 31.7011 46.2706 32.3297 46.1551 33.0202C45.6634 33.5983 43.7225 35.5544 43.0452 35.5713C42.3953 35.5876 42.168 35.3535 41.1096 35.6115C40.5117 35.307 39.2842 35.0247 38.896 34.672C38.4681 34.2832 37.4951 33.2726 37.132 32.8125C36.6369 32.1849 36.3573 30.8393 36.2619 30.0577C36.1638 29.2536 36.414 28.344 36.5101 27.5452C36.5789 26.7186 36.5318 25.8599 36.6104 25.0367C36.6763 24.3466 37.0851 23.6737 37.3622 23.0447C37.752 22.1598 38.2759 21.4446 38.8983 20.701C39.1798 20.5753 39.7565 20.5427 40.0873 20.5082Z" fill="white"/>
<path d="M29.8423 45.1046C29.9846 45.0886 31.2423 45.57 31.9463 45.5609L31.9414 47.6409C31.5923 47.688 28.2745 47.7866 28.0996 47.6547C28.116 47.5208 28.1188 47.5013 28.1801 47.3818C28.7118 46.5797 29.2624 45.8708 29.8423 45.1046Z" fill="white"/>
<path d="M1.03723 45.7232C1.07674 45.7183 1.11352 45.7324 1.15661 45.742C1.22329 45.9158 1.09805 47.046 1.17771 47.3784C1.28498 47.8266 0.644985 47.759 0.333787 47.7366C0.253774 47.728 0.242601 47.7152 0.168343 47.6837C0.0325953 47.4161 0.139776 46.1288 0.148575 45.7407C0.444884 45.7415 0.741179 45.7356 1.03723 45.7232Z" fill="white"/>
<path d="M50.1073 5.396C50.8463 5.45444 51.0459 5.56103 51.4095 6.22616C51.2008 6.50707 51.0907 6.61143 50.8172 6.82833C50.0754 7.22407 49.4932 6.4332 49.8067 6.05598C49.9525 6.01936 50.0192 6.01759 50.124 5.91091C50.1969 5.7393 50.144 5.58146 50.1073 5.396Z" fill="white"/>
<path d="M51.247 22.2395C51.864 22.334 52.0069 22.4825 52.2651 23.0382C52.1017 23.3271 51.9817 23.4381 51.7463 23.6617C51.2294 23.9303 50.8763 23.4637 50.9425 22.9591C51.3108 22.6678 51.2575 22.7286 51.247 22.2395Z" fill="white"/>
<path d="M47.4479 44.1577C47.2759 42.7436 48.5857 43.7005 48.6562 43.9583L48.6276 44.0892C48.5633 44.1263 48.5404 44.1507 48.4685 44.144C48.0902 44.1335 47.8238 44.1273 47.4479 44.1577Z" fill="white"/>
<path d="M26.9926 47.709L27.0776 47.7985C27.0024 48.0224 26.0163 49.2736 25.8126 49.5403C25.6772 49.7175 25.5889 49.7856 25.3757 49.8023L25.292 49.7237L25.2971 49.5913C25.4013 49.3822 25.6954 49.2431 25.9067 49.1683L25.9558 49.1512C26.2719 48.6782 26.6557 48.1729 26.9926 47.709Z" fill="white"/>
<path d="M29.7435 45.0354L29.8424 45.1047C29.2624 45.8708 28.7119 46.5797 28.1802 47.3818L28.0322 47.3075C28.5791 46.5402 29.1831 45.8027 29.7435 45.0354Z" fill="white"/>
<path d="M25.8672 50.1786C25.8422 50.22 25.8163 50.261 25.7896 50.3015C25.6896 50.452 25.6066 50.5515 25.4241 50.5887C25.2653 50.5439 25.3193 50.5834 25.2263 50.4324C25.2602 50.1305 25.4922 49.9695 25.79 49.9695L25.8672 50.1786Z" fill="white"/>
<path d="M21.5398 44.747C21.8095 44.7194 21.7945 44.6671 22.0119 44.5144C22.3657 44.7216 22.3284 44.7435 22.734 44.8399C22.3077 44.8722 21.992 44.8837 21.5646 44.8803L21.5398 44.747Z" fill="white"/>
<path d="M37.9023 36.7458C37.8643 36.6432 37.8332 36.5667 37.7869 36.4677L37.8218 36.3996C37.9777 36.3764 38.1511 36.3974 38.3097 36.4094C38.0658 36.5365 38.0996 36.5437 38.1441 36.8094L38.089 36.8925L38.1311 36.9311C38.0361 36.9188 37.9943 36.7711 37.9023 36.7458Z" fill="white"/>
<path d="M47.448 44.1576C47.8239 44.1271 48.0902 44.1334 48.4685 44.1439C48.2446 44.1994 48.2589 44.161 48.1155 44.3027C47.8858 44.2398 47.7463 44.2646 47.5071 44.2835L47.448 44.1576Z" fill="white"/>
<path d="M29.8575 44.2261L29.9363 44.2952C29.8345 44.4735 29.5698 44.8152 29.3889 44.9162C29.4198 44.7077 29.6334 44.6255 29.6853 44.4303C29.6945 44.3955 29.6026 44.3886 29.6343 44.2546C29.7883 44.2874 29.7294 44.2972 29.8575 44.2261Z" fill="white"/>
<path d="M40.2596 33.4588C40.2225 33.1853 40.2813 32.9253 40.5404 32.7803C40.5716 33.0484 40.4131 33.2503 40.2596 33.4588Z" fill="white"/>
<path d="M48.782 45.7458L48.8788 45.8523C48.8716 46.05 48.8573 46.2795 48.8616 46.4744L48.7382 46.3216C48.7315 46.155 48.7635 45.918 48.782 45.7458Z" fill="white"/>
<path d="M7.07446 47.4198C7.09762 47.1707 7.1971 46.9297 7.38186 46.7568C7.43089 46.9226 7.09695 47.3022 7.13669 47.5456C7.13559 47.5389 7.12511 47.6913 7.1243 47.7051L7.07446 47.4198Z" fill="white"/>
<path d="M37.825 45.423C37.8284 45.2665 37.8669 45.1295 37.9027 44.9779L37.9302 44.9709C38.012 45.0262 38.0269 45.1865 38.0697 45.3176L37.825 45.423Z" fill="white"/>
<path d="M38.0908 38.4622L38.3232 38.4177C38.166 38.6502 38.3218 38.6577 38.2013 38.9489C38.1678 38.7847 38.1381 38.623 38.0908 38.4622Z" fill="white"/>
</g>
<path d="M77.6519 60.905V67.7273C77.6519 68.281 77.5835 68.7664 77.4468 69.1833C77.3101 69.6072 77.1323 69.9421 76.8999 70.1882C76.6675 70.4343 76.4009 70.6189 76.1138 70.7419C75.8267 70.865 75.5122 70.9197 75.1772 70.9197C74.7671 70.9197 74.4116 70.824 74.1245 70.6257C73.9741 70.5164 73.8647 70.3933 73.7896 70.2429C73.7075 70.0994 73.6733 69.9558 73.6733 69.8123C73.6733 69.7029 73.6938 69.614 73.7349 69.5457C74.0698 69.7439 74.4185 69.8396 74.7808 69.8396C75.2729 69.8396 75.6694 69.6687 75.9702 69.3132C76.271 68.9646 76.4214 68.4382 76.4214 67.7273V60.905H77.6519ZM85.7798 68.0486C85.7798 68.5271 85.6841 68.9509 85.5063 69.3064C85.3218 69.6687 85.062 69.9626 84.7202 70.1814C84.3784 70.4001 83.9888 70.5642 83.5376 70.6736C83.0864 70.783 82.5737 70.8308 82.0132 70.8308C81.0972 70.8308 80.3589 70.7966 79.7915 70.7214V60.9597C80.4614 60.8914 81.1382 60.8503 81.8081 60.8503C84.228 60.8503 85.4448 61.7048 85.4448 63.4001C85.4448 63.8923 85.3081 64.3435 85.0347 64.7605C84.7612 65.1843 84.3853 65.4919 83.9067 65.697C84.481 65.8474 84.939 66.1414 85.2739 66.5789C85.6089 67.0164 85.7798 67.5017 85.7798 68.0486ZM82.3208 66.2371H81.0083V69.8123C81.3296 69.8533 81.7603 69.8669 82.2935 69.8669C82.5874 69.8669 82.8608 69.8328 83.1206 69.7576C83.3804 69.6892 83.6128 69.5798 83.8179 69.4363C84.0229 69.2996 84.1802 69.1082 84.3032 68.8689C84.4194 68.6296 84.481 68.3562 84.481 68.0486C84.481 67.823 84.4468 67.6111 84.3784 67.406C84.3101 67.2078 84.2007 67.0164 84.0503 66.8318C83.8999 66.6541 83.6743 66.5105 83.3804 66.4011C83.0796 66.2917 82.731 66.2371 82.3208 66.2371ZM81.0083 61.8757V65.3005H82.1841C82.813 65.3005 83.3052 65.157 83.6606 64.8562C84.0161 64.5623 84.2007 64.1042 84.2007 63.4822C84.2007 62.9626 84.0229 62.5525 83.6675 62.2585C83.312 61.9646 82.7788 61.8142 82.0747 61.8142C81.7603 61.8142 81.4048 61.8347 81.0083 61.8757ZM93.2241 63.6531C93.2241 64.0632 93.1421 64.4529 92.978 64.822C92.814 65.198 92.5542 65.5261 92.2124 65.8132C91.8638 66.1003 91.4536 66.2986 90.9888 66.3943L93.0327 69.2107C93.3335 69.6345 93.6548 69.9285 93.9966 70.0925C94.1812 70.1746 94.3657 70.2292 94.5571 70.2566C94.4683 70.4412 94.3247 70.5847 94.1333 70.6941C93.9419 70.8035 93.73 70.8582 93.5044 70.8582C93.231 70.8582 92.978 70.7966 92.7524 70.6667C92.52 70.5437 92.3013 70.325 92.0894 70.0173L89.6968 66.6199H88.8013V70.7625H87.5571V60.9324C88.3501 60.8708 89.0337 60.8367 89.6011 60.8367C90.606 60.8367 91.4194 61.0281 92.0347 61.4109C92.4243 61.657 92.7183 61.9783 92.9233 62.3679C93.1216 62.7576 93.2241 63.1882 93.2241 63.6531ZM88.8013 61.8279V65.697H89.7515C90.4214 65.697 90.9478 65.5125 91.3374 65.1365C91.7476 64.74 91.9526 64.2546 91.9526 63.6804C91.9526 63.1609 91.7681 62.7234 91.4058 62.3542C91.0435 61.9851 90.5239 61.8005 89.8403 61.8005C89.3687 61.8005 89.02 61.8142 88.8013 61.8279Z" fill="white"/>
<defs>
<clipPath id="clip0_380_2064">
<rect width="95.5254" height="51.76" fill="white" transform="translate(0.000244141)"/>
</clipPath>
</defs>
</svg>
