<svg width="404" height="141" viewBox="0 0 404 141" fill="none" xmlns="http://www.w3.org/2000/svg">
<path d="M380.127 4.40259C400.949 19.6859 410.73 58.739 387.258 94.052C380.968 103.515 367.649 109.543 350.479 113.37C333.151 117.233 311.229 118.995 286.886 119.387C238.182 120.171 179.305 115.47 127.09 110.783C85.4276 107.044 60.4057 109.312 46.0879 113.505C38.9281 115.602 34.6267 118.128 32.2363 120.455C29.8778 122.752 29.4787 124.727 29.6846 126.028L30.8232 133.227L25.5049 128.242C14.6538 118.072 6.92746 101.132 3.90918 83.6086C0.891994 66.0917 2.48477 47.4282 10.9482 33.8459C22.9111 14.6479 44.8106 8.23796 78.8408 7.58618C112.915 6.93358 160.295 12.0625 224.342 17.051C275.572 21.0413 311.838 19.6821 336.317 16.3938C348.558 14.7495 357.818 12.6273 364.511 10.467C371.277 8.28317 375.205 6.1269 376.99 4.54614L378.501 3.20923L380.127 4.40259Z" fill="white" stroke="#B9272D" stroke-width="5"/>
<path d="M378.639 9.57642C396.022 23.8447 404.717 58.7524 383.094 91.2844C377.959 99.0087 366.39 104.7 349.391 108.49C332.547 112.244 311.015 113.997 286.806 114.387C238.402 115.166 179.773 110.491 127.537 105.803C85.6394 102.042 59.8867 104.254 44.6826 108.706C37.0815 110.932 31.9338 113.771 28.748 116.873C27.3438 118.241 26.304 119.682 25.6211 121.145C17.4605 111.72 11.3992 97.6352 8.83691 82.759C5.93873 65.9325 7.6104 48.6581 15.1924 36.4905C25.6958 19.6346 45.1415 13.2325 78.9365 12.5852C112.688 11.9388 159.614 17.024 223.954 22.0354C275.434 26.0451 312.066 24.696 336.983 21.3489C349.441 19.6755 359.004 17.4982 366.047 15.2249C371.714 13.3957 375.894 11.4584 378.639 9.57642Z" fill="white" stroke="#DF2027" stroke-width="5"/>
<path d="M68.7139 49.2198L68.7139 82.4182L60.7482 82.4182L60.7482 61.0994L53.2659 71.943L45.7145 61.0994L45.9447 82.4182L38.6006 82.4182L38.8308 54.6071C38.8308 52.6271 38.3013 51.0846 37.2653 49.9796C38.7387 49.1738 40.3272 48.7594 42.0309 48.7594C42.7216 48.7594 43.3662 48.8515 43.9648 49.0126C44.5634 49.1738 45.0469 49.358 45.4613 49.5882C45.8757 49.8184 46.3131 50.1868 46.7735 50.6702C47.234 51.1767 47.6023 51.6142 47.8786 51.9825C48.1549 52.3509 48.5693 52.9264 49.0988 53.6632L53.6342 60.1094L61.3237 49.2198L68.7139 49.2198ZM92.6803 49.2198L103.294 82.4182L94.4761 82.4182L93.5782 79.08C93.1868 77.5605 92.312 76.5014 90.9536 75.8568C89.9407 75.3964 88.3291 75.1661 86.1419 75.1661C85.221 75.1661 83.9088 75.3043 82.2281 75.5805L80.2021 82.4182L73.0191 82.4182L83.6325 49.2198L92.6803 49.2198ZM87.5924 57.8993L84.116 69.3645C84.4613 69.3415 84.9678 69.3184 85.6585 69.3184C87.7305 69.3184 89.5723 69.6407 91.1378 70.2624L87.5924 57.8993ZM124.359 49.2198L124.359 55.9654L116.44 55.9654L116.44 82.4182L108.313 82.4182L108.313 55.9654L100.393 55.9654L100.393 49.2198L124.359 49.2198ZM149.247 50.5091L148.372 53.6632C148.095 54.5841 147.727 55.2517 147.244 55.6661C146.737 56.0805 146.092 56.2877 145.287 56.2877C144.872 56.2877 144.182 56.1956 143.238 55.9884C142.271 55.8042 141.419 55.6891 140.682 55.6891C139.393 55.6891 138.219 56.1956 137.206 57.1856C136.193 58.1756 135.41 59.4418 134.904 60.9613C134.374 62.4808 134.121 64.1154 134.121 65.819C134.121 68.8119 134.88 71.2293 136.446 73.1171C137.989 75.005 140.199 75.9489 143.076 75.9489C144.527 75.9489 146.3 75.7187 148.372 75.2122L148.372 81.198C146.346 82.234 143.928 82.7405 141.097 82.7405C138.058 82.7405 135.341 82.0268 132.993 80.5994C130.644 79.172 128.803 77.1921 127.513 74.6136C126.224 72.0351 125.579 69.1112 125.579 65.819C125.579 63.5168 125.856 61.4217 126.454 59.4878C127.053 57.577 127.836 55.9654 128.849 54.6761C129.839 53.3869 130.99 52.2818 132.325 51.3839C133.66 50.4861 135.042 49.8414 136.515 49.427C137.966 49.0126 139.462 48.8054 141.004 48.8054C143.744 48.8054 146.484 49.381 149.247 50.5091ZM161.126 49.2198L161.126 62.5268L170.611 62.5268L170.611 49.2198L178.761 49.2198L178.761 82.4182L170.565 82.4182L170.565 68.9731L161.126 68.9731L161.126 82.4182L152.976 82.4182L152.976 49.2198L161.126 49.2198ZM216.794 49.2198L216.265 52.5811C216.104 53.7092 215.758 54.561 215.206 55.1136C214.653 55.6891 213.732 55.9654 212.466 55.9654L207.654 55.9654L207.654 82.4182L199.528 82.4182L199.528 55.9654L191.608 55.9654L191.608 49.2198L216.794 49.2198ZM227.983 82.4182L219.879 82.4182L219.879 49.2198L227.983 49.2198L227.983 82.4182ZM263.668 49.2198L263.668 82.4182L255.702 82.4182L255.702 61.0994L248.22 71.943L240.669 61.0994L240.899 82.4182L233.555 82.4182L233.785 54.6071C233.785 52.6271 233.255 51.0846 232.219 49.9796C233.693 49.1738 235.281 48.7594 236.985 48.7594C237.676 48.7594 238.32 48.8515 238.919 49.0126C239.518 49.1738 240.001 49.358 240.415 49.5882C240.83 49.8184 241.267 50.1868 241.728 50.6702C242.188 51.1767 242.557 51.6142 242.833 51.9825C243.109 52.3509 243.523 52.9264 244.053 53.6632L248.588 60.1094L256.278 49.2198L263.668 49.2198ZM277.39 82.4182L269.286 82.4182L269.286 49.2198L277.39 49.2198L277.39 82.4182ZM308.516 49.2198L308.516 82.4182L301.379 82.4182L289.937 63.3786L289.937 82.4182L282.8 82.4182L282.8 53.9855C282.8 52.9264 282.662 52.0976 282.385 51.499C282.109 50.9005 281.741 50.3249 281.257 49.7954C281.833 49.4731 282.57 49.1738 283.49 48.8975C284.388 48.6443 285.309 48.5061 286.253 48.5061C286.829 48.5061 287.312 48.5522 287.681 48.6212C288.049 48.6903 288.486 48.8515 288.97 49.1047C289.43 49.358 289.914 49.7493 290.374 50.3019C290.835 50.8544 291.341 51.5911 291.871 52.489L301.379 68.5587L301.379 49.2198L308.516 49.2198ZM340.103 64.2074L340.103 77.7447C338.79 79.4023 337.087 80.6685 334.969 81.5203C332.851 82.3722 330.479 82.7866 327.901 82.7866C324.862 82.7866 322.191 82.0729 319.889 80.6225C317.587 79.1951 315.814 77.1921 314.594 74.6136C313.351 72.0581 312.752 69.1343 312.752 65.819C312.752 63.5168 313.051 61.4217 313.65 59.4878C314.248 57.577 315.077 55.9654 316.09 54.6761C317.103 53.3869 318.277 52.2818 319.636 51.3839C320.994 50.4861 322.398 49.8414 323.872 49.427C325.322 49.0126 326.819 48.8054 328.361 48.8054C331.032 48.8054 333.495 49.2198 335.774 50.0256L337.8 50.6933L337.708 51.0616C337.202 53.0416 336.649 54.4229 336.051 55.1826C335.452 55.9654 334.623 56.3338 333.564 56.3338C333.196 56.3338 332.367 56.2187 331.055 55.9654C329.674 55.7352 328.545 55.597 327.671 55.597C325.875 55.597 324.378 56.4949 323.158 58.2907C321.938 60.0864 321.339 62.6419 321.339 65.9111C321.339 69.6868 322.191 72.4265 323.895 74.1301C325.161 75.4654 327.072 76.1101 329.651 76.1101C330.894 76.1101 331.815 75.8798 332.459 75.3964L332.459 70.6768L327.279 70.6768L328.269 64.2074L340.103 64.2074ZM364.783 72.4725C364.783 75.7187 363.678 78.2742 361.514 80.116C359.35 81.9578 356.541 82.8787 353.087 82.8787C348.713 82.8787 345.743 81.7275 344.178 79.4023C343.418 78.3432 343.05 77.077 343.05 75.5805C343.05 74.3373 343.372 73.2783 344.017 72.3574C344.661 71.4365 345.49 70.8609 346.549 70.5847C346.779 72.3344 347.424 73.7157 348.483 74.7057C349.519 75.7187 350.969 76.2021 352.857 76.2021C354.239 76.2021 355.298 75.8798 356.034 75.2352C356.748 74.5906 357.116 73.8078 357.116 72.8869C357.116 71.6437 356.172 70.6307 354.331 69.871C353.985 69.7328 353.318 69.5256 352.305 69.2033C351.292 68.904 350.509 68.6508 349.933 68.4206C347.493 67.4997 345.72 66.2564 344.661 64.6909C343.648 63.2175 343.142 61.3757 343.142 59.2116C343.142 56.1035 344.132 53.5711 346.158 51.5911C348.161 49.6112 350.854 48.6212 354.239 48.6212C357.301 48.6212 359.718 49.3119 361.491 50.6933C362.826 51.7523 363.517 53.1106 363.517 54.7452C363.517 55.8273 363.171 56.7942 362.527 57.646C361.882 58.4979 360.984 59.0274 359.879 59.2576C358.912 56.4489 357.07 55.0215 354.377 55.0215C353.087 55.0215 352.12 55.3438 351.499 55.9884C350.854 56.6331 350.555 57.3237 350.555 58.0835C350.555 59.3267 351.338 60.3166 352.903 61.0534C353.387 61.2836 354.192 61.5829 355.344 61.9512C356.495 62.3426 357.254 62.6189 357.669 62.757C360.293 63.724 362.181 65.0593 363.286 66.7169C364.276 68.2364 364.783 70.1472 364.783 72.4725Z" fill="#DF2027"/>
</svg>
