<svg width="347" height="118" viewBox="0 0 347 118" fill="none" xmlns="http://www.w3.org/2000/svg">
<path d="M19.8645 3.5376C1.99115 16.4493 -6.4378 49.4932 13.7512 79.3872C19.142 87.3692 30.5651 92.4653 45.3342 95.7056C60.2342 98.9745 79.0909 100.467 100.04 100.798C141.952 101.462 192.624 97.4814 237.568 93.5112C273.435 90.3429 294.995 92.2621 307.345 95.8218C313.522 97.6021 317.244 99.7509 319.32 101.74C321.369 103.704 321.72 105.397 321.54 106.518L320.609 112.317L324.925 108.334C334.245 99.7377 340.892 85.4046 343.489 70.5659C346.084 55.7329 344.711 39.9386 337.439 28.4526C327.172 12.237 308.383 6.81209 279.108 6.26025C249.789 5.7076 209.02 10.0502 153.884 14.2769C109.781 17.6577 78.5535 16.5076 57.47 13.7202C46.9274 12.3264 38.9479 10.5261 33.177 8.69287C27.3463 6.84065 23.9446 5.00788 22.3899 3.65283L21.1731 2.59228L19.8645 3.5376Z" fill="white" stroke="#B9272D" stroke-width="4.06456"/>
<path d="M21.0591 7.73975C5.99732 19.8198 -1.53892 49.4839 17.1206 77.1128C21.5633 83.6907 31.5628 88.5224 46.2056 91.7349C60.7177 94.9187 79.2628 96.4048 100.105 96.7349C141.777 97.3948 192.249 93.4341 237.209 89.4624C273.265 86.2774 295.41 88.1521 308.47 91.9165C314.999 93.7982 319.408 96.1944 322.132 98.8052C323.388 100.008 324.302 101.279 324.883 102.568C331.99 94.5672 337.265 82.5524 339.485 69.8657C341.981 55.6053 340.544 40.955 334.005 30.6274C324.935 16.301 308.136 10.8724 279.032 10.3237C249.971 9.77594 209.566 14.0849 154.195 18.3296C109.892 21.7258 78.372 20.5832 56.938 17.7495C46.222 16.3328 37.9992 14.4895 31.9468 12.5669C27.0151 11.0003 23.4046 9.34179 21.0591 7.73975Z" fill="white" stroke="#DF2027" stroke-width="4.06456"/>
<path d="M42.9257 65.3125C40.0955 65.3125 37.7027 64.9394 35.7473 64.1933C33.792 63.4214 32.3125 62.2894 31.3091 60.7971C30.3057 59.3048 29.804 57.4652 29.804 55.2783C29.804 54.6608 29.8426 54.0175 29.9198 53.3486C29.9969 52.6796 30.087 52.0364 30.1899 51.4189C30.2928 50.8014 30.3957 50.2611 30.4987 49.798C30.6016 49.3092 30.6788 48.9361 30.7302 48.6788L36.4806 49.798C36.4034 50.1839 36.3005 50.6857 36.1719 51.3032C36.0432 51.9206 35.9274 52.5767 35.8245 53.2714C35.7473 53.9404 35.7087 54.5836 35.7087 55.2011C35.7087 56.2045 35.876 57.0407 36.2105 57.7096C36.5449 58.3529 37.0338 58.8674 37.677 59.2534C38.3202 59.6393 39.105 59.9094 40.0312 60.0638C40.9832 60.1925 42.0638 60.2568 43.273 60.2568H53.2301V45.9001H59.1348V65.3125H42.9257ZM37.9086 44.6651V39.9567H43.5432V44.6651H37.9086ZM45.5114 44.6651V39.9567H51.146V44.6651H45.5114ZM70.5379 65.3125V60.2568H74.8218V65.3125H70.5379ZM64.6718 65.3125V38.1815H70.5379V65.3125H64.6718ZM74.8218 65.3125V60.2568C74.9762 60.2568 75.0919 60.3211 75.1691 60.4498C75.272 60.5527 75.3492 60.7199 75.4007 60.9515C75.4779 61.1573 75.5293 61.4146 75.5551 61.7233C75.5808 62.0321 75.5937 62.3794 75.5937 62.7653C75.5937 63.1513 75.5808 63.5115 75.5551 63.846C75.5293 64.1547 75.4779 64.4249 75.4007 64.6564C75.3492 64.8622 75.272 65.0295 75.1691 65.1581C75.0919 65.261 74.9762 65.3125 74.8218 65.3125ZM74.8058 65.3125V60.2568H85.1874L81.5982 63.2285V45.9001H87.503V65.3125H74.8058ZM74.8058 65.3125C74.6772 65.3125 74.5614 65.261 74.4585 65.1581C74.3556 65.0295 74.2784 64.8622 74.2269 64.6564C74.1755 64.4249 74.1369 64.1547 74.1111 63.846C74.0597 63.5115 74.0339 63.1513 74.0339 62.7653C74.0339 62.2508 74.0597 61.8134 74.1111 61.4532C74.1626 61.0672 74.2526 60.7714 74.3813 60.5655C74.4842 60.3597 74.6257 60.2568 74.8058 60.2568V65.3125ZM76.1566 73.9574V69.249H81.7912V73.9574H76.1566ZM83.7594 73.9574V69.249H89.3941V73.9574H83.7594ZM94.3334 75.2696C94.0504 75.2696 93.703 75.2438 93.2914 75.1924C92.8797 75.1666 92.4552 75.1409 92.0178 75.1152L92.2108 70.1367C92.6224 70.1367 93.0212 70.1495 93.4071 70.1752C93.7931 70.201 94.0761 70.2138 94.2562 70.2138C95.2082 70.2138 95.9543 69.8408 96.4946 69.0946C97.0606 68.3485 97.3437 67.2679 97.3437 65.8528V45.9001H103.248V65.8528C103.248 67.6796 102.875 69.3005 102.129 70.7156C101.383 72.1564 100.341 73.2756 99.0032 74.0732C97.6653 74.8708 96.1087 75.2696 94.3334 75.2696ZM115.011 65.3125V60.2568H119.294V65.3125H115.011ZM109.144 65.3125V38.1815H115.011V65.3125H109.144ZM119.294 65.3125V60.2568C119.449 60.2568 119.565 60.3211 119.642 60.4498C119.745 60.5527 119.822 60.7199 119.873 60.9515C119.951 61.1573 120.002 61.4146 120.028 61.7233C120.053 62.0321 120.066 62.3794 120.066 62.7653C120.066 63.1513 120.053 63.5115 120.028 63.846C120.002 64.1547 119.951 64.4249 119.873 64.6564C119.822 64.8622 119.745 65.0295 119.642 65.1581C119.565 65.261 119.449 65.3125 119.294 65.3125ZM129.197 65.3125V60.2568H133.249V65.3125H129.197ZM119.278 65.3125C119.124 65.3125 119.008 65.261 118.931 65.1581C118.828 65.0295 118.751 64.8622 118.7 64.6564C118.648 64.4249 118.61 64.1547 118.584 63.846C118.532 63.5115 118.507 63.1513 118.507 62.7653C118.507 62.2508 118.532 61.8134 118.584 61.4532C118.635 61.0672 118.725 60.7714 118.854 60.5655C118.957 60.3597 119.098 60.2568 119.278 60.2568V65.3125ZM119.278 65.3125V60.2568H126.881L123.292 63.2285V45.9001H129.197V65.3125H119.278ZM133.249 65.3125V60.2568C133.378 60.2568 133.494 60.3211 133.597 60.4498C133.699 60.5527 133.777 60.7199 133.828 60.9515C133.88 61.1573 133.918 61.4146 133.944 61.7233C133.995 62.0321 134.021 62.3794 134.021 62.7653C134.021 63.1513 133.995 63.5115 133.944 63.846C133.918 64.1547 133.88 64.4249 133.828 64.6564C133.777 64.8622 133.699 65.0295 133.597 65.1581C133.494 65.261 133.378 65.3125 133.249 65.3125ZM123.292 73.9574V69.249H129.236V73.9574H123.292ZM156.417 65.3125V60.2568H160.431V65.3125H156.417ZM133.261 65.3125C133.132 65.3125 133.017 65.261 132.914 65.1581C132.811 65.0295 132.734 64.8622 132.682 64.6564C132.631 64.4249 132.592 64.1547 132.566 63.846C132.515 63.5115 132.489 63.1513 132.489 62.7653C132.489 62.2508 132.515 61.8134 132.566 61.4532C132.618 61.0672 132.708 60.7714 132.836 60.5655C132.939 60.3597 133.081 60.2568 133.261 60.2568V65.3125ZM133.222 65.3125V60.2568H152.905L150.512 62.3794V55.7028C150.512 54.4421 150.371 53.4644 150.088 52.7697C149.83 52.075 149.354 51.5862 148.66 51.3032C147.991 51.0201 147.052 50.8786 145.842 50.8786C144.788 50.8786 143.758 50.943 142.755 51.0716C141.777 51.2002 141.005 51.3803 140.439 51.6119L144.106 48.2157C143.951 48.7817 143.797 49.515 143.643 50.4155C143.514 51.316 143.398 52.268 143.295 53.2714C143.218 54.2491 143.179 55.2011 143.179 56.1273C143.179 56.9764 143.218 57.8769 143.295 58.8288C143.398 59.7808 143.501 60.6299 143.604 61.376C143.733 62.0964 143.823 62.5852 143.874 62.8425L138.278 64.4249C138.149 64.0389 138.008 63.4343 137.854 62.611C137.699 61.7877 137.571 60.8228 137.468 59.7165C137.365 58.5844 137.313 57.388 137.313 56.1273C137.313 54.8666 137.365 53.6445 137.468 52.461C137.596 51.2517 137.751 50.1582 137.931 49.1805C138.111 48.2028 138.278 47.431 138.432 46.8649C139.05 46.6334 140.028 46.4018 141.366 46.1703C142.729 45.9387 144.221 45.8229 145.842 45.8229C148.209 45.8229 150.165 46.1445 151.709 46.7877C153.278 47.431 154.449 48.473 155.221 49.9138C156.018 51.3546 156.417 53.2971 156.417 55.7414V65.3125H133.222ZM160.431 65.3125V60.2568C160.585 60.2568 160.701 60.3211 160.778 60.4498C160.881 60.5527 160.958 60.7199 161.01 60.9515C161.087 61.1573 161.138 61.4146 161.164 61.7233C161.19 62.0321 161.203 62.3794 161.203 62.7653C161.203 63.1513 161.19 63.5115 161.164 63.846C161.138 64.1547 161.087 64.4249 161.01 64.6564C160.958 64.8622 160.881 65.0295 160.778 65.1581C160.701 65.261 160.585 65.3125 160.431 65.3125ZM164.718 65.3125V38.1815H170.623V65.3125H164.718ZM160.435 65.3125V60.2568H164.718V65.3125H160.435ZM160.435 65.3125C160.306 65.3125 160.19 65.261 160.087 65.1581C159.984 65.0295 159.907 64.8622 159.856 64.6564C159.804 64.4249 159.766 64.1547 159.74 63.846C159.688 63.5115 159.663 63.1513 159.663 62.7653C159.663 62.2508 159.688 61.8134 159.74 61.4532C159.791 61.0672 159.881 60.7714 160.01 60.5655C160.113 60.3597 160.254 60.2568 160.435 60.2568V65.3125ZM176.607 65.3125V38.1815H182.473V65.3125H176.607ZM205.665 65.3125C203.504 65.3125 201.677 64.9652 200.185 64.2705C198.718 63.5758 197.612 62.5209 196.866 61.1058C196.145 59.6908 195.785 57.9155 195.785 55.78C195.785 53.6187 196.145 51.8049 196.866 50.3383C197.612 48.8718 198.718 47.7654 200.185 47.0193C201.677 46.2732 203.504 45.9001 205.665 45.9001H214.657V62.5724H208.752V49.9524L209.949 50.9558H205.665C204.79 50.9558 204.057 51.0716 203.465 51.3032C202.873 51.509 202.423 51.9592 202.114 52.6539C201.831 53.3229 201.69 54.3649 201.69 55.78C201.69 57.0921 201.818 58.0698 202.076 58.7131C202.333 59.3563 202.758 59.7808 203.349 59.9866C203.941 60.1667 204.713 60.2568 205.665 60.2568H218.671V65.3125H205.665ZM218.671 65.3125V60.2568C218.825 60.2568 218.941 60.3211 219.018 60.4498C219.121 60.5527 219.198 60.7199 219.25 60.9515C219.327 61.1573 219.378 61.4146 219.404 61.7233C219.43 62.0321 219.443 62.3794 219.443 62.7653C219.443 63.1513 219.43 63.5115 219.404 63.846C219.378 64.1547 219.327 64.4249 219.25 64.6564C219.198 64.8622 219.121 65.0295 219.018 65.1581C218.941 65.261 218.825 65.3125 218.671 65.3125ZM199.258 42.3109V37.6026H204.893V42.3109H199.258ZM206.861 42.3109V37.6026H212.496V42.3109H206.861ZM246.296 65.3125V60.2568H250.349V65.3125H246.296ZM218.664 65.3125V60.2568H246.065L241.163 64.4634V56.6676C241.163 55.2783 240.971 54.1719 240.585 53.3486C240.224 52.5253 239.71 51.9206 239.041 51.5347C238.372 51.1488 237.574 50.9558 236.648 50.9558C235.542 50.9558 234.487 51.1874 233.483 51.6505C232.506 52.1136 231.579 52.7054 230.705 53.4258C229.856 54.1462 229.071 54.9181 228.351 55.7414C227.63 56.5647 226.987 57.3494 226.421 58.0956C225.855 58.8417 225.392 59.4335 225.032 59.8709L223.797 55.8572C224.929 54.3649 225.971 53.0141 226.923 51.8049C227.875 50.5956 228.852 49.5536 229.856 48.6788C230.859 47.7783 231.953 47.0965 233.136 46.6334C234.345 46.1445 235.76 45.9001 237.381 45.9001C239.054 45.9001 240.495 46.1831 241.704 46.7492C242.939 47.3152 243.955 48.0999 244.753 49.1033C245.55 50.1068 246.129 51.2646 246.489 52.5767C246.875 53.8632 247.068 55.2268 247.068 56.6676V65.3125H218.664ZM221.365 60.2568V38.1815H227.27V60.2568H221.365ZM218.664 65.3125C218.535 65.3125 218.419 65.261 218.316 65.1581C218.213 65.0295 218.136 64.8622 218.085 64.6564C218.033 64.4249 217.995 64.1547 217.969 63.846C217.917 63.5115 217.892 63.1513 217.892 62.7653C217.892 62.2508 217.917 61.8134 217.969 61.4532C218.02 61.0672 218.11 60.7714 218.239 60.5655C218.342 60.3597 218.484 60.2568 218.664 60.2568V65.3125ZM250.349 65.3125V60.2568C250.477 60.2568 250.593 60.3211 250.696 60.4498C250.799 60.5527 250.876 60.7199 250.928 60.9515C250.979 61.1573 251.018 61.4146 251.043 61.7233C251.095 62.0321 251.121 62.3794 251.121 62.7653C251.121 63.1513 251.095 63.5115 251.043 63.846C251.018 64.1547 250.979 64.4249 250.928 64.6564C250.876 64.8622 250.799 65.0295 250.696 65.1581C250.593 65.261 250.477 65.3125 250.349 65.3125ZM250.36 65.3125V60.2568H260.741L257.152 63.2285V45.9001H263.057V65.3125H250.36ZM250.36 65.3125C250.231 65.3125 250.115 65.261 250.012 65.1581C249.91 65.0295 249.832 64.8622 249.781 64.6564C249.729 64.4249 249.691 64.1547 249.665 63.846C249.614 63.5115 249.588 63.1513 249.588 62.7653C249.588 62.2508 249.614 61.8134 249.665 61.4532C249.717 61.0672 249.807 60.7714 249.935 60.5655C250.038 60.3597 250.18 60.2568 250.36 60.2568V65.3125ZM251.711 73.9574V69.249H257.345V73.9574H251.711ZM259.313 73.9574V69.249H264.948V73.9574H259.313ZM277.838 65.3125V60.2568H282.816V65.3125H277.838ZM269.887 75.2696C269.604 75.2696 269.257 75.2438 268.845 75.1924C268.434 75.1666 268.009 75.1409 267.572 75.1152L267.765 70.1367C268.176 70.1367 268.575 70.1495 268.961 70.1752C269.347 70.201 269.63 70.2138 269.81 70.2138C270.762 70.2138 271.508 69.8408 272.049 69.0946C272.615 68.3485 272.898 67.2679 272.898 65.8528V45.9001H278.802V65.8528C278.802 67.6796 278.429 69.3005 277.683 70.7156C276.937 72.1564 275.895 73.2756 274.557 74.0732C273.219 74.8708 271.663 75.2696 269.887 75.2696ZM282.816 65.3125V60.2568C282.971 60.2568 283.086 60.3211 283.163 60.4498C283.266 60.5527 283.344 60.7199 283.395 60.9515C283.472 61.1573 283.524 61.4146 283.549 61.7233C283.575 62.0321 283.588 62.3794 283.588 62.7653C283.588 63.1513 283.575 63.5115 283.549 63.846C283.524 64.1547 283.472 64.4249 283.395 64.6564C283.344 64.8622 283.266 65.0295 283.163 65.1581C283.086 65.261 282.971 65.3125 282.816 65.3125ZM282.81 65.3125V60.2568H299.251L297.205 61.8391V55.587C297.205 54.0947 296.742 52.9627 295.816 52.1908C294.889 51.3932 293.397 50.9944 291.339 50.9944C290.773 50.9944 290.014 51.033 289.062 51.1102C288.11 51.1874 287.068 51.3032 285.936 51.4575L285.396 46.8263C286.476 46.569 287.57 46.3504 288.676 46.1703C289.808 45.9902 290.902 45.9001 291.956 45.9001C294.118 45.9001 296.034 46.2989 297.707 47.0965C299.379 47.8684 300.691 48.9747 301.643 50.4155C302.621 51.8306 303.11 53.5544 303.11 55.587V65.3125H282.81ZM282.81 65.3125C282.681 65.3125 282.565 65.261 282.462 65.1581C282.36 65.0295 282.282 64.8622 282.231 64.6564C282.179 64.4249 282.141 64.1547 282.115 63.846C282.064 63.5115 282.038 63.1513 282.038 62.7653C282.038 62.2508 282.064 61.8134 282.115 61.4532C282.167 61.0672 282.257 60.7714 282.385 60.5655C282.488 60.3597 282.63 60.2568 282.81 60.2568V65.3125ZM288.985 42.7355V38.0271H294.928V42.7355H288.985Z" fill="#DF2027"/>
</svg>
