<svg width="404" height="194" viewBox="0 0 404 194" fill="none" xmlns="http://www.w3.org/2000/svg">
<path d="M23.2598 4.40283C2.43774 19.6862 -7.3432 58.7392 16.1289 94.0522C22.4189 103.515 35.7372 109.543 52.9082 113.371C70.2357 117.233 92.1573 118.996 116.501 119.387C165.204 120.171 224.082 115.47 276.297 110.784C317.959 107.044 342.981 109.312 357.299 113.505C364.459 115.602 368.76 118.128 371.15 120.456C373.509 122.752 373.908 124.727 373.702 126.028L372.563 133.227L377.882 128.243C388.733 118.073 396.459 101.132 399.478 83.6089C402.495 66.0919 400.902 47.4285 392.438 33.8462C380.476 14.6482 358.576 8.2382 324.546 7.58643C290.472 6.93382 243.092 12.0627 179.045 17.0513C127.815 21.0416 91.5486 19.6823 67.0693 16.394C54.8287 14.7498 45.5689 12.6275 38.876 10.4673C32.1098 8.28341 28.1815 6.12714 26.3965 4.54639L24.8857 3.20947L23.2598 4.40283Z" fill="white" stroke="#B9272D" stroke-width="5"/>
<path d="M24.7476 9.57666C7.36378 23.8449 -1.33112 58.7526 20.2925 91.2847C25.4268 99.0089 36.9962 104.7 53.9956 108.49C70.8389 112.244 92.3711 113.998 116.581 114.387C164.984 115.166 223.613 110.492 275.849 105.803C317.747 102.043 343.5 104.254 358.704 108.707C366.305 110.933 371.452 113.771 374.638 116.874C376.042 118.241 377.082 119.682 377.765 121.145C385.926 111.72 391.987 97.6354 394.549 82.7593C397.448 65.9327 395.776 48.6583 388.194 36.4907C377.69 19.6349 358.245 13.2327 324.45 12.5854C290.698 11.939 243.773 17.0242 179.432 22.0356C127.953 26.0453 91.32 24.6962 66.4028 21.3491C53.9457 19.6757 44.3826 17.4984 37.3394 15.2251C31.6723 13.396 27.4923 11.4587 24.7476 9.57666Z" fill="white" stroke="#DF2027" stroke-width="5"/>
<path d="M48.8239 78.8135L48.8239 68.299C48.8239 65.1871 49.3268 62.6725 50.3327 60.755C51.3386 58.8062 52.8159 57.3759 54.7648 56.4644C56.7451 55.5528 59.1812 55.097 62.073 55.097C64.9649 55.097 67.3853 55.5528 69.3341 56.4644C71.3144 57.3759 72.7918 58.8062 73.7662 60.755C74.7721 62.6725 75.275 65.1871 75.275 68.299L75.275 78.8135L48.8239 78.8135ZM56.0378 75.843L52.643 72.6368L71.4559 72.6368L68.1082 75.843L68.1082 68.5348C68.1082 66.7745 67.9511 65.36 67.6367 64.2913C67.3224 63.2225 66.7252 62.4524 65.845 61.9809C64.9649 61.5094 63.7076 61.2737 62.073 61.2737C60.4385 61.2737 59.1812 61.5094 58.301 61.9809C57.4209 62.4524 56.8237 63.2225 56.5093 64.2913C56.195 65.36 56.0378 66.7745 56.0378 68.5348L56.0378 75.843ZM54.0104 50.7121L54.0104 44.9598L60.8943 44.9598L60.8943 50.7121L54.0104 50.7121ZM63.2989 50.7121L63.2989 44.9598L70.1828 44.9598L70.1828 50.7121L63.2989 50.7121ZM81.2926 78.8135L81.2926 45.667L88.4594 45.667L88.4594 78.8135L81.2926 78.8135ZM94.8305 90.9782C94.4847 90.9782 94.0604 90.9467 93.5575 90.8839C93.0545 90.8524 92.5359 90.821 92.0015 90.7896L92.2373 84.7072C92.7402 84.7072 93.2274 84.7229 93.6989 84.7544C94.1704 84.7858 94.5162 84.8015 94.7362 84.8015C95.8992 84.8015 96.8108 84.3457 97.4709 83.4342C98.1624 82.5226 98.5082 81.2024 98.5082 79.4736L98.5082 55.097L105.722 55.097L105.722 79.4736C105.722 81.7053 105.266 83.6856 104.355 85.4145C103.443 87.1747 102.17 88.5421 100.536 89.5165C98.9011 90.491 96.9994 90.9782 94.8305 90.9782ZM120.092 78.8135L120.092 72.6368L125.326 72.6368L125.326 78.8135L120.092 78.8135ZM112.925 78.8135L112.925 45.667L120.092 45.667L120.092 78.8135L112.925 78.8135ZM125.326 78.8135L125.326 72.6368C125.514 72.6368 125.656 72.7154 125.75 72.8726C125.876 72.9983 125.97 73.2026 126.033 73.4855C126.127 73.737 126.19 74.0513 126.222 74.4285C126.253 74.8057 126.269 75.2301 126.269 75.7016C126.269 76.1731 126.253 76.6131 126.222 77.0218C126.19 77.399 126.127 77.729 126.033 78.0119C125.97 78.2634 125.876 78.4677 125.75 78.6249C125.656 78.7506 125.514 78.8135 125.326 78.8135ZM137.424 78.8135L137.424 72.6368L142.375 72.6368L142.375 78.8135L137.424 78.8135ZM125.306 78.8135C125.118 78.8135 124.976 78.7506 124.882 78.6249C124.756 78.4677 124.662 78.2634 124.599 78.0119C124.536 77.729 124.489 77.399 124.458 77.0218C124.395 76.6131 124.363 76.1731 124.363 75.7016C124.363 75.0729 124.395 74.5385 124.458 74.0985C124.521 73.627 124.631 73.2655 124.788 73.014C124.913 72.7626 125.086 72.6368 125.306 72.6368L125.306 78.8135ZM125.306 78.8135L125.306 72.6368L134.595 72.6368L130.21 76.2674L130.21 55.097L137.424 55.097L137.424 78.8135L125.306 78.8135ZM142.375 78.8135L142.375 72.6368C142.532 72.6368 142.673 72.7154 142.799 72.8726C142.925 72.9983 143.019 73.2026 143.082 73.4855C143.145 73.737 143.192 74.0513 143.223 74.4285C143.286 74.8057 143.318 75.2301 143.318 75.7016C143.318 76.1731 143.286 76.6131 143.223 77.0218C143.192 77.399 143.145 77.729 143.082 78.0119C143.019 78.2634 142.925 78.4677 142.799 78.6249C142.673 78.7506 142.532 78.8135 142.375 78.8135ZM130.21 89.3751L130.21 83.6228L137.471 83.6228L137.471 89.3751L130.21 89.3751ZM170.679 78.8135L170.679 72.6368L175.583 72.6368L175.583 78.8135L170.679 78.8135ZM142.389 78.8135C142.232 78.8135 142.09 78.7506 141.965 78.6249C141.839 78.4677 141.745 78.2634 141.682 78.0119C141.619 77.729 141.572 77.399 141.54 77.0218C141.477 76.6131 141.446 76.1731 141.446 75.7016C141.446 75.0729 141.477 74.5385 141.54 74.0985C141.603 73.627 141.713 73.2655 141.87 73.014C141.996 72.7626 142.169 72.6368 142.389 72.6368L142.389 78.8135ZM142.342 78.8135L142.342 72.6368L166.388 72.6368L163.465 75.2301L163.465 67.0731C163.465 65.5329 163.292 64.3384 162.946 63.4897C162.632 62.641 162.051 62.0438 161.202 61.698C160.385 61.3523 159.237 61.1794 157.76 61.1794C156.471 61.1794 155.214 61.258 153.988 61.4151C152.793 61.5723 151.85 61.7923 151.159 62.0752L155.638 57.926C155.45 58.6176 155.261 59.5134 155.072 60.6136C154.915 61.7137 154.774 62.8768 154.648 64.1027C154.554 65.2971 154.507 66.4602 154.507 67.5918C154.507 68.6291 154.554 69.7292 154.648 70.8923C154.774 72.0553 154.899 73.0926 155.025 74.0042C155.182 74.8843 155.292 75.4815 155.355 75.7959L148.519 77.729C148.361 77.2575 148.188 76.5188 148 75.513C147.811 74.5071 147.654 73.3284 147.528 71.9767C147.403 70.5937 147.34 69.132 147.34 67.5918C147.34 66.0515 147.403 64.5585 147.528 63.1125C147.686 61.6352 147.874 60.2992 148.094 59.1048C148.314 57.9103 148.519 56.9673 148.707 56.2758C149.462 55.9929 150.656 55.71 152.291 55.4271C153.956 55.1442 155.78 55.0027 157.76 55.0027C160.652 55.0027 163.041 55.3956 164.927 56.1815C166.844 56.9673 168.274 58.2404 169.217 60.0006C170.192 61.7609 170.679 64.1341 170.679 67.1203L170.679 78.8135L142.342 78.8135ZM175.583 78.8135L175.583 72.6368C175.771 72.6368 175.913 72.7154 176.007 72.8726C176.133 72.9983 176.227 73.2026 176.29 73.4855C176.384 73.737 176.447 74.0513 176.478 74.4285C176.51 74.8057 176.526 75.2301 176.526 75.7016C176.526 76.1731 176.51 76.6131 176.478 77.0218C176.447 77.399 176.384 77.729 176.29 78.0119C176.227 78.2634 176.133 78.4677 176.007 78.6249C175.913 78.7506 175.771 78.8135 175.583 78.8135ZM180.821 78.8135L180.821 45.667L188.035 45.667L188.035 78.8135L180.821 78.8135ZM175.587 78.8135L175.587 72.6368L180.821 72.6368L180.821 78.8135L175.587 78.8135ZM175.587 78.8135C175.43 78.8135 175.289 78.7506 175.163 78.6249C175.037 78.4677 174.943 78.2634 174.88 78.0119C174.817 77.729 174.77 77.399 174.739 77.0218C174.676 76.6131 174.644 76.1731 174.644 75.7016C174.644 75.0729 174.676 74.5385 174.739 74.0985C174.802 73.627 174.912 73.2655 175.069 73.014C175.194 72.7626 175.367 72.6368 175.587 72.6368L175.587 78.8135ZM195.346 78.8135L195.346 45.667L202.513 45.667L202.513 78.8135L195.346 78.8135ZM238.249 78.8135L238.249 72.6368L243.152 72.6368L243.152 78.8135L238.249 78.8135ZM218.776 78.8135L218.776 72.6368L235.75 72.6368L231.035 76.6917L231.035 69.5721C231.035 67.4032 230.815 65.7215 230.375 64.527C229.935 63.3326 229.212 62.4996 228.206 62.0281C227.2 61.5251 225.817 61.2737 224.057 61.2737L220.237 61.2737L220.237 55.097L224.057 55.097C227.106 55.097 229.683 55.6 231.789 56.6058C233.895 57.6117 235.498 59.1834 236.598 61.3208C237.699 63.4269 238.249 66.1773 238.249 69.5721L238.249 78.8135L218.776 78.8135ZM243.152 78.8135L243.152 72.6368C243.341 72.6368 243.482 72.7154 243.577 72.8726C243.702 72.9983 243.797 73.2026 243.86 73.4855C243.954 73.737 244.017 74.0513 244.048 74.4285C244.08 74.8057 244.095 75.2301 244.095 75.7016C244.095 76.1731 244.08 76.6131 244.048 77.0218C244.017 77.399 243.954 77.729 243.86 78.0119C243.797 78.2634 243.702 78.4677 243.577 78.6249C243.482 78.7506 243.341 78.8135 243.152 78.8135ZM258.648 78.8135L258.648 72.6368L264.777 72.6368L264.777 78.8135L258.648 78.8135ZM264.777 78.8135L264.777 72.6368C264.966 72.6368 265.107 72.7154 265.202 72.8726C265.327 72.9983 265.422 73.2026 265.484 73.4855C265.579 73.737 265.642 74.0513 265.673 74.4285C265.704 74.8057 265.72 75.2301 265.72 75.7016C265.72 76.1731 265.704 76.6131 265.673 77.0218C265.642 77.399 265.579 77.729 265.484 78.0119C265.422 78.2634 265.327 78.4677 265.202 78.6249C265.107 78.7506 264.966 78.8135 264.777 78.8135ZM243.135 78.8135C242.947 78.8135 242.805 78.7506 242.711 78.6249C242.585 78.4677 242.491 78.2634 242.428 78.0119C242.365 77.729 242.318 77.399 242.287 77.0218C242.224 76.6131 242.192 76.1731 242.192 75.7016C242.192 75.0729 242.224 74.5385 242.287 74.0985C242.349 73.627 242.459 73.2655 242.617 73.014C242.742 72.7626 242.915 72.6368 243.135 72.6368L243.135 78.8135ZM243.135 78.8135L243.135 72.6368L255.819 72.6368L251.434 76.2674L251.434 55.097L258.648 55.097L258.648 78.8135L243.135 78.8135ZM244.786 89.3751L244.786 83.6228L251.669 83.6228L251.669 89.3751L244.786 89.3751ZM254.074 89.3751L254.074 83.6228L260.958 83.6228L260.958 89.3751L254.074 89.3751ZM273.122 77.8705C271.582 76.3302 270.419 74.7429 269.633 73.1083C268.878 71.4738 268.501 69.7292 268.501 67.8747C268.501 65.9572 268.847 64.2284 269.539 62.6882C270.262 61.1165 271.236 59.7649 272.462 58.6333C273.719 57.5017 275.149 56.6373 276.753 56.04C278.356 55.4114 280.053 55.097 281.845 55.097C282.788 55.097 283.762 55.1913 284.768 55.3799C285.805 55.5685 286.795 55.82 287.738 56.1343L285.664 61.9809C285.067 61.7609 284.469 61.588 283.872 61.4623C283.275 61.3365 282.678 61.2737 282.08 61.2737C280.823 61.2737 279.707 61.5566 278.733 62.1224C277.758 62.6882 277.004 63.4583 276.47 64.4327C275.967 65.3757 275.715 66.4916 275.715 67.7804C275.715 68.8805 275.935 69.9178 276.375 70.8923C276.815 71.8667 277.491 72.7783 278.403 73.627L273.122 77.8705ZM264.776 78.8135L264.776 72.6368L288.163 72.6368L288.163 78.8135L264.776 78.8135ZM264.776 78.8135C264.619 78.8135 264.478 78.7506 264.352 78.6249C264.226 78.4677 264.132 78.2634 264.069 78.0119C264.006 77.729 263.959 77.399 263.928 77.0218C263.865 76.6131 263.833 76.1731 263.833 75.7016C263.833 75.0729 263.865 74.5385 263.928 74.0985C263.991 73.627 264.101 73.2655 264.258 73.014C264.384 72.7626 264.556 72.6368 264.776 72.6368L264.776 78.8135ZM296 78.8135L296 45.667L303.167 45.667L303.167 78.8135L296 78.8135ZM332.264 78.8135L332.264 72.6368L337.168 72.6368L337.168 78.8135L332.264 78.8135ZM319.015 90.9782C317.821 90.9782 316.579 90.8839 315.29 90.6953C314.002 90.5381 312.65 90.3024 311.235 89.988L312.32 84.2357C313.86 84.4243 315.165 84.5658 316.233 84.6601C317.333 84.7544 318.261 84.8015 319.015 84.8015C321.153 84.8015 322.693 84.4243 323.636 83.6699C324.579 82.9155 325.05 81.7682 325.05 80.228L325.05 60.2364L326.512 61.2737L321.278 61.2737C320.21 61.2737 319.314 61.4151 318.591 61.698C317.868 61.9495 317.318 62.4996 316.941 63.3483C316.595 64.1655 316.422 65.4386 316.422 67.1674C316.422 68.7705 316.579 69.965 316.893 70.7508C317.208 71.5367 317.726 72.0553 318.449 72.3068C319.172 72.5268 320.115 72.6368 321.278 72.6368L325.05 72.6368L325.05 78.8135L321.278 78.8135C318.638 78.8135 316.406 78.3891 314.583 77.5404C312.791 76.6917 311.44 75.403 310.528 73.6741C309.648 71.9453 309.208 69.7764 309.208 67.1674C309.208 64.527 309.648 62.311 310.528 60.5193C311.44 58.7276 312.791 57.3759 314.583 56.4644C316.406 55.5528 318.638 55.097 321.278 55.097L332.264 55.097L332.264 80.228C332.264 82.4283 331.714 84.33 330.614 85.9331C329.514 87.5677 327.974 88.8093 325.993 89.658C324.013 90.5381 321.687 90.9782 319.015 90.9782ZM337.168 78.8135L337.168 72.6368C337.356 72.6368 337.498 72.7154 337.592 72.8726C337.718 72.9983 337.812 73.2026 337.875 73.4855C337.969 73.737 338.032 74.0513 338.064 74.4285C338.095 74.8057 338.111 75.2301 338.111 75.7016C338.111 76.1731 338.095 76.6131 338.064 77.0218C338.032 77.399 337.969 77.729 337.875 78.0119C337.812 78.2634 337.718 78.4677 337.592 78.6249C337.498 78.7506 337.356 78.8135 337.168 78.8135ZM337.112 78.8135L337.112 72.6368L361.158 72.6368L358.235 75.2301L358.235 67.0731C358.235 65.5329 358.062 64.3384 357.716 63.4897C357.402 62.641 356.821 62.0438 355.972 61.698C355.155 61.3523 354.007 61.1794 352.53 61.1794C351.241 61.1794 349.984 61.258 348.758 61.4151C347.563 61.5723 346.62 61.7923 345.929 62.0752L350.408 57.926C350.22 58.6176 350.031 59.5134 349.842 60.6136C349.685 61.7137 349.544 62.8768 349.418 64.1027C349.324 65.2971 349.277 66.4602 349.277 67.5918C349.277 68.6291 349.324 69.7292 349.418 70.8923C349.544 72.0553 349.669 73.0926 349.795 74.0042C349.952 74.8843 350.062 75.4815 350.125 75.7959L343.289 77.729C343.131 77.2575 342.958 76.5188 342.77 75.513C342.581 74.5071 342.424 73.3284 342.298 71.9767C342.173 70.5937 342.11 69.132 342.11 67.5918C342.11 66.0515 342.173 64.5585 342.298 63.1125C342.456 61.6352 342.644 60.2992 342.864 59.1048C343.084 57.9103 343.289 56.9673 343.477 56.2758C344.232 55.9929 345.426 55.71 347.061 55.4271C348.726 55.1442 350.55 55.0027 352.53 55.0027C355.422 55.0027 357.811 55.3956 359.697 56.1815C361.614 56.9673 363.044 58.2404 363.987 60.0006C364.962 61.7609 365.449 64.1341 365.449 67.1203L365.449 78.8135L337.112 78.8135ZM337.159 78.8135C337.002 78.8135 336.86 78.7506 336.735 78.6249C336.609 78.4677 336.515 78.2634 336.452 78.0119C336.389 77.729 336.342 77.399 336.31 77.0218C336.247 76.6131 336.216 76.1731 336.216 75.7016C336.216 75.0729 336.247 74.5385 336.31 74.0985C336.373 73.627 336.483 73.2655 336.64 73.014C336.766 72.7626 336.939 72.6368 337.159 72.6368L337.159 78.8135Z" fill="#DF2027"/>
</svg>
