<svg width="322" height="139" viewBox="0 0 322 139" fill="none" xmlns="http://www.w3.org/2000/svg">
<path d="M303.005 5.1394C311.364 12.6175 317.371 25.8067 319.034 41.1716C320.703 56.6046 318.029 74.4898 308.711 91.575C303.682 100.798 292.969 106.708 279.221 110.443C265.383 114.203 247.917 115.91 228.58 116.289C189.889 117.048 143.141 112.496 101.735 107.967C68.7461 104.358 49.0533 106.563 37.8696 110.555C26.6091 114.575 24.7496 119.994 25.0981 122.68L26.1577 130.841L20.7378 124.649C12.1019 114.784 5.99698 98.4237 3.61377 81.5593C1.22977 64.6893 2.48797 46.7365 9.17529 33.656C13.8897 24.4347 20.6427 18.1244 29.7417 14.0867C38.7527 10.088 49.9551 8.36579 63.5425 8.04858C90.635 7.41613 128.309 12.3846 179.042 17.2009C219.619 21.0532 248.303 19.7377 267.626 16.574C277.289 14.992 284.575 12.9531 289.821 10.8894C295.129 8.80114 298.154 6.76261 299.505 5.30347L301.174 3.50171L303.005 5.1394Z" fill="white" stroke="#B9272D" stroke-width="5"/>
<path d="M301.271 10.4177C307.674 17.0996 312.607 28.268 314.062 41.7087C315.628 56.1819 313.125 73.0367 304.322 89.1804C300.291 96.5718 291.263 101.99 277.911 105.618C264.648 109.221 247.652 110.914 228.482 111.29C190.157 112.041 143.711 107.529 102.279 102.997C68.9959 99.3557 48.4188 101.481 36.1888 105.846C28.0554 108.75 23.2604 112.83 21.2191 117.062C15.1001 107.987 10.5351 94.8018 8.56482 80.8601C6.25728 64.5312 7.58806 47.7435 13.6263 35.9324C17.8208 27.7279 23.7202 22.229 31.7699 18.657C39.9077 15.0458 50.3511 13.3573 63.6595 13.0466C90.3589 12.4234 127.479 17.3292 178.57 22.1794C219.45 26.0604 248.581 24.758 268.434 21.5076C278.36 19.8825 286.002 17.7648 291.651 15.5427C295.84 13.8948 299.044 12.1452 301.271 10.4177Z" fill="white" stroke="#DF2027" stroke-width="5"/>
<path d="M67.9401 47.5753V81.0027H59.9194V59.5368L52.3855 70.4552L44.782 59.5368L45.0138 81.0027H37.619L37.8508 52.9997C37.8508 51.0061 37.3176 49.453 36.2745 48.3403C37.7581 47.5289 39.3576 47.1117 41.073 47.1117C41.7684 47.1117 42.4175 47.2044 43.0202 47.3667C43.6229 47.5289 44.1098 47.7144 44.527 47.9462C44.9443 48.178 45.3847 48.5489 45.8483 49.0357C46.312 49.5457 46.6829 49.9861 46.9611 50.357C47.2392 50.7279 47.6565 51.3075 48.1897 52.0493L52.7564 58.54L60.4989 47.5753H67.9401ZM92.0718 47.5753L102.758 81.0027H93.88L92.9759 77.6414C92.5818 76.1114 91.7009 75.0451 90.3332 74.396C89.3132 73.9324 87.6906 73.7006 85.4883 73.7006C84.5611 73.7006 83.2397 73.8397 81.5475 74.1178L79.5076 81.0027H72.275L82.9616 47.5753H92.0718ZM86.9487 56.3146L83.4484 67.8589C83.7961 67.8357 84.3061 67.8125 85.0015 67.8125C87.0878 67.8125 88.9423 68.1371 90.5187 68.763L86.9487 56.3146ZM123.969 47.5753V54.3674H115.995V81.0027H107.812V54.3674H99.8375V47.5753H123.969ZM149.028 48.8734L148.147 52.0493C147.869 52.9765 147.498 53.6488 147.011 54.066C146.501 54.4833 145.852 54.6919 145.041 54.6919C144.624 54.6919 143.928 54.5992 142.978 54.3906C142.004 54.2051 141.147 54.0892 140.405 54.0892C139.107 54.0892 137.924 54.5992 136.904 55.596C135.884 56.5928 135.096 57.8678 134.586 59.3977C134.053 60.9277 133.798 62.5736 133.798 64.289C133.798 67.3026 134.563 69.7366 136.139 71.6374C137.693 73.5383 139.918 74.4887 142.816 74.4887C144.276 74.4887 146.061 74.2569 148.147 73.7469V79.7741C146.107 80.8172 143.673 81.3272 140.822 81.3272C137.762 81.3272 135.027 80.6086 132.662 79.1714C130.298 77.7341 128.443 75.7405 127.145 73.1442C125.847 70.5479 125.198 67.6039 125.198 64.289C125.198 61.9709 125.476 59.8614 126.079 57.9141C126.681 55.9901 127.47 54.3674 128.49 53.0692C129.486 51.7711 130.645 50.6584 131.99 49.7543C133.334 48.8503 134.725 48.2012 136.209 47.7839C137.669 47.3667 139.176 47.158 140.729 47.158C143.488 47.158 146.246 47.7376 149.028 48.8734ZM160.99 47.5753V60.9741H170.54V47.5753H178.747V81.0027H170.494V67.4648H160.99V81.0027H152.784V47.5753H160.99ZM223.255 47.5753V81.0027H215.234V59.5368L207.7 70.4552L200.097 59.5368L200.328 81.0027H192.934L193.165 52.9997C193.165 51.0061 192.632 49.453 191.589 48.3403C193.073 47.5289 194.672 47.1117 196.388 47.1117C197.083 47.1117 197.732 47.2044 198.335 47.3667C198.938 47.5289 199.424 47.7144 199.842 47.9462C200.259 48.178 200.699 48.5489 201.163 49.0357C201.627 49.5457 201.997 49.9861 202.276 50.357C202.554 50.7279 202.971 51.3075 203.504 52.0493L208.071 58.54L215.813 47.5753H223.255ZM247.386 47.5753L258.073 81.0027H249.195L248.29 77.6414C247.896 76.1114 247.015 75.0451 245.648 74.396C244.628 73.9324 243.005 73.7006 240.803 73.7006C239.876 73.7006 238.554 73.8397 236.862 74.1178L234.822 81.0027H227.59L238.276 47.5753H247.386ZM242.263 56.3146L238.763 67.8589C239.111 67.8357 239.621 67.8125 240.316 67.8125C242.402 67.8125 244.257 68.1371 245.833 68.763L242.263 56.3146ZM270.753 47.2044C272.608 47.2044 274.323 47.413 275.876 47.8303C277.429 48.2475 278.727 48.7807 279.794 49.4761C280.837 50.1716 281.718 50.9598 282.46 51.887C283.178 52.8143 283.711 53.7879 284.036 54.8078C284.36 55.8278 284.523 56.8942 284.523 57.9837C284.523 61.4609 283.572 64.1963 281.695 66.1667C279.817 68.1603 277.383 69.1339 274.416 69.1339C272.793 69.1339 271.101 68.8325 269.339 68.1834V81.0027H261.226V47.7607C264.517 47.3898 267.693 47.2044 270.753 47.2044ZM269.339 63.3386H270.707C272.422 63.3386 273.743 62.9445 274.694 62.1563C275.853 61.1363 276.456 59.815 276.456 58.2155C276.456 56.9173 275.969 55.7583 275.042 54.7847C274.114 53.811 272.77 53.3242 271.008 53.3242C270.405 53.3242 269.849 53.3706 269.339 53.417V63.3386Z" fill="#DF2027"/>
</svg>
