<svg width="96" height="75" viewBox="0 0 96 75" fill="none" xmlns="http://www.w3.org/2000/svg">
<g clip-path="url(#clip0_380_2169)">
<path d="M74.7188 0.0668945C76.5889 0.346112 83.8131 1.34859 84.8828 2.82322C85.0881 3.10648 85.2563 3.4152 85.4712 3.69216C86.4631 4.96974 87.7252 6.27152 88.3408 7.78668C88.1507 8.23744 87.8243 8.86018 87.668 9.2644C87.8839 9.81642 88.145 10.7121 88.3079 11.2992C88.073 11.691 87.9205 11.757 87.6723 12.0735C87.8386 12.3229 88.1545 12.7706 88.2831 13.0183C87.3521 13.8254 86.8066 15.0619 86.1996 16.1149C86.0624 16.3529 85.879 16.7416 85.7308 16.9553C84.029 17.1702 83.5987 17.6793 83.4549 19.3863C83.3195 19.273 83.1485 19.1003 82.9851 19.0749C82.794 19.1478 82.3376 19.8025 82.2166 20.0221C81.9693 20.471 80.7206 21.3778 80.2232 21.135C80.207 21.0388 80.1989 20.9856 80.1703 20.8927C79.7705 20.863 79.1073 21.4871 78.9272 21.8327C79.3336 22.7097 79.6576 23.2854 80.3022 24.0236C80.6076 24.3731 81.0374 24.782 81.2737 25.1641C81.2904 26.7313 81.8864 27.8031 83.0546 28.8304C83.2395 28.9926 83.3967 30.2992 83.451 30.6094C83.7955 30.6199 84.0823 30.634 84.4263 30.6032C84.6731 30.3153 84.8242 30.188 85.1134 29.9418C85.1805 29.7259 85.2315 29.5515 85.2772 29.3317C85.332 29.0686 85.3182 27.9852 85.4321 27.8537L85.5898 27.8122C85.5993 27.5588 85.312 27.418 85.3668 27.065C85.4168 26.6874 85.555 26.2994 85.6255 25.9281C85.7056 25.5027 85.9028 24.9624 85.9304 24.5433C85.9752 23.8602 85.8175 22.7914 85.6417 22.1353C86.4641 22.245 87.0649 22.555 87.9172 22.5567C88.8658 22.5585 89.7015 22.373 90.6367 22.2505C91.8474 22.0918 93.0895 22.5659 94.3044 22.5485C94.4621 22.5463 94.657 22.5476 94.8137 22.5575C94.9133 23.0289 95.0181 23.4993 95.1286 23.9684C94.322 24.9654 95.2882 24.8699 95.3626 25.3126C95.5188 26.2419 95.0005 28.1007 94.4807 28.9121C94.6612 29.0719 95.0071 29.3575 94.7327 29.5736C93.8618 30.2602 93.595 31.0491 93.1509 32.0572C93.27 32.1622 93.523 32.3611 93.5073 32.5099C93.4492 33.0692 92.7745 34.3608 92.5201 34.8532L92.7917 35.1351L92.7779 35.1191C92.2719 35.5654 92.1247 36.0251 91.8745 36.6379C92.0532 37.0965 92.108 37.5486 92.22 38.0271C92.0823 38.0328 91.7206 38.0319 91.6192 38.0867C91.2818 39.3137 91.2028 39.264 90.2837 40.1697C90.2799 40.681 90.2875 41.3486 90.2475 41.8448C90.5805 41.8872 90.6672 41.9038 90.9588 42.061C91.3805 42.2885 91.7145 43.0905 91.5834 43.5434C92.2042 43.54 92.8284 43.4947 93.4368 43.4918C93.452 44.1219 93.554 47.1489 93.4587 47.5919C94.1119 48.755 94.8166 50.2858 95.4598 51.3588C94.9847 51.3584 94.8847 51.3212 94.4426 51.0664C94.3797 51.124 94.2005 51.3136 94.1181 51.3145C93.0656 51.3307 91.9813 51.3769 90.9321 51.2826C90.1951 51.2169 89.498 50.8811 88.7619 51.1507C87.4984 51.6127 86.2096 50.7825 84.9356 51.1683C84.5788 51.275 84.1543 51.3874 84.0876 50.8664C84.1376 50.5792 84.3449 50.4858 84.351 50.2872C83.9971 50.2424 83.4344 50.1462 83.4263 49.6723C83.603 49.4737 83.6917 49.6718 83.7431 49.4546C83.6464 49.1227 83.5258 48.844 83.4248 48.5268C82.2766 49.3389 80.7887 50.2667 79.5871 51.0059C79.7181 50.8268 79.852 50.6668 79.9182 50.4544L79.8992 50.3462C79.2302 50.0333 78.4465 50.7925 78.1678 51.3312C78.1344 51.3955 77.6094 51.3217 77.5536 51.2493C77.2549 51.1345 76.9733 50.7782 76.7632 50.7197L76.7051 50.7668C76.7018 51.1812 77.1096 51.2802 77.0415 51.6465C76.7232 51.8261 75.1209 51.1493 74.7317 50.9926C74.1214 51.7708 74.0894 51.7432 73.1123 51.6908C72.8898 51.4741 72.6744 51.2502 72.4657 51.0202L72.1656 51.3007C71.6405 51.2736 71.0602 51.1969 70.539 51.1164C69.3708 50.9364 68.1592 50.834 66.9962 50.6363C66.656 50.7682 66.2977 50.9016 65.9652 51.0483C66.151 50.8378 66.4811 50.5682 66.242 50.311C66.0776 50.2448 65.9051 50.2653 65.726 50.27C65.4987 50.4906 65.4087 50.5687 65.1471 50.753C64.4567 49.4223 63.6568 49.6447 62.47 49.1851C61.8768 48.3973 61.3279 48.1906 60.6223 47.6181C60.3584 47.4781 60.1835 47.3618 59.9377 47.1966C59.6366 47.0623 58.6794 46.5626 58.5584 46.2719C58.5736 45.9937 58.9024 45.77 58.8919 45.5052C58.8847 45.3207 58.3721 45.1718 58.2497 45.0629C57.5836 44.4704 56.4358 43.3285 56.0147 42.5496C54.5982 42.5397 54.8779 42.2264 54.3809 43.4892L54.4005 43.5462C54.4915 43.5145 54.5649 43.4913 54.6582 43.4655C54.7378 43.5605 54.713 43.5056 54.7197 43.6415C54.6177 43.6843 54.5858 43.674 54.472 43.6684C54.4943 43.7743 54.5086 43.7929 54.561 43.8898L54.5086 43.9602C54.3843 43.9466 54.3695 43.9379 54.2523 43.8902L54.1842 43.9313C54.1928 44.1174 54.2499 44.3228 54.1742 44.4451C54.0989 44.3869 54.0412 44.3384 53.9698 44.2752L53.9064 44.3074C53.8869 44.4571 53.9126 44.5293 53.9436 44.6755C53.7258 44.7559 53.5691 44.4695 53.4276 44.7219C53.5014 44.9253 53.5476 44.8356 53.6815 44.998C53.5219 45.2026 53.4428 45.3073 53.2523 45.4797L53.197 45.4744L53.1951 45.2903L53.1341 45.2488L53.0893 45.291C53.1898 45.8184 52.9645 46.0044 53.0126 46.262C53.217 46.2315 53.1813 46.0789 53.309 46.1515L53.308 46.2646C53.2146 46.3398 53.1384 46.402 53.0512 46.4845L53.0846 46.5441C53.1827 46.5298 53.2808 46.5136 53.3785 46.496L53.4328 46.5536C53.3323 46.7717 53.1898 46.7141 53.1393 46.8927C53.3413 47.0565 53.7697 46.7546 54.1637 46.9346C54.3181 46.7465 54.2151 46.4386 54.0627 46.2744C53.975 46.267 53.9731 46.2679 53.8859 46.2825C53.8864 45.9274 54.3066 45.9358 54.1041 45.3686L54.1584 45.3583C54.2666 45.4426 54.2938 45.4544 54.3628 45.5687L54.37 45.5063L54.3223 45.504C54.4267 45.401 54.3914 45.219 54.5553 44.9507C54.5892 45.1386 54.5386 45.2257 54.6339 45.3304C54.9684 45.1056 54.6873 45.0765 54.8279 44.8055L54.9713 44.7686C55.119 44.8629 55.149 45.0849 55.3357 45.2572C55.9508 45.8256 56.6774 45.596 57.3878 45.7736C57.5455 45.8131 57.4835 47.5743 57.4597 47.7843C56.3234 47.9429 54.5429 47.7915 53.3728 47.8081C51.8787 47.8291 50.3893 47.8696 48.8947 47.8872C48.8933 47.5304 48.9081 46.8122 48.8614 46.4745C48.8571 46.2796 48.8714 46.0501 48.8785 45.8524C49.597 45.5302 50.8229 46.0053 51.1897 44.8587C51.2341 44.7203 51.3027 44.6115 51.2469 44.4744C51.1316 44.4697 51.0725 44.4657 50.9591 44.4446C50.9301 44.2892 51.1211 43.9538 51.1288 43.8665C51.2093 42.5763 51.1955 41.1936 51.1164 39.895C51.0154 38.2342 49.6308 38.7395 48.7332 38.4559C48.5574 38.1646 48.6389 36.8975 48.6546 36.498C49.8905 36.5119 52.7468 36.2448 53.7597 36.5317C53.8421 36.6455 53.9764 36.7957 53.9874 36.924C53.8969 36.9751 53.8154 37.0249 53.7273 37.0801C53.5653 37.4559 53.9893 37.6564 53.8183 37.937C53.743 37.8845 53.7006 37.8492 53.6129 37.8174C53.6105 38.0645 53.7911 38.1169 53.7806 38.264C53.7716 38.389 53.6772 38.3786 53.722 38.6212L53.8678 38.5763C54.0027 38.6346 54.087 38.8536 54.1913 39.0173C54.1465 38.7094 54.1113 38.456 54.0903 38.1445C54.0851 37.8408 54.0551 37.517 54.0331 37.2126C54.0341 36.9049 54.0927 36.6703 54.1613 36.3751C54.2142 36.1104 54.2833 35.8479 54.349 35.586C54.441 35.5976 54.5334 35.6071 54.6263 35.6145C54.9136 35.6385 55.6607 35.6877 55.928 35.6458C56.7417 35.5182 60.3055 36.1866 58.6499 34.3951C57.7108 34.2527 57.4035 34.1064 56.9871 33.2376C57.0504 33.1091 57.1176 33.0066 57.1176 32.8668C56.9375 32.8026 57.0643 32.9165 56.8523 32.9258C56.4554 32.4489 55.6049 30.5425 55.3862 29.9179C55.4868 29.6819 55.5816 29.4436 55.6707 29.2032L55.381 28.9293C56.3406 28.1055 56.8742 26.7142 57.5674 25.7326C57.726 25.8622 57.9095 26.0414 58.1039 26.075C58.3216 26.022 58.5465 25.6525 58.7008 25.4648C59.4384 24.5699 60.3965 23.7233 61.3927 23.1255C62.4471 22.4927 63.2961 21.7377 64.158 20.8684C64.4348 20.5893 64.8407 20.2501 65.0556 19.925C64.8369 19.4659 63.906 18.1486 63.5734 17.6847C63.147 17.0899 62.5248 16.092 62.0893 15.5534L62.4147 15.1886L62.4261 14.501C61.8049 13.7924 60.6781 12.6432 61.4647 11.6622C61.4208 10.8775 61.317 10.1161 61.2317 9.33699C61.1774 8.84089 61.0292 8.25615 61.6462 8.15975C61.7748 7.88927 61.5681 7.43318 61.4785 7.10916C61.9535 5.30919 62.8707 3.12726 64.9675 2.90577C65.605 2.29772 66.1705 1.7025 66.9967 1.35061C68.2292 0.825345 69.1945 0.627053 70.4761 1.11953L70.5242 0.461763C70.6438 0.583554 70.8029 0.755383 70.9273 0.863695C71.3046 0.76127 72.0631 0.431834 72.3762 0.492188C73.1656 0.644352 73.9189 0.733279 74.7112 0.82996L74.7188 0.0668945ZM67.6103 30.2529C67.5126 30.2714 67.3587 30.2948 67.2673 30.3229C65.0842 30.9931 64.3657 34.4401 63.7664 36.2309C64.2099 37.5168 64.6001 38.7892 65.0242 40.0786C65.6159 40.3062 65.6831 40.4709 65.7193 41.0841C65.8661 40.9623 66.0009 40.8214 66.1838 40.79C66.2848 40.8332 66.3768 40.9027 66.3973 41.0133C66.5674 41.9278 67.1353 42.2224 68.011 42.5771C68.041 41.7798 68.0377 40.9423 68.0696 40.1488C68.1415 38.3375 66.9662 38.315 65.5645 38.2697C65.543 37.5857 65.5545 36.901 65.5992 36.2181C68.7047 36.1319 71.9083 36.307 75.0237 36.283C75.4268 36.2798 75.8251 36.3041 76.2291 36.2826C76.13 35.9247 76.0762 35.2867 76.0319 34.8977L75.6431 35.1922C75.4511 35.1959 75.2048 35.2079 75.0171 35.2013C74.7488 34.5628 74.3319 33.7753 74.1123 33.1692L74.1452 33.1044L74.3486 33.0959C74.2843 32.804 72.986 30.6779 72.7483 30.2491C72.9641 30.0504 73.1675 29.899 72.8474 29.6415C72.4333 29.5542 72.3495 29.6968 72.1165 29.999C72.1189 29.6734 72.1112 29.2616 72.1313 28.9433C72.2318 28.7895 72.3833 28.5925 72.4038 28.418C72.238 27.8541 71.5433 28.2527 71.4704 26.774C70.083 27.3595 69.4808 28.0751 68.4846 29.2216C68.2006 29.5487 67.9243 29.961 67.6103 30.2529ZM73.7612 40.5191C74.2062 40.0419 74.229 39.9118 74.3682 39.2695C74.7355 39.2663 76.1553 39.1951 76.3678 39.3662C76.4893 39.7923 76.4135 41.6055 76.3883 42.1374C77.1844 41.4441 77.6861 41.0926 78.5637 40.5011L77.7976 40.4964C77.6718 39.8707 77.5851 39.318 77.2468 38.76C76.0471 38.0225 73.4934 38.4551 71.9154 38.3245C71.8201 38.4785 71.5619 38.8464 71.5619 38.9982C71.7997 39.0349 71.834 38.9417 72.0193 39.0192C72.0465 39.2452 71.3961 41.0326 72.3738 40.8859C72.3947 40.8771 72.4157 40.8684 72.4367 40.8597C72.4834 40.582 72.5048 40.582 72.8273 40.6102C73.228 40.6453 73.3791 40.6014 73.7612 40.5191ZM57.4597 47.7843C57.4835 47.5743 57.5455 45.8131 57.3878 45.7736C56.6774 45.596 55.9508 45.8256 55.3357 45.2572C55.149 45.0849 55.119 44.8629 54.9713 44.7686L54.8279 44.8055C54.6873 45.0765 54.9684 45.1056 54.6339 45.3304C54.5386 45.2257 54.5892 45.1386 54.5553 44.9507C54.3914 45.219 54.4267 45.401 54.3223 45.504L54.37 45.5063L54.3628 45.5687C54.2938 45.4544 54.2666 45.4426 54.1584 45.3583L54.1041 45.3686C54.3066 45.9358 53.8864 45.9274 53.8859 46.2825C53.9731 46.2679 53.975 46.267 54.0627 46.2744C54.2151 46.4386 54.3181 46.7465 54.1637 46.9346C53.7697 46.7546 53.3413 47.0565 53.1393 46.8927C53.1898 46.7141 53.3323 46.7717 53.4328 46.5536L53.3785 46.496C53.2808 46.5136 53.1827 46.5298 53.0846 46.5441L53.0512 46.4845C53.1384 46.402 53.2146 46.3398 53.308 46.2646L53.309 46.1515C53.1813 46.0789 53.217 46.2315 53.0126 46.262C52.9645 46.0044 53.1898 45.8184 53.0893 45.291L53.1341 45.2488L53.1951 45.2903L53.197 45.4744L53.2523 45.4797C53.4428 45.3073 53.5219 45.2026 53.6815 44.998C53.5476 44.8356 53.5014 44.9253 53.4276 44.7219C53.5691 44.4695 53.7258 44.7559 53.9436 44.6755C53.9126 44.5293 53.8869 44.4571 53.9064 44.3074L53.9698 44.2752C54.0412 44.3384 54.0989 44.3869 54.1742 44.4451C54.2499 44.3228 54.1928 44.1174 54.1842 43.9313L54.2523 43.8902C54.3695 43.9379 54.3843 43.9466 54.5086 43.9602L54.561 43.8898C54.5086 43.7929 54.4943 43.7743 54.472 43.6684C54.5858 43.674 54.6177 43.6843 54.7197 43.6415C54.713 43.5056 54.7378 43.5605 54.6582 43.4655C54.5649 43.4913 54.4915 43.5145 54.4005 43.5462L54.3809 43.4892C54.8779 42.2264 54.5982 42.5397 56.0147 42.5496C56.4358 43.3285 57.5836 44.4704 58.2497 45.0629C58.3721 45.1718 58.8847 45.3207 58.8919 45.5052C58.9024 45.77 58.5736 45.9937 58.5584 46.2719C58.6794 46.5626 59.6366 47.0623 59.9377 47.1966C60.1835 47.3618 60.3584 47.4781 60.6223 47.6181C62.004 48.1406 64.0961 48.3077 64.9799 46.8551C64.9684 46.7351 64.948 46.6784 65.0075 46.5822C65.1247 46.5322 65.1409 46.5236 65.2343 46.437C65.4025 45.9867 65.3453 45.0621 65.341 44.5578C65.0952 44.503 64.9046 44.39 64.6773 44.3232C63.5496 43.992 64.3424 45.3147 63.9498 45.9765C63.8464 46.0494 63.805 46.0973 63.663 46.081C63.0169 46.0066 63.1918 45.447 63.1656 44.9717C63.1217 44.1661 63.1603 42.9877 62.5615 42.3642C62.0183 41.7986 61.348 41.7009 60.6061 41.6867C61.6953 41.3688 62.4547 41.3959 63.1999 40.2573C63.5415 39.7351 63.5953 39.0667 63.4472 38.4626C63.2795 37.7883 62.8473 37.21 62.248 36.858C61.8797 36.637 61.1831 36.4111 60.7462 36.3708C59.2144 36.2295 57.6584 36.384 56.1228 36.3656C55.6854 36.3603 55.2133 36.3573 54.7854 36.4526C54.6311 36.4869 54.7788 36.8154 54.6959 36.9631L54.5234 36.8023C54.5458 36.6505 54.551 36.6205 54.5286 36.4696C54.3733 36.361 54.3776 36.394 54.1613 36.3751C54.0927 36.6703 54.0341 36.9049 54.0331 37.2126C54.0551 37.517 54.0851 37.8408 54.0903 38.1445C54.1113 38.456 54.1465 38.7094 54.1913 39.0173C54.087 38.8536 54.0027 38.6346 53.8678 38.5763L53.722 38.6212C53.6772 38.3786 53.7716 38.389 53.7806 38.264C53.7911 38.1169 53.6105 38.0645 53.6129 37.8174C53.7006 37.8492 53.743 37.8845 53.8183 37.937C53.9893 37.6564 53.5653 37.4559 53.7273 37.0801C53.8154 37.0249 53.8969 36.9751 53.9874 36.924C53.9764 36.7957 53.8421 36.6455 53.7597 36.5317C52.7468 36.2448 49.8905 36.5119 48.6546 36.498C48.6389 36.8975 48.5574 38.1646 48.7332 38.4559C49.6308 38.7395 51.0154 38.2342 51.1164 39.895C51.1955 41.1936 51.2093 42.5763 51.1288 43.8665C51.1211 43.9538 50.9301 44.2892 50.9591 44.4446C51.0725 44.4657 51.1316 44.4697 51.2469 44.4744C51.3027 44.6115 51.2341 44.7203 51.1897 44.8587C50.8229 46.0053 49.597 45.5302 48.8785 45.8524C48.8714 46.0501 48.8571 46.2796 48.8614 46.4745C48.9081 46.8122 48.8933 47.5304 48.8947 47.8872C50.3893 47.8696 51.8787 47.8291 53.3728 47.8081C54.5429 47.7915 56.3234 47.9429 57.4597 47.7843ZM77.3073 7.13488L77.0105 6.78729C76.4259 6.79415 75.7513 6.78248 75.1767 6.80539C73.4034 6.88855 72.3409 8.78478 71.8397 10.2738C72.0374 10.4962 72.3195 10.7952 72.4895 11.0216L71.8568 11.0318L71.8463 12.0061C72.8726 12.7732 73.7902 14.4581 74.4587 15.5818C74.8274 15.3409 75.2682 15.0332 75.5907 14.7333C76.1534 14.2246 76.597 13.5413 77.1006 12.9686C77.2926 12.7245 77.6523 12.7 77.8819 12.5451C78.639 12.0352 78.7838 11.0787 78.8772 10.2462C78.9082 9.9704 78.6738 8.67814 78.7009 8.64814C78.8519 8.74973 79.0406 8.90685 79.2059 8.91243C79.4018 8.53397 78.4708 7.18266 78.2388 6.77538L77.6389 6.80115L77.3073 7.13488Z" fill="#EE6C03"/>
<path d="M54.8691 36.4151C55.5908 36.3533 56.3644 36.3622 57.0933 36.3638C58.8381 36.3678 61.1506 35.9645 62.6077 37.1166C63.6381 37.9312 63.8539 39.606 62.9572 40.5913C62.2541 41.3638 61.576 41.4885 60.6134 41.6794C63.0806 41.7824 63.0911 43.0937 63.175 45.1489C63.1859 45.4172 63.1387 46.0363 63.4899 46.0571C64.3937 46.1109 63.9349 44.876 64.0664 44.2891C64.3056 44.2702 64.4452 44.2454 64.6748 44.3084C64.9106 44.4209 65.1274 44.4981 65.3485 44.6001C65.3499 44.9081 65.368 45.4631 65.3413 45.7515C65.3228 45.9236 65.2908 46.1606 65.2975 46.3273C65.0998 46.5605 65.1184 46.5715 64.9869 46.8154C64.7167 47.305 64.1226 47.7398 63.5947 47.8756C62.2512 48.2214 59.8825 47.9437 59.5166 46.3118C59.4484 46.0075 59.2505 44.6988 59.3703 44.4903C59.4468 44.4814 59.4716 44.4773 59.5491 44.4845L59.6029 44.4899L59.5751 44.4109L59.3684 44.3376C59.2799 44.1972 59.3216 43.8328 59.2922 43.6555C59.2587 43.4542 59.1627 43.2226 59.0893 43.0313C58.2333 42.3404 57.386 42.5521 56.3527 42.5582C55.8345 42.5604 55.3163 42.5494 54.7987 42.525C54.6493 42.6933 54.4373 43.2626 54.3683 43.4884L54.4087 43.5412L54.677 43.4802L54.7164 43.5354L54.6837 43.6314C54.5891 43.6425 54.5527 43.6416 54.4641 43.6823C54.5142 43.7934 54.5439 43.8352 54.5469 43.9542C54.4633 43.9948 54.3537 43.9278 54.2078 43.9004C54.1395 43.9942 54.1951 44.2547 54.2007 44.4191C54.0669 44.4838 54.1147 44.3034 53.9268 44.272C53.8505 44.388 53.8955 44.553 53.9078 44.7209C53.7722 44.6817 53.5622 44.594 53.4524 44.6303L53.4229 44.7598C53.4642 44.8805 53.5579 44.9218 53.6684 44.9976C53.5557 45.3734 53.048 45.2768 52.9999 46.2521C53.1215 46.325 53.0944 46.1325 53.292 46.1225C53.3081 46.2612 53.3174 46.1959 53.2611 46.3254C53.1631 46.3738 53.0892 46.3933 53.0437 46.4886C53.1641 46.6339 53.1872 46.4518 53.3816 46.5415C53.3295 46.6839 53.1059 46.8706 52.9853 46.9854C53.3214 46.9644 53.5913 46.8906 53.9225 46.8539C54.0331 46.9035 54.0717 46.933 54.1883 46.9259C54.1896 46.7368 54.1915 46.3524 54.0959 46.2033C53.9993 46.2592 53.9646 46.2915 53.8569 46.2956C53.8599 46.1805 53.9842 46.0269 54.0518 45.9257C54.2404 45.6431 54.1928 45.6836 54.0856 45.3957L54.1195 45.3431L54.3122 45.5975L54.3741 45.579L54.3844 45.4286L54.6291 45.3232C54.8803 45.2521 54.6893 45.0527 54.8302 44.8394L54.9235 44.8244C55.1481 45.0493 55.4935 45.4081 55.7614 45.5575C56.1071 45.7502 57.1059 45.6091 57.4033 45.8337C57.5379 46.1902 57.4942 47.4074 57.4427 47.8094C56.1567 47.9303 54.6006 47.7984 53.3061 47.8146C51.8311 47.8337 50.361 47.8751 48.8829 47.8899C48.8712 47.4426 48.7071 45.8532 49.074 45.7981C49.8253 45.6851 50.2439 45.85 51.0188 45.2417C51.1233 44.996 51.2963 44.7375 51.16 44.4956L50.9773 44.4478C50.8833 44.2996 51.1706 43.8989 51.1585 43.6877C51.0795 42.3144 51.3008 40.6763 50.96 39.3544C50.6865 38.2937 49.3275 38.7231 48.6993 38.4481C48.5742 38.1597 48.6331 36.8985 48.6396 36.5215C50.1126 36.4076 51.7138 36.479 53.1991 36.4215C53.3015 36.4176 53.6097 36.4966 53.7224 36.5238C53.802 36.6216 53.8901 36.7509 53.9656 36.8551C53.9612 37.0099 53.8182 36.9765 53.7229 37.1045C53.5308 37.3625 53.9759 37.7574 53.7596 37.9677C53.6908 37.8854 53.6729 37.8317 53.5897 37.8105C53.6034 37.9718 53.6194 37.9748 53.7165 38.1084C53.8364 38.2731 53.7395 38.3507 53.7062 38.5513L53.8652 38.5745C53.942 38.6353 54.1427 38.9591 54.1326 38.9871C53.9308 39.5464 54.4371 39.9486 54.6435 40.5607C54.4959 40.7701 54.4233 40.7386 54.4238 40.9487C54.516 40.9257 54.6123 40.8944 54.7038 40.8669C54.7497 40.9786 54.7069 41.0377 54.6719 41.1784C54.6894 41.1306 55.0148 40.8753 55.1017 40.7888C54.9874 40.6943 54.8399 40.5935 54.7759 40.4672C54.934 40.387 55.0693 40.567 55.1392 40.5556C56.0906 40.4017 57.0416 40.6134 57.9939 40.4345C58.1732 40.4009 58.5834 40.3019 58.7438 40.3349C58.7949 40.3961 58.8282 40.4531 58.902 40.4752C58.9878 40.3911 59.0257 40.3447 59.1003 40.25L59.2948 40.2592C59.2401 39.8747 59.3244 39.877 59.5696 39.489C59.4784 39.2522 59.3865 38.971 59.2102 38.792L59.1895 38.7712C59.0028 38.5806 58.6773 38.4514 58.4292 38.3349C57.7934 38.4829 57.3192 38.3582 56.7071 38.3919C56.1812 38.4208 55.8188 38.4585 55.2797 38.4554C55.3266 38.3005 55.344 38.21 55.372 38.0524C55.1835 38.2524 55.1578 38.3527 54.8826 38.4234L54.6502 38.4679C54.6155 38.3498 54.5656 38.2133 54.5257 38.0946C54.3882 38.0875 54.3028 38.0841 54.165 38.057C54.2534 37.8426 54.3683 37.8413 54.6109 37.7355L54.7413 37.8408C54.8114 37.6885 54.5643 37.6489 54.5617 37.3322C54.6274 37.2571 54.6959 37.1844 54.7669 37.1142C54.6519 37.036 54.5784 37.0788 54.3984 37.0753C54.352 36.9347 54.3939 36.9212 54.4617 36.7515C54.5537 36.7768 54.5955 36.9245 54.6905 36.9368L54.6485 36.8982L54.7035 36.8151C54.6591 36.5494 54.6253 36.5422 54.8691 36.4151ZM54.7006 47.0044C54.7469 46.8077 54.8474 46.6034 54.8178 46.4474C54.771 46.3925 54.7287 46.3306 54.6659 46.2992C54.6907 46.8101 54.3811 46.4967 54.7006 47.0044Z" fill="white"/>
<path d="M54.126 38.1108C54.1436 38.0202 54.2103 37.9101 54.2551 37.8255C54.5433 37.6922 54.6777 37.7539 54.9431 37.904L54.9435 38.0029L55.0717 38.0035C55.1298 37.9003 55.126 37.8697 55.1403 37.7489L55.2094 37.7129L55.258 37.743L55.2585 37.93C55.3137 37.9693 55.3114 37.9749 55.3776 37.9798C55.178 38.3434 55.2061 38.2911 54.8435 38.4473C54.7544 38.7188 54.9102 38.971 54.8044 39.1562L54.732 39.1394C54.6491 38.7592 54.7687 38.4363 54.5138 38.1571C54.399 38.0994 54.2499 38.0585 54.126 38.1108Z" fill="white"/>
<path d="M54.1611 36.375C54.3774 36.3939 54.3731 36.361 54.5285 36.4695C54.5509 36.6204 54.5456 36.6504 54.5232 36.8022C54.4375 36.8833 54.3579 36.9497 54.2912 37.0472C54.4475 37.0609 54.6566 37.0477 54.7462 37.1401C54.6738 37.2902 54.5966 37.3978 54.6304 37.5519C54.7405 37.7167 54.7786 37.7909 54.943 37.9039C54.6776 37.7538 54.5432 37.6921 54.255 37.8254C54.2102 37.91 54.1435 38.0201 54.1259 38.1107L54.0901 38.1444C54.0849 37.8407 54.0549 37.5169 54.033 37.2125C54.0339 36.9048 54.0925 36.6702 54.1611 36.375Z" fill="white"/>
<path d="M54.4604 40.0323L54.5866 39.9954C54.7481 40.0942 54.8139 40.1522 54.8625 40.3514C54.8777 40.4129 54.8892 40.4753 54.8968 40.5381C54.9206 40.5984 54.9835 40.6378 55.0273 40.7102C55.1279 40.8764 54.8225 41.1151 54.669 41.1689C54.7276 41.0365 54.7553 41.0052 54.7372 40.8684L54.6576 40.8409L54.4637 40.9857L54.4122 40.9585L54.4075 40.8627C54.4804 40.7682 54.5352 40.7103 54.6176 40.6236C54.6271 40.4824 54.5104 40.1832 54.4604 40.0323Z" fill="white"/>
<path d="M54.673 46.2883C54.7416 46.3243 54.7769 46.3754 54.8279 46.4343C54.8603 46.5882 54.764 46.7973 54.7226 46.9979C54.4043 46.4963 54.7169 46.7883 54.673 46.2883Z" fill="white"/>
<path d="M54.773 45.6245L54.8273 45.6662C54.8974 45.8141 54.855 45.9728 54.8345 46.1435L54.7892 46.1065C54.7273 45.9837 54.763 45.7741 54.773 45.6245Z" fill="white"/>
<path d="M65.5993 36.2181C68.7047 36.1319 71.9083 36.307 75.0238 36.283C75.4268 36.2799 75.8251 36.3042 76.2292 36.2826C77.4431 36.3517 78.6137 36.2971 79.8287 36.382L79.9111 36.4034C79.9425 36.944 79.9287 37.4981 79.923 38.0404L79.8182 38.0924C79.813 38.8883 79.8034 39.6841 79.7896 40.4798C79.3861 40.4864 78.9649 40.4866 78.5637 40.5011L77.7976 40.4965C77.6718 39.8707 77.5851 39.318 77.2468 38.76C76.0472 38.0225 73.4934 38.4552 71.9155 38.3245C71.8202 38.4785 71.5619 38.8464 71.5619 38.9983C71.7997 39.0349 71.834 38.9418 72.0193 39.0192C72.0465 39.2452 71.3961 41.0327 72.3738 40.8859C72.3948 40.8772 72.4157 40.8684 72.4367 40.8597C72.4834 40.5821 72.5048 40.582 72.8274 40.6103C73.2281 40.6454 73.3791 40.6014 73.7612 40.5191C74.2062 40.0419 74.2291 39.9119 74.3682 39.2695C74.7355 39.2663 76.1553 39.1951 76.3678 39.3662C76.4893 39.7923 76.4135 41.6055 76.3883 42.1375C76.3649 43.0288 76.2825 43.8415 76.2725 44.7454C75.596 44.7467 74.8946 44.7577 74.22 44.7478C73.9951 43.7343 73.6125 43.6646 72.6292 43.5153L72.6739 43.355C72.3747 43.3504 72.0693 43.3389 71.7701 43.3306L71.713 43.446C71.7806 43.8137 71.7034 45.1833 71.703 45.6475C72.4186 45.672 73.1656 45.6411 73.8893 45.6581C74.6216 45.6516 75.3878 45.7754 76.1158 45.6823C77.2969 45.5312 77.5165 44.5559 77.6632 43.5957C78.3255 43.5917 78.9987 43.5795 79.6595 43.6088C79.6996 44.2271 79.6457 44.9291 79.6391 45.5536C79.631 46.2922 79.6357 47.0361 79.6081 47.7734C78.2693 47.6972 76.5307 47.72 75.1472 47.6929L65.3548 47.5695C65.3286 46.9737 65.3925 46.2929 65.3649 45.6129C67.8862 45.4475 68.0163 45.1748 68.011 42.5772C68.041 41.7798 68.0377 40.9424 68.0696 40.1489C68.1416 38.3376 66.9662 38.315 65.5645 38.2697C65.543 37.5857 65.5545 36.901 65.5993 36.2181Z" fill="white"/>
<path d="M71.8205 42.6775C72.4037 42.765 73.6505 42.7691 74.0789 43.199L74.0498 43.2708C73.7139 43.4081 73.0559 43.3628 72.6738 43.355C72.3746 43.3503 72.0692 43.3389 71.77 43.3305C71.8015 43.0828 71.8191 42.926 71.8205 42.6775Z" fill="white"/>
<path d="M79.8287 36.3818L79.9111 36.4033C79.9426 36.9438 79.9288 37.498 79.923 38.0403L79.8182 38.0923C79.7925 37.5935 79.8116 36.8754 79.8287 36.3818Z" fill="white"/>
<path d="M81.9516 35.9803L82.1579 35.7659L82.2284 35.779L82.217 35.9132C82.5476 36.0906 87.6794 35.848 88.5818 35.9059C88.5965 36.5794 88.607 37.253 88.6127 37.9267C87.6022 37.9514 86.2053 38.0723 86.1953 39.3492C86.1791 41.4321 86.2467 43.5692 86.2586 45.6533C87.354 45.6549 89.7743 45.8966 90.761 45.2333C91.095 45.0088 91.1917 43.9183 91.3632 43.5833C91.3728 43.5645 91.5405 43.5447 91.5833 43.5433C92.2041 43.5399 92.8283 43.4946 93.4367 43.4917C93.4519 44.1218 93.5539 47.1488 93.4586 47.5918C93.005 47.6799 92.2132 47.6604 91.7296 47.6608L88.7047 47.6513C87.7194 47.6566 86.7131 47.7323 85.7288 47.7423C83.8407 47.7604 81.9478 47.7723 80.0596 47.7761C80.0301 46.9926 80.0253 46.4773 80.0963 45.6973C81.205 45.7694 82.51 45.6191 82.4962 44.2147C82.4804 42.6077 82.4714 40.8497 82.4066 39.2466C82.3589 38.0779 80.8115 38.0798 79.9229 38.0403C79.9286 37.498 79.9424 36.9439 79.911 36.4033C79.9148 36.2151 79.8867 36.1761 79.971 36.0284C80.1716 35.9703 81.6386 35.9842 81.9516 35.9803Z" fill="white"/>
<path d="M71.7701 43.3306C72.0693 43.3389 72.3747 43.3504 72.6739 43.355L72.6291 43.5152C72.2908 43.5035 72.0483 43.4874 71.7129 43.446L71.7701 43.3306Z" fill="white"/>
<path d="M77.7389 42.7913C78.4074 42.7876 79.0758 42.7897 79.7443 42.7977C79.7504 42.9762 79.7338 43.1771 79.7233 43.3576C79.3431 43.3613 77.9971 43.3984 77.7056 43.3142C77.6574 43.1559 77.7098 42.9625 77.7389 42.7913Z" fill="white"/>
<path d="M64.0716 43.4664C64.4094 43.4437 65.0173 43.5468 65.2227 43.8405C65.2446 44.027 65.2532 43.9506 65.1784 44.1323L63.9834 44.1303C63.9749 43.9267 63.9572 43.6164 64.0716 43.4664Z" fill="white"/>
<path d="M24.2451 2.64686C24.6195 2.57135 27.7061 3.72421 28.0999 3.94678L28.2382 4.8019C30.581 7.04892 31.0895 8.92548 30.6486 11.8789C30.6202 12.0687 30.8093 13.1659 30.8395 13.4605C30.0256 14.5659 29.8526 14.8548 29.4559 16.1395C28.4139 16.9244 28.0543 17.9426 27.3708 18.4725C27.0123 18.7505 24.5341 19.527 23.9887 19.4816C23.7573 19.4624 23.5667 19.4409 23.3189 19.3896C22.2996 19.1783 21.1793 19.0185 20.1756 18.7522C20.0259 18.7125 19.72 18.5149 19.5915 18.3994C17.5419 16.557 16.4235 13.8781 16.5589 11.1268C16.568 10.9413 16.7814 10.4058 16.8241 10.1833C17.0777 8.8649 17.1789 8.0183 17.0624 6.68975C17.3788 6.02033 18.1913 4.63725 18.9104 4.48051C19.9906 4.24503 20.0655 4.39258 20.7055 3.34359C21.8311 2.98126 23.4056 3.01911 24.2451 2.64686ZM19.2288 15.1745C19.6231 15.4377 19.8938 15.5858 20.173 15.974C20.1797 16.1441 20.1892 16.3171 20.1881 16.487C21.238 17.0647 21.5954 17.7978 22.6534 17.8075C23.802 17.7472 25.8305 17.3212 26.7076 16.4604C27.0237 16.1502 27.0318 15.6127 27.2447 15.2554C27.6586 14.5961 28.2767 14.1252 28.4548 13.3311C28.552 12.8976 28.4944 12.4874 28.5452 12.0653C28.8794 9.29203 27.8957 4.62291 24.2052 4.71022C22.4648 4.77085 21.6433 4.98122 20.3886 6.21147C20.248 6.3493 19.6544 6.77625 19.5887 6.86431C19.0315 7.65442 18.8835 8.72187 18.6289 9.63705C18.5103 10.0637 18.3198 10.4901 18.3404 10.9225C18.3872 11.91 18.4642 12.559 18.934 13.4474C19.0916 13.7455 19.2076 14.7989 19.2288 15.1745Z" fill="white"/>
<path d="M30.7616 19.5916C31.0423 19.5717 33.4369 20.629 33.7784 20.8538C33.8311 21.1256 33.8549 21.3646 33.8837 21.6383C35.1737 23.2261 35.9425 24.6141 35.9517 26.7457C35.9542 27.3249 35.851 27.9366 35.8484 28.4999C35.8466 28.9008 35.9407 29.5657 35.9904 29.9818C35.7266 30.4123 35.3894 30.944 35.2084 31.413C35.1246 31.5866 34.9661 32.4094 34.8676 32.5147C34.2912 33.1314 33.8815 33.8613 33.4398 34.5595C33.1999 34.939 32.3726 35.2336 31.9713 35.3908C31.2905 35.6574 30.7205 35.8699 29.9927 35.7048C29.544 35.5987 27.5138 35.1937 27.2724 34.9853C25.2821 33.2681 24.1272 29.618 24.6953 27.0746C25.0305 25.574 24.9617 24.9092 25.008 23.5374C25.0316 22.8387 25.9241 21.6641 26.4038 21.3242C26.666 21.2945 26.9274 21.2583 27.1878 21.2156C27.5502 20.9302 27.6557 20.6778 27.8825 20.284C28.855 19.8609 29.7863 20.0283 30.7616 19.5916ZM26.6526 31.6148C26.92 31.8283 27.3848 32.1439 27.4065 32.5051C27.4388 33.0423 27.7218 33.0304 28.0415 33.3332C28.7255 33.9809 28.8027 34.258 29.779 34.1495C29.8453 34.1422 29.9113 34.1323 29.9768 34.1197C31.2 33.7872 32.7662 33.5198 33.0063 32.0287C33.1058 31.4105 33.887 30.7052 33.9829 30.2054C34.1725 29.2172 34.2379 27.4574 34.1374 26.4683C34.072 25.8822 33.961 25.3021 33.8053 24.7333C33.3682 23.1389 32.2674 21.2059 30.298 21.6168C28.6456 21.742 28.244 22.3273 27.136 23.5135C26.5146 24.1789 26.1902 26.4127 26.0103 27.3542C25.9552 27.6422 26.0609 28.4846 26.0751 28.806C26.0978 29.32 26.3476 29.5784 26.491 30.003C26.6107 30.3575 26.6626 31.228 26.6526 31.6148Z" fill="white"/>
<path d="M1.7412 48.0625C1.4277 47.0889 1.38136 46.1132 1.6018 45.1394C1.63723 45.0361 1.56435 44.7953 1.61219 44.715C1.7759 44.4401 2.33814 44.1376 2.41007 43.8388C2.53237 43.3309 2.31518 41.5419 2.78581 41.2649C2.88202 41.3217 2.91082 41.3391 3.01507 41.3771C3.21969 41.2486 3.16788 41.0198 3.21914 40.7971C3.27197 40.5677 3.50687 40.1894 3.4997 39.9728L3.45086 39.9077C3.19504 40.0877 3.1047 40.7273 2.83774 40.6849C2.636 40.3558 2.77509 39.5536 2.62767 39.1358C2.73016 39.2651 2.78376 39.3647 2.93736 39.4098C3.06944 39.3846 3.24232 39.1826 3.37349 39.0736L3.40877 38.9656C3.31544 38.8791 2.90407 38.8798 2.77936 38.8198C2.29179 38.5826 2.10393 38.1804 1.49449 38.2357C1.14055 38.2679 0.539946 38.3443 0.519316 37.8226C0.506734 37.5045 0.64909 36.9452 1.01834 36.8643C0.930195 37.0536 0.907664 37.1725 1.03986 37.3463L1.09688 37.3281C1.20856 37.0587 1.03524 36.7439 1.13911 36.5735C1.20954 36.5948 1.24069 36.6076 1.30809 36.6375C1.70145 36.5246 1.7227 36.3498 2.1068 36.5268C2.13153 36.5382 2.65309 36.315 2.71246 36.3042C3.1481 36.2595 3.92976 36.2364 4.3436 36.284C4.44575 36.3487 4.46095 36.3609 4.53937 36.4528C4.71875 36.3866 4.64162 36.2807 4.82633 36.2539C5.24317 36.1934 5.49144 36.6452 5.67721 36.1485L5.70589 36.1392C5.73257 36.254 5.73996 36.319 5.75244 36.4366C5.85821 36.4622 6.03225 36.3372 6.21259 36.3512C7.26257 36.4321 8.31103 36.5422 9.36115 36.603C9.39693 36.6051 9.61872 36.8022 9.66136 36.8404C9.71939 36.8032 10.0057 36.6211 10.0463 36.6205C10.6093 36.619 11.2562 36.6872 11.8053 36.8011C12.8647 37.0206 13.9044 37.1784 14.5253 38.1841C15.2233 39.3147 14.8849 40.7587 13.7277 41.4279C13.0959 41.7934 12.712 41.8901 12.0136 42.0148C13.4212 42.3461 14.709 42.6822 15.0621 44.3018C14.9866 44.5582 14.7879 44.4401 14.8604 44.6835C15.4382 46.6217 14.1605 47.6943 12.2582 47.8143C11.9902 47.6843 11.8133 47.5967 11.5589 47.4357C11.4547 47.5133 11.2032 47.7024 11.0842 47.7176C10.1883 47.8315 7.96418 47.8172 7.12416 47.7053C7.12497 47.6914 7.13546 47.539 7.13655 47.5457C7.09682 47.3023 7.43075 46.9227 7.38173 46.757C7.19696 46.9299 7.09748 47.1709 7.07433 47.42C6.67893 47.8577 5.78846 47.6719 5.29839 47.549C5.31621 47.5533 4.93791 47.6734 4.88155 47.671C4.52079 47.6538 2.96 47.7834 2.71174 47.6086C2.50312 46.8218 3.15195 43.4196 3.27812 42.4904L3.22357 42.516C3.17346 42.8263 2.97665 42.8991 2.91986 43.1997C2.79937 43.8374 2.55497 44.4445 2.43908 45.0842C2.33477 45.8346 2.21715 46.9237 2.1982 47.6743L1.7412 48.0625ZM9.62439 43.9286C9.65507 44.1244 9.69914 44.3336 9.67513 44.5288C9.50856 44.7538 9.54906 44.7709 9.51238 45.0471C9.27954 45.0088 9.16948 44.8212 9.19049 44.5981C9.34562 44.4753 9.30026 44.5108 9.50999 44.475C9.5361 43.9943 8.59661 43.9034 9.80796 43.5165C9.87204 43.2906 9.98229 43.0222 9.88305 42.8195C9.77027 42.7357 9.7577 42.7127 9.62572 42.7149C9.48851 42.902 9.59137 42.9877 9.46159 43.0596L9.33676 42.8613C8.58441 42.7898 7.26652 42.8718 6.40455 42.8243C6.46829 43.9827 6.29568 44.6661 6.30054 45.7269L7.26324 45.7593C7.36429 45.6562 7.58703 45.3978 7.70623 45.3743L7.77117 45.4198C7.73001 45.5279 7.69675 45.6211 7.6624 45.7316L7.70747 45.7887C8.31179 45.8576 9.38436 45.8486 10.0466 45.875L10.0679 45.9089C10.0156 46.0416 9.96504 46.1271 9.98362 46.2658C10.0644 46.3553 10.0205 46.3312 10.1542 46.3444C10.2374 46.1705 10.3077 45.8981 10.2541 45.7068C10.2573 45.5458 10.2448 45.4117 10.3316 45.275C10.3852 45.3832 10.3957 45.5024 10.4161 45.623L10.4738 45.6435C11.1961 45.2699 11.1141 43.9078 10.8195 43.2734C11.1485 42.4323 11.5921 42.1264 12.2572 41.5141C12.3927 41.3884 12.5294 41.3272 12.6063 41.168C12.4593 41.1887 12.3536 41.2983 12.2318 41.3952C11.8729 41.6744 11.0718 42.2972 10.7777 42.5687C10.3406 42.9721 10.2731 43.4917 9.62439 43.9286ZM9.87485 40.9655C9.78495 41.3926 9.84222 41.462 10.1196 41.7799C10.0978 41.6006 9.9831 41.0967 9.87485 40.9655ZM4.19581 38.02C4.06317 38.3649 3.8744 38.7681 3.91352 39.1334L3.96926 39.1878L4.08518 39.1262C4.12377 38.5661 4.37185 38.6779 4.45652 38.3185C4.40616 38.1376 4.37586 38.1631 4.19581 38.02ZM6.53242 38.5474C6.46782 39.3167 6.46391 39.9339 6.46658 40.709C7.29683 40.8584 8.35667 40.8185 9.21055 40.9065C9.21198 40.9066 9.39412 41.0751 9.42257 41.1016C9.50571 41.0421 9.51471 41.0067 9.56064 40.9169C9.81496 40.8159 10.1484 40.8917 10.3263 40.7018C10.8288 40.3203 11.1045 39.8933 10.6561 39.2603C10.3373 38.8102 9.61829 38.7467 9.12727 38.7107C8.25852 38.6378 7.39483 38.6242 6.53242 38.5474Z" fill="white"/>
<path d="M9.67516 44.5287C9.50859 44.7537 9.54909 44.7708 9.5124 45.047C9.27957 45.0087 9.16951 44.8211 9.19052 44.598C9.34565 44.4752 9.30029 44.5107 9.51002 44.4749C9.57196 44.5091 9.60631 44.5385 9.67516 44.5287Z" fill="white"/>
<path d="M10.2541 45.7066C10.2088 45.5759 10.2135 45.4387 10.1841 45.3245C10.1391 45.1493 9.82299 45.3286 9.76562 45.055C9.95777 45.1104 9.87464 45.1105 10.0893 45.0259C10.2415 45.0864 10.225 45.1187 10.3315 45.2748C10.2447 45.4115 10.2573 45.5456 10.2541 45.7066Z" fill="white"/>
<path d="M9.87477 40.9653C9.98302 41.0965 10.0977 41.6004 10.1195 41.7797C9.84213 41.4618 9.78486 41.3924 9.87477 40.9653Z" fill="white"/>
<path d="M12.2317 41.3953C12.3535 41.2983 12.4591 41.1887 12.6062 41.168C12.5293 41.3272 12.3925 41.3884 12.257 41.5141L12.2317 41.3953Z" fill="white"/>
<path d="M38.3095 36.4095C39.0312 36.3477 39.8048 36.3565 40.5337 36.3582C42.2785 36.3622 44.591 35.9589 46.0481 37.111C47.0785 37.9256 47.2943 39.6004 46.3976 40.5857C45.6945 41.3582 45.0164 41.4829 44.0538 41.6738C46.5211 41.7768 46.5315 43.0881 46.6154 45.1433C46.6263 45.4116 46.5792 46.0306 46.9303 46.0515C47.8341 46.1053 47.3753 44.8704 47.5068 44.2835C47.746 44.2646 47.8856 44.2398 48.1152 44.3028C48.3511 44.4153 48.5678 44.4925 48.7889 44.5945C48.7903 44.9025 48.8084 45.4575 48.7818 45.7459C48.7632 45.918 48.7313 46.155 48.7379 46.3217C48.5402 46.5549 48.5588 46.5659 48.4273 46.8097C48.1572 47.2994 47.563 47.7342 47.0351 47.87C45.6917 48.2157 43.3229 47.9381 42.9571 46.3062C42.8889 46.0019 42.6909 44.6932 42.8107 44.4847C42.8873 44.4758 42.912 44.4717 42.9896 44.4789L43.0433 44.4842L43.0155 44.4053L42.8088 44.332C42.7203 44.1916 42.7621 43.8272 42.7326 43.6499C42.6992 43.4486 42.6031 43.217 42.5297 43.0257C41.6737 42.3348 40.8265 42.5465 39.7931 42.5526C39.2749 42.5548 38.7568 42.5438 38.2392 42.5194C38.0897 42.6876 37.8778 43.257 37.8087 43.4828L37.8491 43.5356L38.1174 43.4746L38.1568 43.5298L38.1241 43.6258C38.0296 43.6369 37.9932 43.636 37.9046 43.6767C37.9547 43.7878 37.9843 43.8296 37.9873 43.9486C37.9037 43.9892 37.7942 43.9222 37.6483 43.8947C37.58 43.9886 37.6356 44.2491 37.6411 44.4135C37.5073 44.4781 37.5552 44.2978 37.3672 44.2664C37.2909 44.3824 37.336 44.5474 37.3482 44.7153C37.2126 44.6761 37.0026 44.5884 36.8929 44.6247L36.8633 44.7542C36.9046 44.8748 36.9983 44.9162 37.1088 44.992C36.9961 45.3677 36.4884 45.2712 36.4404 46.2464C36.5619 46.3194 36.5349 46.1269 36.7324 46.1168C36.7486 46.2556 36.7578 46.1902 36.7015 46.3198C36.6035 46.3682 36.5296 46.3877 36.4841 46.483C36.6045 46.6283 36.6276 46.4462 36.822 46.5359C36.7699 46.6783 36.5464 46.865 36.4257 46.9798C36.7618 46.9588 37.0317 46.885 37.3629 46.8483C37.4735 46.8979 37.5121 46.9274 37.6287 46.9202C37.6301 46.7312 37.6319 46.3468 37.5364 46.1977C37.4397 46.2535 37.405 46.2859 37.2974 46.29C37.3003 46.1749 37.4246 46.0213 37.4922 45.9201C37.6808 45.6375 37.6332 45.678 37.5261 45.3901L37.5599 45.3375L37.7526 45.5918L37.8146 45.5734L37.8248 45.4229L38.0695 45.3175C38.3208 45.2465 38.1297 45.0471 38.2707 44.8338L38.3639 44.8188C38.5885 45.0437 38.9339 45.4025 39.2018 45.5519C39.5475 45.7446 40.5463 45.6035 40.8438 45.8281C40.9784 46.1846 40.9346 47.4018 40.8831 47.8038C39.5971 47.9247 38.041 47.7928 36.7465 47.809C35.2715 47.828 33.8014 47.8695 32.3233 47.8842C32.3117 47.437 32.1476 45.8476 32.5144 45.7925C33.2658 45.6795 33.6843 45.8444 34.4593 45.2361C34.5637 44.9904 34.7367 44.7319 34.6004 44.49L34.4178 44.4422C34.3237 44.294 34.6111 43.8933 34.5989 43.682C34.52 42.3088 34.7413 40.6707 34.4004 39.3488C34.1269 38.2881 32.7679 38.7175 32.1397 38.4425C32.0146 38.1541 32.0736 36.8929 32.0801 36.5159C33.5531 36.402 35.1542 36.4734 36.6395 36.4159C36.7419 36.412 37.0501 36.491 37.1629 36.5182C37.2424 36.616 37.3305 36.7453 37.406 36.8495C37.4017 37.0043 37.2586 36.9709 37.1634 37.0989C36.9713 37.3569 37.4163 37.7518 37.2 37.962C37.1312 37.8798 37.1133 37.8261 37.0301 37.8049C37.0439 37.9662 37.0598 37.9692 37.157 38.1027C37.2768 38.2675 37.1799 38.3451 37.1467 38.5456L37.3056 38.5689C37.3824 38.6297 37.5831 38.9535 37.573 38.9815C37.3712 39.5408 37.8775 39.943 38.0839 40.5551C37.9363 40.7645 37.8638 40.733 37.8642 40.9431C37.9564 40.9201 38.0528 40.8888 38.1443 40.8612C38.1902 40.973 38.1473 41.0321 38.1124 41.1728C38.1299 41.125 38.4553 40.8697 38.5422 40.7832C38.4279 40.6887 38.2803 40.5879 38.2163 40.4615C38.3745 40.3814 38.5097 40.5614 38.5796 40.55C39.5311 40.396 40.4821 40.6078 41.4343 40.4289C41.6137 40.3952 42.0239 40.2963 42.1842 40.3293C42.2354 40.3905 42.2687 40.4474 42.3424 40.4695C42.4282 40.3855 42.4662 40.339 42.5408 40.2444L42.7352 40.2535C42.6805 39.8691 42.7648 39.8714 43.0101 39.4833C42.9189 39.2465 42.827 38.9654 42.6507 38.7864L42.63 38.7656C42.4432 38.575 42.1177 38.4458 41.8696 38.3293C41.2338 38.4773 40.7596 38.3526 40.1475 38.3863C39.6216 38.4152 39.2593 38.4529 38.7201 38.4498C38.767 38.2949 38.7844 38.2044 38.8125 38.0468C38.6239 38.2468 38.5983 38.3471 38.3231 38.4178L38.0907 38.4623C38.056 38.3442 38.006 38.2077 37.9661 38.089C37.8286 38.0819 37.7433 38.0784 37.6054 38.0513C37.6939 37.837 37.8087 37.8357 38.0513 37.7299L38.1817 37.8352C38.2519 37.6828 38.0048 37.6433 38.0021 37.3266C38.0679 37.2515 38.1363 37.1788 38.2073 37.1086C38.0924 37.0304 38.0189 37.0732 37.8388 37.0697C37.7924 36.9291 37.8343 36.9156 37.9021 36.7459C37.9942 36.7711 38.036 36.9188 38.131 36.9312L38.0889 36.8925L38.144 36.8095C38.0995 36.5438 38.0657 36.5366 38.3095 36.4095ZM38.1411 46.9988C38.1874 46.8021 38.2879 46.5978 38.2583 46.4418C38.2115 46.3869 38.1691 46.325 38.1064 46.2936C38.1311 46.8045 37.8215 46.4911 38.1411 46.9988Z" fill="white"/>
<path d="M38.1063 46.2937C38.1691 46.3251 38.2114 46.387 38.2582 46.4419C38.2878 46.5979 38.1873 46.8022 38.141 46.9989C37.8214 46.4912 38.1311 46.8046 38.1063 46.2937Z" fill="white"/>
<path d="M58.0309 2.70736C58.5202 2.6112 59.353 2.64 59.677 3.08601C59.5398 3.36886 57.059 4.31268 56.6083 4.57068C56.3014 4.74662 57.0699 5.48386 56.8979 5.919C56.613 6.64062 54.9817 7.09966 54.3785 7.54789C53.7396 7.98717 52.8996 8.93826 52.7662 9.7127C52.64 10.4449 54.2584 11.2472 54.58 11.8694C54.9135 12.5152 55.1923 13.1543 55.5148 13.7903C56.1013 14.9237 56.7564 16.0204 57.4768 17.0741C58.0314 17.8785 58.5269 17.8905 59.4412 18.0592C59.5079 18.1218 59.5731 18.1859 59.637 18.2512C59.8247 18.4439 60.0091 18.6466 60.0048 18.926C59.9514 19.0386 59.9248 19.0777 59.8071 19.1345C59.5574 19.2555 59.2568 19.309 58.9819 19.3365C58.2748 19.4072 54.6739 19.4378 54.0817 19.2407C53.9197 19.1868 53.6891 19.0843 53.6181 18.9164C53.5733 18.8105 53.5862 18.7061 53.64 18.6042C53.9135 18.0863 55.0755 17.8867 55.6163 17.7423C55.622 17.5349 55.6034 17.3153 55.5896 17.1071C55.1289 16.5786 53.5752 15.0305 53.3194 14.5474C52.4532 12.9141 52.2383 12.4267 50.8385 11.111C50.2763 11.5778 49.7723 12.0008 49.2391 12.4985C49.1334 13.0503 49.0514 13.7579 49.0728 14.3157C49.0933 14.8463 49.1634 15.3668 49.1634 15.9025C49.1629 16.4647 48.9857 17.1122 49.1253 17.6505C49.2625 17.736 50.1263 17.7384 50.3702 17.7876C50.6461 17.8433 50.8076 17.8811 51.0849 17.9672C51.1058 18.1023 51.1254 18.2375 51.1435 18.373C51.2621 19.2726 50.5317 19.1469 49.8361 19.2249C48.9609 19.3178 45.2727 19.6907 44.8963 18.78C44.8492 18.6638 44.8536 18.5331 44.9084 18.4203C45.1248 17.981 46.552 17.5884 47.0475 17.4199C47.372 16.1367 46.9341 15.2804 46.8855 14.0082C46.8526 13.6009 47.078 12.9566 47.0351 12.5729C46.926 11.6019 46.8745 10.8129 47.0313 9.8422C47.0627 9.64888 46.7369 9.05395 46.7526 8.79638C46.8788 6.74197 47.9794 4.89099 45.1312 4.2752C44.8047 4.20442 44.6579 3.57836 44.8239 3.29069C45.0132 2.96286 45.4964 2.82904 45.8413 2.71695C47.372 3.00075 47.4834 3.36247 49.1438 2.88021C49.7465 2.70515 51.3636 2.86829 52.0454 2.90618C52.8263 2.94961 52.4632 3.66755 51.9348 3.85321C51.3612 4.14931 51.0248 4.3706 50.3707 4.48181C50.1601 4.51758 49.3692 4.60164 49.2792 4.65337C49.0886 4.86341 49.1043 5.07559 49.1114 5.34755C49.1434 6.57646 49.2477 7.80709 49.251 9.03628C49.0419 9.32143 48.6355 9.73199 48.7408 10.1077C49.3111 10.2843 50.3059 8.67249 51.001 8.30814C51.5075 8.04237 52.4094 6.58746 53.0697 6.20163C53.3699 6.02626 54.4452 5.26454 54.5267 4.99648C54.399 4.26615 52.4999 3.86192 52.8077 3.1827C53.4452 2.64457 54.995 3.04943 55.7102 2.98546C56.4582 2.91851 57.281 2.79922 58.0309 2.70736Z" fill="white"/>
<path d="M21.8148 36.2848C22.615 36.2372 24.2228 36.1448 24.9758 36.3185C25.1791 36.3654 26.0853 37.9701 26.1463 38.3325C26.2764 38.304 26.3878 38.1252 26.5885 38.0071L26.662 38.0287C26.7414 38.2834 26.6416 38.4913 26.5165 38.7075C27.567 40.3121 28.4984 42.0356 29.5611 43.6378C29.7706 43.9538 29.7229 43.6656 29.9697 43.8438C29.983 44.0243 29.9419 44.0381 29.8571 44.226C29.729 44.2971 29.7879 44.2874 29.6339 44.2545C29.6022 44.3885 29.6941 44.3955 29.6849 44.4302C29.633 44.6254 29.4195 44.7077 29.3885 44.9161C29.5694 44.8152 29.8341 44.4734 29.936 44.2952C30.1102 44.2621 30.362 44.4157 30.5338 44.4886C30.9749 44.6761 31.3901 44.7583 31.8621 44.8389C31.5256 44.8614 29.946 44.8545 29.7934 44.9565L29.7431 45.0354C29.1827 45.8027 28.5787 46.5401 28.0318 47.3074C27.4452 48.0933 26.4777 49.4674 25.8668 50.1785L25.7896 49.9694C26.0157 49.8103 27.3805 47.9761 27.378 47.7442C27.2245 47.7018 27.2472 47.7261 27.0772 47.7985L26.9922 47.7089C26.5934 47.7413 25.7098 47.7204 25.2795 47.7209C25.252 47.034 25.2126 46.3221 25.2217 45.6362C25.6758 45.5879 26.1511 45.6194 26.5932 45.4745C26.8092 45.4037 27.1575 45.1667 27.0644 44.9128C26.7324 44.8141 26.2477 44.9253 25.8313 44.8371L25.7853 44.827C26.1454 44.7875 26.789 44.7721 27.0445 44.4907C27.3059 44.2028 27.1287 43.6918 26.8556 43.4595C26.6623 43.4248 26.6738 43.5839 26.4919 43.6426C26.2251 43.7287 26.2349 43.3772 25.9529 43.2686L25.8921 43.2977C25.9662 43.4182 26.0127 43.4736 26.1018 43.5808C25.9227 43.598 26.0347 43.4727 25.597 43.4687L21.945 43.4677C21.8235 43.6671 21.654 43.8806 21.6987 44.1309C21.76 44.4734 21.8339 44.4877 21.5399 44.6564L21.5395 44.747L21.5643 44.8803C21.5919 45.0784 21.6924 45.1368 21.6653 45.3108C21.5363 45.3657 21.4641 45.3997 21.343 45.4698L21.3725 45.5258C21.7703 45.6705 21.7839 45.2585 22.0998 45.2665C22.0845 45.3392 22.068 45.4116 22.0503 45.4838C22.8803 45.8279 23.6946 45.1077 23.5106 46.4868C23.4638 46.8373 23.5574 47.3093 23.4767 47.6675C23.2592 47.8514 21.7415 47.687 21.3314 47.7518C20.9529 47.8113 21.0722 47.9371 20.8488 47.9199L20.7458 47.7599C20.6904 47.7232 15.7058 47.7847 15.1472 47.7899C15.1183 47.2231 15.0502 46.2854 15.1156 45.7588C16.0444 45.5115 16.1797 45.5132 16.9335 44.8741C16.5197 44.8981 16.1596 44.8802 15.7476 44.8538C16.6419 44.5748 17.3256 43.7926 17.7394 42.978C18.0375 42.391 17.4306 42.3064 17.0506 42.1973C17.4508 42.1671 17.776 42.269 18.1077 42.2371C18.4607 41.9454 19.0646 40.7867 19.3432 40.3563C20.1565 39.0998 20.9675 37.4931 21.8148 36.2848ZM22.9927 41.6897C23.2781 41.6521 23.5159 41.6164 23.8053 41.6223C23.9242 41.6247 24.1742 41.6679 24.2511 41.6589C24.7815 41.6637 25.3119 41.6593 25.8421 41.6459C25.4629 41.0492 24.8164 39.9175 24.4353 39.401C23.9602 40.1506 23.4477 40.9317 22.9927 41.6897Z" fill="white"/>
<path d="M50.0518 26.9615C50.6888 26.5626 51.0033 26.1007 51.4531 25.5272C51.6141 25.322 52.1063 24.9064 52.2177 24.7424C52.5975 24.2344 52.921 23.711 53.3698 23.2558C53.5623 23.0607 53.7162 22.8903 53.9258 22.7117C54.1812 22.4939 54.6309 22.2086 54.7553 21.9039C54.7753 21.337 53.5885 20.9392 53.3402 20.3718C53.355 19.534 55.1464 19.9685 55.6743 19.9117C56.6406 19.8076 57.5001 19.6207 58.4768 19.6541C58.6488 19.7615 58.8312 19.9331 58.9866 20.0702C58.148 20.4789 57.2704 20.9931 56.4528 21.4518C56.1937 21.597 56.7754 22.4162 56.6506 22.7561C56.3714 23.5159 55.2212 23.7934 54.6614 24.2786C54.1397 24.7302 53.7333 25.359 53.4522 25.9757C52.9886 27.0654 54.2846 27.5751 54.7334 28.3327C54.963 28.7204 55.1712 29.4321 55.3861 29.9178C55.6048 30.5424 56.4552 32.4488 56.8521 32.9257C57.0641 32.9164 56.9374 32.8025 57.1175 32.8667C57.1175 33.0065 57.0503 33.109 56.9869 33.2375C57.4033 34.1063 57.7106 34.2526 58.6497 34.395C60.3053 36.1865 56.7416 35.5181 55.9278 35.6457C55.6605 35.6876 54.9135 35.6384 54.6262 35.6144C54.5333 35.607 54.4408 35.5975 54.3489 35.5859C53.9082 35.317 53.9239 34.9779 54.2755 34.6482C54.1897 34.3848 54.0921 33.5236 54.0311 33.1737C54.1883 32.8004 54.3694 32.5197 54.6195 32.2064C54.4284 31.8942 53.9325 31.364 53.811 31.0835C53.2311 29.745 52.8147 28.8274 51.8004 27.7466C51.3678 28.1654 50.9385 28.6299 50.5192 29.0656C50.3782 30.2415 50.402 31.1943 50.4683 32.3672C50.4987 32.9111 50.3291 33.4339 50.4411 34.0161C50.6379 34.1018 51.1396 34.1069 51.3845 34.1519C51.6303 34.197 51.7656 34.2406 52.0033 34.319C52.0496 34.6374 52.0634 34.9777 52.0648 35.2992C51.1853 35.6386 49.9527 35.6071 49.0094 35.677C48.5172 35.7149 47.3499 35.6717 47.0841 35.1813C46.5667 34.2265 48.775 34.2171 48.8641 33.4559C48.9732 32.5251 48.6511 31.4896 48.6278 30.5541C48.6163 30.0955 48.7388 29.7014 48.7531 29.2491C48.7612 28.7241 48.6554 28.182 48.6568 27.6556C48.6573 27.3044 48.7616 26.8858 48.7545 26.5536C48.7473 26.2104 48.5191 25.7851 48.5291 25.4072C48.5553 24.4555 48.9627 23.2219 48.6778 22.303C48.3833 21.3535 47.581 21.4607 47.0012 20.9907C46.9164 20.7776 46.914 20.454 46.9926 20.2454C47.1151 19.9214 47.5205 19.7894 47.8221 19.6537C48.2509 19.8153 48.805 19.9771 49.249 20.1202C50.0437 19.915 50.4154 19.8144 51.2634 19.7727C54.3184 19.6226 53.1187 20.9017 51.2234 21.4282C51.0066 21.4884 50.7741 21.4176 50.5516 21.5134C50.3153 21.8659 50.5245 25.0997 50.5245 25.7615C50.181 26.2783 50.1414 26.3503 50.0518 26.9615Z" fill="white"/>
<path d="M54.6197 32.2065C54.9775 32.6258 55.301 33.0737 55.6292 33.5166L55.644 34.1162C55.1352 34.2764 54.754 34.4051 54.2757 34.6483C54.1899 34.3849 54.0922 33.5238 54.0312 33.1738C54.1885 32.8005 54.3695 32.5198 54.6197 32.2065Z" fill="white"/>
<path d="M4.95502 2.45616C6.34976 2.26966 5.47139 3.32702 5.49779 3.76426C5.83072 4.08756 6.42909 3.27364 6.86027 3.17528C7.93998 2.929 9.24986 2.89744 10.3563 2.87043C10.7063 2.86188 11.4024 3.18159 11.2716 3.60251C10.9368 4.67972 8.44882 4.33285 7.75788 4.73626C7.49922 5.09528 7.66641 7.97395 7.52352 8.53825C7.42556 8.92514 6.75407 8.58045 6.53991 9.76363C6.93931 9.92352 7.51642 10.2688 7.50937 10.7429C7.49751 11.5417 7.55034 12.5551 7.61805 13.3403C7.65345 13.7508 7.23022 14.7208 7.22689 15.2574C7.22184 16.0635 7.34004 16.8001 7.34104 17.5787C8.91616 18.1621 10.2366 17.3116 11.8253 17.707C12.2697 17.8176 12.5793 17.8459 13.0369 17.8404C13.1323 17.7825 13.3409 17.6561 13.4049 17.5606C13.7943 16.9522 14.0247 15.9625 14.1311 15.2514C14.2943 14.1603 14.05 13.9075 15.2596 13.537C16.4055 14.008 16.2457 14.4602 15.8488 15.4519C15.9354 15.7161 16.0443 15.9899 16.143 16.2512C16.8663 18.2376 15.8664 19.2308 13.9115 19.2731C11.1626 19.3331 8.41933 19.1589 5.67002 19.1662C4.79056 19.1685 3.36529 19.5381 2.57112 19.199C1.12132 18.58 2.70079 17.3438 3.58383 17.1193C3.88127 17.2941 4.68884 17.8949 4.93444 17.4458C4.96779 17.0361 4.65658 16.6002 4.45333 16.2289C4.90195 16.0442 4.87979 16.014 5.07356 15.5743C4.85564 15.2975 4.69317 15.082 4.49888 14.7885C4.64748 14.0397 4.86178 13.7944 4.73634 12.9634C4.52332 11.5526 4.27843 10.1461 4.08213 8.73314C3.99471 8.10407 4.15898 7.51219 4.35556 6.92236C4.5804 6.26347 4.55629 5.16411 3.88741 4.75941C3.25288 4.31665 1.5107 4.76679 1.98547 3.43283C2.13268 3.01919 2.42815 2.86538 2.80131 2.69997C3.70527 2.8217 4.11153 2.84941 4.95502 2.45616Z" fill="white"/>
<path d="M37.8004 2.5597C38.3801 2.52735 38.7923 2.84132 39.3617 2.96145C39.8669 3.06805 40.3757 3.13441 40.8751 3.24093C41.0117 3.27009 41.1993 3.70503 41.4416 3.80133C42.0662 3.85387 42.58 3.09127 43.1835 3.36385C44.4492 3.93546 43.9015 4.90084 43.868 5.8676C43.8391 6.70062 44.3195 7.38738 43.9465 8.26036C43.4672 9.38192 42.4427 9.31971 42.0213 8.21554C41.8393 7.89991 41.7637 7.27469 41.5886 6.98673C41.1496 6.26463 40.8653 5.70171 40.5703 4.90679C39.6542 4.535 38.7338 4.15474 37.7597 3.96651C36.4209 4.42098 34.7621 6.88675 33.7063 8.03365C33.6245 8.589 33.5503 9.10467 33.4348 9.65497C33.354 10.0398 33.1123 10.7549 33.0818 11.1064C32.9498 12.6294 33.6457 14.3789 34.1111 15.7952C35.3183 16.2968 36.6039 17.6454 37.9303 17.6409C38.5196 17.6389 39.6551 17.6948 40.1907 17.5518C40.5569 17.3909 40.5192 17.2218 40.5671 16.8641C41.2489 16.1823 41.743 15.1808 42.0144 14.2605C42.3375 13.9701 42.4987 13.8289 42.8599 13.5933C44.1989 13.5879 44.2996 13.6306 44.6737 14.8741C43.8138 15.1638 43.8264 15.8133 43.67 16.6008C43.0345 17.2423 40.6998 19.1502 39.7736 19.2895C39.4563 19.3372 38.7547 19.074 38.4809 19.0953C38.1464 19.1214 37.6959 19.2459 37.3326 19.3025C36.5069 18.9377 35.6244 18.754 34.9468 18.5242C34.6061 18.4086 32.6303 16.675 32.3683 16.3851C31.7206 15.6683 31.1633 13.5838 31.3097 12.5874C31.3488 12.0287 31.6216 11.2436 31.6414 10.7104C31.7083 8.90987 31.5024 8.16477 32.4838 6.57188C33.2222 5.37336 33.5735 4.71242 34.7007 3.71965C35.0665 3.66145 35.6842 3.62697 36.0709 3.59299C36.7125 3.04947 37.0092 2.83557 37.8004 2.5597Z" fill="white"/>
<path d="M6.42748 20.0444C6.98401 19.9494 9.06187 20.4637 9.74294 20.4861C10.2035 20.4934 10.9879 20.1977 11.4214 20.3375C12.6165 20.7568 12.3525 22.8319 12.4235 23.819C12.4755 24.5428 12.0056 25.2023 11.2249 25.0024C10.4928 24.8113 10.3789 23.7782 10.051 23.3061C9.05887 21.8779 7.30585 20.7554 5.65741 21.9176C4.2964 22.8772 4.58803 23.4097 4.27025 24.7704C4.97743 26.0854 6.49242 26.6066 7.92822 26.4864C8.42925 26.448 9.01084 26.1877 9.50324 26.3164C10.2459 26.5331 10.4999 27.3156 11.2018 27.6145C12.1248 28.0076 13.3591 28.8871 12.6969 30.025C12.5519 30.2743 12.4137 30.525 12.274 30.7737C12.475 31.1492 12.7734 31.5874 12.7698 32.0128C12.7587 33.3436 12.1542 33.8496 11.1366 34.4695C9.98564 35.1706 9.50987 35.3783 8.17135 35.4087C7.36302 35.4075 6.25553 35.4069 5.48908 35.1992C4.16771 34.841 4.12512 34.6896 2.75764 35.0328C2.02481 33.7277 1.74749 32.1821 1.766 30.6917C1.77537 29.9372 2.56311 29.148 3.13353 29.9951C3.40122 30.3927 3.54418 31.0343 3.65492 31.5025C4.3936 32.0469 4.68084 32.698 4.66855 33.6114C6.07582 33.8802 8.12004 34.3088 9.45212 33.5875C10.0713 33.2522 9.95887 32.8739 10.2355 32.4297C10.425 32.1254 11.0147 31.681 11.0894 31.206C11.293 29.9127 9.77043 28.967 9.128 27.9239C8.39294 27.644 7.37126 27.8563 6.57189 27.7566C2.00107 27.1863 1.02991 20.5269 6.42748 20.0444Z" fill="white"/>
<path d="M18.2809 19.7974C19.7121 20.0613 19.666 20.0374 21.1156 19.929C21.6031 20.1601 21.9452 20.5764 22.487 20.6632C23.0949 20.7606 23.2156 19.9005 23.7888 19.9797C23.9226 20.0641 24.0033 20.1504 24.0727 20.2921C24.2423 20.6379 24.449 24.0493 24.4489 24.5894C24.4489 24.8064 24.4446 25.0583 24.3671 25.2632C24.3173 25.3947 24.2043 25.5015 24.0755 25.5557C23.9204 25.621 23.7205 25.6154 23.5671 25.5473C23.2479 25.4057 23.1504 25.0235 23.0416 24.7233C22.3567 24.4429 22.4579 23.9998 22.4849 23.2862C22.5975 22.317 21.0672 21.1038 20.3324 21.9787C19.5657 22.8917 19.6468 25.0416 19.5449 26.193C19.4582 27.1729 19.3042 27.9958 19.3155 28.9641C19.3187 29.2385 19.5187 29.7105 19.5533 30.0025C19.6509 30.6403 19.7916 31.373 19.881 31.9983C19.924 32.2996 19.7343 33.0161 19.7821 33.4308C19.9447 35.0128 21.8417 33.7155 22.6898 34.4783C22.8794 34.6489 23.0143 35.0713 22.7846 35.2345C21.8431 35.9034 20.2905 35.5864 19.1949 35.5545C18.2151 35.5597 17.2461 35.5921 16.2568 35.5253C15.5826 35.4798 14.8437 34.9066 15.76 34.437C16.0821 34.2718 16.8307 34.2031 17.2043 34.1579C17.4032 33.4814 17.5953 33.2312 18.131 32.8067C18.0524 32.6898 17.9805 32.5687 17.9156 32.4437C17.5092 31.655 18.3982 31.1394 18.3564 30.3732C18.3514 30.2804 18.1937 29.9882 18.1435 29.8919C18.201 28.3952 18.6411 28.9046 18.0212 27.0662C18.1018 26.724 18.271 26.2318 18.3789 25.8849C18.1423 24.9314 18.0879 24.7705 18.3872 23.8692C18.271 23.3705 17.9053 22.6222 17.5539 22.2526C16.8965 21.5614 16.2999 21.5855 15.4417 21.5565C15.2651 22.6083 14.9515 27.6184 12.9261 24.8456C12.7505 24.6053 13.4778 23.8316 13.6248 23.4708L13.6334 23.4491C13.6105 23.1644 13.4558 22.4814 13.3945 22.1729C13.6529 21.2403 14.0837 20.7091 14.8708 20.1721C15.7138 20.1823 16.5992 20.246 17.4445 20.2948C17.7324 19.9846 17.8753 19.9262 18.2809 19.7974Z" fill="white"/>
<path d="M40.0871 20.5082C40.6056 19.975 40.9333 19.6566 41.68 19.4849C42.0494 19.6341 42.2875 19.7902 42.712 19.9024C43.1119 20.008 43.5377 20.0805 43.9319 20.1918C44.0434 20.2233 44.2059 20.6761 44.3859 20.716C44.6968 20.7595 45.0057 20.424 45.2749 20.2976C45.7164 20.0904 46.1771 20.5264 46.3427 20.9091C46.5997 21.5027 46.2862 22.1957 46.3216 22.8233C46.3499 23.3262 46.5002 23.8832 46.4869 24.3841C46.4805 24.6322 46.4305 24.8772 46.3391 25.1079C46.2446 25.3429 45.9876 25.7161 45.7477 25.7731C44.8642 25.9829 44.6858 24.2136 44.4677 23.7603C44.1073 23.011 43.8915 22.4939 43.6629 21.7662C42.8446 21.3899 42.2871 21.0999 41.4094 20.858C40.1105 21.5843 39.2279 23.4878 38.3075 24.6547C38.1044 24.9122 38.0494 25.9383 37.9937 26.3001C37.9207 26.7754 37.7473 27.2455 37.681 27.7222C37.5967 29.1837 38.1298 30.8575 38.5137 32.2458C39.0947 32.564 39.6995 33.0741 40.2595 33.4587C40.3956 33.579 40.8293 33.8644 41.0004 33.9822C41.5466 34.0029 42.9523 34.0922 43.4554 33.8746C43.56 33.8294 43.6021 33.6921 43.6237 33.5798C43.7339 33.0403 44.1827 32.6041 44.3826 32.0765C44.7795 31.029 45.0291 29.5982 46.5269 30.2979C46.817 30.4334 46.8804 31.0597 46.939 31.3613C46.2468 31.7011 46.2704 32.3297 46.1549 33.0202C45.6632 33.5983 43.7222 35.5544 43.0449 35.5713C42.3951 35.5876 42.1678 35.3535 41.1094 35.6115C40.5114 35.307 39.2839 35.0247 38.8958 34.672C38.4678 34.2832 37.4948 33.2726 37.1318 32.8125C36.6366 32.1849 36.3571 30.8393 36.2617 30.0577C36.1635 29.2536 36.4137 28.344 36.5099 27.5452C36.5787 26.7186 36.5315 25.8599 36.6101 25.0367C36.676 24.3466 37.0848 23.6737 37.362 23.0447C37.7518 22.1598 38.2757 21.4446 38.8981 20.701C39.1795 20.5753 39.7563 20.5427 40.0871 20.5082Z" fill="white"/>
<path d="M29.842 45.1046C29.9843 45.0886 31.2421 45.57 31.946 45.5609L31.9412 47.6409C31.592 47.688 28.2742 47.7866 28.0994 47.6547C28.1157 47.5208 28.1185 47.5013 28.1799 47.3818C28.7115 46.5797 29.2621 45.8708 29.842 45.1046Z" fill="white"/>
<path d="M1.03698 45.7232C1.0765 45.7183 1.11328 45.7324 1.15637 45.742C1.22304 45.9158 1.09781 47.046 1.17747 47.3784C1.28474 47.8266 0.644741 47.759 0.333543 47.7366C0.25353 47.728 0.242357 47.7152 0.168099 47.6837C0.0323511 47.4161 0.139531 46.1288 0.148331 45.7407C0.44464 45.7415 0.740934 45.7356 1.03698 45.7232Z" fill="white"/>
<path d="M50.1071 5.396C50.8461 5.45444 51.0457 5.56103 51.4092 6.22616C51.2005 6.50707 51.0905 6.61143 50.817 6.82833C50.0752 7.22407 49.493 6.4332 49.8065 6.05598C49.9523 6.01936 50.019 6.01759 50.1238 5.91091C50.1967 5.7393 50.1438 5.58146 50.1071 5.396Z" fill="white"/>
<path d="M51.2467 22.2395C51.8637 22.334 52.0067 22.4825 52.2649 23.0382C52.1015 23.3271 51.9814 23.4381 51.7461 23.6617C51.2291 23.9303 50.8761 23.4637 50.9423 22.9591C51.3106 22.6678 51.2572 22.7286 51.2467 22.2395Z" fill="white"/>
<path d="M47.4477 44.1577C47.2757 42.7436 48.5854 43.7005 48.6559 43.9583L48.6274 44.0892C48.563 44.1263 48.5402 44.1507 48.4682 44.144C48.0899 44.1335 47.8236 44.1273 47.4477 44.1577Z" fill="white"/>
<path d="M26.9923 47.709L27.0773 47.7985C27.0021 48.0224 26.0161 49.2736 25.8123 49.5403C25.6769 49.7175 25.5886 49.7856 25.3755 49.8023L25.2917 49.7237L25.2968 49.5913C25.401 49.3822 25.6952 49.2431 25.9065 49.1683L25.9555 49.1512C26.2717 48.6782 26.6555 48.1729 26.9923 47.709Z" fill="white"/>
<path d="M29.7433 45.0354L29.8421 45.1047C29.2622 45.8708 28.7116 46.5797 28.18 47.3818L28.032 47.3075C28.5789 46.5402 29.1829 45.8027 29.7433 45.0354Z" fill="white"/>
<path d="M25.867 50.1786C25.842 50.22 25.8161 50.261 25.7893 50.3015C25.6893 50.452 25.6064 50.5515 25.4239 50.5887C25.265 50.5439 25.3191 50.5834 25.2261 50.4324C25.26 50.1305 25.4919 49.9695 25.7898 49.9695L25.867 50.1786Z" fill="white"/>
<path d="M21.5396 44.747C21.8093 44.7194 21.7943 44.6671 22.0116 44.5144C22.3655 44.7216 22.3282 44.7435 22.7338 44.8399C22.3074 44.8722 21.9917 44.8837 21.5643 44.8803L21.5396 44.747Z" fill="white"/>
<path d="M37.902 36.7458C37.864 36.6432 37.833 36.5667 37.7866 36.4677L37.8215 36.3996C37.9774 36.3764 38.1508 36.3974 38.3094 36.4094C38.0656 36.5365 38.0994 36.5437 38.1439 36.8094L38.0888 36.8925L38.1308 36.9311C38.0358 36.9188 37.9941 36.7711 37.902 36.7458Z" fill="white"/>
<path d="M47.4478 44.1576C47.8237 44.1271 48.09 44.1334 48.4683 44.1439C48.2444 44.1994 48.2587 44.161 48.1152 44.3027C47.8856 44.2398 47.746 44.2646 47.5068 44.2835L47.4478 44.1576Z" fill="white"/>
<path d="M29.8572 44.2261L29.9361 44.2952C29.8343 44.4735 29.5696 44.8152 29.3887 44.9162C29.4196 44.7077 29.6331 44.6255 29.6851 44.4303C29.6943 44.3955 29.6024 44.3886 29.634 44.2546C29.788 44.2874 29.7292 44.2972 29.8572 44.2261Z" fill="white"/>
<path d="M40.2594 33.4588C40.2223 33.1853 40.2811 32.9253 40.5401 32.7803C40.5714 33.0484 40.4129 33.2503 40.2594 33.4588Z" fill="white"/>
<path d="M48.7818 45.7458L48.8785 45.8523C48.8714 46.05 48.8571 46.2795 48.8614 46.4744L48.738 46.3216C48.7313 46.155 48.7632 45.918 48.7818 45.7458Z" fill="white"/>
<path d="M7.07422 47.4198C7.09737 47.1707 7.19685 46.9297 7.38162 46.7568C7.43064 46.9226 7.09671 47.3022 7.13644 47.5456C7.13535 47.5389 7.12486 47.6913 7.12405 47.7051L7.07422 47.4198Z" fill="white"/>
<path d="M37.8247 45.423C37.8282 45.2665 37.8667 45.1295 37.9025 44.9779L37.93 44.9709C38.0118 45.0262 38.0267 45.1865 38.0694 45.3176L37.8247 45.423Z" fill="white"/>
<path d="M38.0906 38.4622L38.323 38.4177C38.1657 38.6502 38.3215 38.6577 38.2011 38.9489C38.1675 38.7847 38.1378 38.623 38.0906 38.4622Z" fill="white"/>
</g>
<path d="M56.1611 61.1443C56.1338 61.158 56.0928 61.1785 56.0312 61.2058C55.9697 61.2332 55.9219 61.2537 55.8945 61.2673C55.7305 61.3904 55.5869 61.5681 55.4639 61.8005L52.7158 66.8318V70.7625H51.4717V66.8318L48.2383 60.905H49.6396L52.1279 65.5808L54.2471 61.6638C54.4385 61.3152 54.5957 61.0964 54.7188 61.0076C54.9102 60.8777 55.1221 60.8093 55.3477 60.8093C55.6758 60.8093 55.9492 60.9255 56.1611 61.1443ZM61.9785 63.3113V69.4294C61.9785 69.6482 62.0332 69.7986 62.1426 69.8943C62.2383 69.9763 62.3545 70.0173 62.498 70.0173C62.6758 70.0173 62.8467 69.949 63.0244 69.8123V69.9353C63.0244 70.2292 62.9219 70.4548 62.7236 70.6189C62.5254 70.783 62.2793 70.8582 61.9785 70.8582C61.6914 70.8582 61.4453 70.783 61.2334 70.6189C61.0146 70.4617 60.8984 70.2087 60.8848 69.8669L60.8711 69.614C60.6455 70.0242 60.3379 70.3386 59.9482 70.5574C59.5518 70.7761 59.1074 70.8855 58.6016 70.8855C57.8359 70.8855 57.1797 70.5437 56.6465 69.8464C56.1133 69.1492 55.8467 68.2195 55.8467 67.0505C55.8467 66.3328 55.9834 65.6833 56.2568 65.1091C56.5303 64.5349 56.9404 64.0769 57.4873 63.7351C58.0342 63.3933 58.6836 63.2156 59.4287 63.2156C59.7842 63.2156 60.1738 63.2566 60.5908 63.3386C61.0078 63.4207 61.2812 63.4548 61.4043 63.4548C61.5684 63.4548 61.7598 63.407 61.9785 63.3113ZM60.7754 64.323C60.4062 64.1863 59.9756 64.1111 59.4697 64.1111C59.0527 64.1111 58.6836 64.1931 58.3691 64.3503C58.0547 64.5144 57.8018 64.7332 57.6172 65.0066C57.4258 65.2869 57.2891 65.6013 57.2002 65.9431C57.1045 66.2849 57.0635 66.6609 57.0635 67.0642C57.0635 67.9734 57.248 68.6843 57.6309 69.1902C58.0068 69.696 58.4512 69.949 58.957 69.949C59.4902 69.949 59.9209 69.7781 60.2627 69.4226C60.6045 69.074 60.7754 68.5476 60.7754 67.8503V64.323ZM68.4521 68.7322C68.4521 69.4021 68.2266 69.9285 67.7822 70.3113C67.3311 70.6941 66.7568 70.8855 66.0459 70.8855C65.6221 70.8855 65.2119 70.824 64.8018 70.6941C64.3916 70.571 64.0361 70.3933 63.7217 70.1746L64.0703 69.3337C64.7129 69.7644 65.376 69.9763 66.0459 69.9763C66.4219 69.9763 66.7363 69.8738 66.9961 69.6687C67.249 69.4636 67.3789 69.1765 67.3789 68.8142C67.3789 68.6707 67.3447 68.5408 67.2832 68.4177C67.2148 68.2947 67.1465 68.199 67.0645 68.1169C66.9824 68.0417 66.8594 67.9597 66.6953 67.8708C66.5244 67.7888 66.3809 67.7205 66.2715 67.6794C66.1553 67.6384 65.9844 67.5701 65.7656 67.488C65.5332 67.406 65.3418 67.3308 65.1914 67.2625C65.0342 67.1941 64.8633 67.0984 64.6719 66.9753C64.4805 66.8523 64.3232 66.7156 64.2139 66.5789C64.0977 66.4421 64.002 66.2644 63.9199 66.0525C63.8379 65.8406 63.8037 65.6013 63.8037 65.3416C63.8037 64.6853 64.0225 64.1726 64.46 63.7898C64.8975 63.407 65.458 63.2156 66.1553 63.2156C66.8389 63.2156 67.5361 63.3933 68.2471 63.7488L68.2129 63.8992C68.1719 64.1316 68.1104 64.282 68.0283 64.364C67.9463 64.446 67.8301 64.4871 67.6865 64.4871C67.6182 64.4871 67.4199 64.4255 67.0781 64.3025C66.7363 64.1794 66.4492 64.1111 66.2031 64.1111C65.8203 64.1111 65.499 64.2136 65.2529 64.405C65.0068 64.6033 64.8838 64.8835 64.8838 65.2458C64.8838 65.5876 64.9932 65.8406 65.2256 66.0183C65.458 66.196 65.8887 66.4011 66.5244 66.6335C66.6816 66.6951 66.8184 66.7498 66.9277 66.7908C67.0371 66.8318 67.1602 66.8933 67.3105 66.9617C67.4541 67.0369 67.5771 67.1121 67.6729 67.1804C67.7686 67.2488 67.8711 67.3376 67.9805 67.447C68.0898 67.5564 68.1719 67.6658 68.2334 67.7888C68.2949 67.9119 68.3496 68.0486 68.3906 68.2126C68.4316 68.3767 68.4521 68.5476 68.4521 68.7322ZM79.8955 68.0486C79.8955 68.5271 79.7998 68.9509 79.6221 69.3064C79.4375 69.6687 79.1777 69.9626 78.8359 70.1814C78.4941 70.4001 78.1045 70.5642 77.6533 70.6736C77.2021 70.783 76.6895 70.8308 76.1289 70.8308C75.2129 70.8308 74.4746 70.7966 73.9072 70.7214V60.9597C74.5771 60.8914 75.2539 60.8503 75.9238 60.8503C78.3438 60.8503 79.5605 61.7048 79.5605 63.4001C79.5605 63.8923 79.4238 64.3435 79.1504 64.7605C78.877 65.1843 78.501 65.4919 78.0225 65.697C78.5967 65.8474 79.0547 66.1414 79.3896 66.5789C79.7246 67.0164 79.8955 67.5017 79.8955 68.0486ZM76.4365 66.2371H75.124V69.8123C75.4453 69.8533 75.876 69.8669 76.4092 69.8669C76.7031 69.8669 76.9766 69.8328 77.2363 69.7576C77.4961 69.6892 77.7285 69.5798 77.9336 69.4363C78.1387 69.2996 78.2959 69.1082 78.4189 68.8689C78.5352 68.6296 78.5967 68.3562 78.5967 68.0486C78.5967 67.823 78.5625 67.6111 78.4941 67.406C78.4258 67.2078 78.3164 67.0164 78.166 66.8318C78.0156 66.6541 77.79 66.5105 77.4961 66.4011C77.1953 66.2917 76.8467 66.2371 76.4365 66.2371ZM75.124 61.8757V65.3005H76.2998C76.9287 65.3005 77.4209 65.157 77.7764 64.8562C78.1318 64.5623 78.3164 64.1042 78.3164 63.4822C78.3164 62.9626 78.1387 62.5525 77.7832 62.2585C77.4277 61.9646 76.8945 61.8142 76.1904 61.8142C75.876 61.8142 75.5205 61.8347 75.124 61.8757ZM87.1484 63.3113V69.4294C87.1484 69.6482 87.2031 69.7986 87.3125 69.8943C87.4082 69.9763 87.5244 70.0173 87.668 70.0173C87.8457 70.0173 88.0166 69.949 88.1943 69.8123V69.9353C88.1943 70.2292 88.0918 70.4548 87.8936 70.6189C87.6953 70.783 87.4492 70.8582 87.1484 70.8582C86.8613 70.8582 86.6152 70.783 86.4033 70.6189C86.1846 70.4617 86.0684 70.2087 86.0547 69.8669L86.041 69.614C85.8154 70.0242 85.5078 70.3386 85.1182 70.5574C84.7217 70.7761 84.2773 70.8855 83.7715 70.8855C83.0059 70.8855 82.3496 70.5437 81.8164 69.8464C81.2832 69.1492 81.0166 68.2195 81.0166 67.0505C81.0166 66.3328 81.1533 65.6833 81.4268 65.1091C81.7002 64.5349 82.1104 64.0769 82.6572 63.7351C83.2041 63.3933 83.8535 63.2156 84.5986 63.2156C84.9541 63.2156 85.3438 63.2566 85.7607 63.3386C86.1777 63.4207 86.4512 63.4548 86.5742 63.4548C86.7383 63.4548 86.9297 63.407 87.1484 63.3113ZM85.9453 64.323C85.5762 64.1863 85.1455 64.1111 84.6396 64.1111C84.2227 64.1111 83.8535 64.1931 83.5391 64.3503C83.2246 64.5144 82.9717 64.7332 82.7871 65.0066C82.5957 65.2869 82.459 65.6013 82.3701 65.9431C82.2744 66.2849 82.2334 66.6609 82.2334 67.0642C82.2334 67.9734 82.418 68.6843 82.8008 69.1902C83.1768 69.696 83.6211 69.949 84.127 69.949C84.6602 69.949 85.0908 69.7781 85.4326 69.4226C85.7744 69.074 85.9453 68.5476 85.9453 67.8503V64.323ZM93.8203 67.8777V63.3591H95.0234V68.6912C95.0234 69.2996 95.0098 69.8054 94.9961 70.2156C94.9551 71.282 94.6748 72.116 94.1621 72.7039C93.6426 73.2986 92.8975 73.5925 91.9131 73.5925C91.6533 73.5925 91.3662 73.5652 91.0518 73.4968C90.7373 73.4353 90.4912 73.3464 90.3066 73.2234C89.9238 72.991 89.7324 72.7175 89.7324 72.4167C89.7324 72.2322 89.8145 72.0476 89.9785 71.8699C90.5664 72.3894 91.1953 72.6492 91.8584 72.6492C92.5557 72.6492 93.0547 72.4509 93.3623 72.0408C93.6631 71.6306 93.8203 70.9675 93.8203 70.0515V69.6003C93.6084 69.9285 93.3281 70.1882 92.9727 70.3796C92.6172 70.571 92.2139 70.6667 91.7764 70.6667C91.2021 70.6667 90.7168 70.5164 90.3203 70.2087C89.9238 69.9011 89.6641 69.4226 89.5479 68.7732C89.4932 68.4656 89.4658 68.1033 89.4658 67.6794V63.3591H90.6689V67.8503C90.6689 68.5271 90.7852 69.0125 91.0312 69.2996C91.2705 69.5935 91.6123 69.7371 92.0566 69.7371C92.5898 69.7371 93.0137 69.5525 93.335 69.1833C93.6562 68.8142 93.8203 68.3767 93.8203 67.8777Z" fill="white"/>
<defs>
<clipPath id="clip0_380_2169">
<rect width="95.5254" height="51.76" fill="white"/>
</clipPath>
</defs>
</svg>
